<?xml version="1.0" standalone="no"?><!DOCTYPE svg PUBLIC "-//W3C//DTD SVG 1.1//EN" "http://www.w3.org/Graphics/SVG/1.1/DTD/svg11.dtd" ><svg xmlns="http://www.w3.org/2000/svg"><metadata></metadata><defs><font id="PingFang SC Light:Version 1.20" horiz-adv-x="1000"><font-face font-family="PingFang SC" font-weight="300" font-stretch="normal" units-per-em="1000" panose-1="2 11 3 0 0 0 0 0 0 0" ascent="1060" descent="-340" x-height="0" bbox="-15 -212 1000 860" underline-thickness="48" underline-position="-100" unicode-range="U+0021-ff5e" /><missing-glyph horiz-adv-x="1000"  /><glyph glyph-name="" unicode="!" d="M201 714 l-10 -529 l-48 0 l-10 529 l68 0 ZM167 100 q22 0 36 -14 q15 -13 15 -36 q0 -21 -15 -36 q-16 -14 -36 -14 q-22 0 -36 15 q-15 15 -15 35 q0 23 15 36 q13 14 36 14 Z" /><glyph glyph-name="" unicode="&quot;" d="M292 728 q61 0 61 -82 q0 -119 -100 -174 l-22 35 q71 47 77 123 q-8 -2 -15 -2 q-23 0 -37 14 q-14 13 -14 35 q0 25 13 38 q14 13 37 13 ZM121 728 q61 0 61 -82 q0 -119 -100 -174 l-22 35 q71 48 76 123 q-8 -2 -14 -2 q-23 0 -37 14 q-15 14 -15 35 q0 25 14 38 q14 13 37 13 Z" /><glyph glyph-name="" unicode="#" d="M195 538 l28 176 l51 0 l-28 -176 l166 0 l28 176 l51 0 l-27 -176 l108 0 l-8 -48 l-108 0 l-43 -268 l122 0 l-8 -47 l-121 0 l-28 -175 l-52 0 l28 175 l-165 0 l-28 -175 l-52 0 l28 175 l-109 0 l8 47 l108 0 l43 268 l-122 0 l8 48 l122 0 ZM361 222 l43 268 l-165 0 l-43 -268 l165 0 Z" /><glyph glyph-name="" unicode="$" d="M278 809 l41 0 l0 -82 q85 -4 141 -53 q59 -50 74 -154 l-60 0 q-12 77 -58 117 q-38 32 -97 37 l0 -287 l119 -43 q108 -54 108 -154 q0 -105 -71 -158 q-56 -41 -156 -46 l0 -87 l-41 0 l0 88 q-99 6 -153 64 q-57 60 -69 177 l61 0 q10 -95 53 -141 q37 -40 108 -46 l0 302 l-102 36 q-107 54 -107 155 q0 96 67 147 q55 44 142 47 l0 81 ZM319 40 q77 5 120 39 q45 39 45 109 q0 78 -107 120 l-58 20 l0 -288 ZM278 674 q-64 -3 -100 -32 q-48 -36 -48 -108 q0 -73 108 -117 l40 -15 l0 272 Z" /><glyph glyph-name="" unicode="%" d="M729 391 q77 0 119 -58 q37 -52 37 -137 q0 -83 -37 -137 q-42 -59 -119 -59 q-78 0 -119 59 q-37 50 -37 137 q0 87 37 137 q40 58 119 58 ZM702 728 l-399 -742 l-51 0 l399 742 l51 0 ZM225 714 q77 0 119 -58 q37 -52 37 -137 q0 -83 -37 -137 q-42 -59 -119 -59 q-77 0 -118 59 q-37 50 -37 137 q0 87 37 137 q40 58 118 58 ZM729 347 q-51 0 -75 -43 q-24 -39 -24 -108 q0 -71 23 -108 q24 -44 76 -44 q49 0 76 45 q23 40 23 107 q0 69 -24 108 q-25 43 -75 43 ZM225 670 q-51 0 -75 -43 q-23 -37 -23 -108 q0 -71 23 -108 q24 -44 75 -44 q51 0 76 45 q23 40 23 107 q0 69 -24 108 q-24 43 -75 43 Z" /><glyph glyph-name="" unicode="&amp;" d="M301 678 q-51 0 -80 -26 q-30 -25 -30 -71 q0 -33 34 -79 q17 -23 55 -64 q18 12 35 20 q95 56 95 124 q0 42 -27 67 q-29 29 -82 29 ZM229 410 q-51 54 -67 81 q-32 47 -32 89 q0 70 52 110 q45 38 120 38 q74 0 122 -39 q47 -39 47 -104 q0 -63 -53 -111 q-48 -39 -103 -72 l200 -211 q45 93 54 227 l60 0 q-6 -162 -71 -272 l138 -146 l-79 0 l-92 97 q-90 -111 -237 -111 q-106 0 -174 53 q-71 56 -71 153 q0 101 95 168 q33 19 91 50 ZM286 42 q123 0 198 98 l-220 232 q-48 -27 -90 -57 q-70 -51 -70 -124 q0 -67 53 -108 q52 -41 129 -41 Z" /><glyph glyph-name="" unicode="&#39;" d="M121 728 q61 0 61 -82 q0 -119 -100 -174 l-22 35 q71 48 76 123 q-8 -2 -14 -2 q-23 0 -37 14 q-15 14 -15 35 q0 25 14 38 q14 13 37 13 Z" /><glyph glyph-name="" unicode="(" d="M265 827 q-61 -100 -95 -208 q-43 -130 -43 -259 q0 -129 43 -259 q34 -107 95 -208 l-55 0 q-63 95 -99 206 q-43 130 -43 261 q0 131 43 260 q36 111 99 207 l55 0 Z" /><glyph glyph-name="" unicode=")" d="M123 827 q62 -96 99 -207 q43 -134 43 -260 q0 -126 -43 -261 q-38 -111 -99 -206 l-55 0 q58 96 95 208 q43 135 43 259 q0 124 -43 259 q-37 113 -95 208 l55 0 Z" /><glyph glyph-name="" unicode="*" d="M277 714 l-5 -204 l186 69 l17 -51 l-190 -60 l127 -155 l-42 -33 l-120 161 l-120 -161 l-41 33 l126 155 l-190 60 l17 51 l186 -69 l-5 204 l54 0 Z" /><glyph glyph-name="" unicode="+" d="M277 511 l52 0 l0 -226 l226 0 l0 -52 l-226 0 l0 -227 l-52 0 l0 227 l-227 0 l0 52 l227 0 l0 226 Z" /><glyph glyph-name="" unicode="," d="M126 100 q61 0 61 -83 q0 -118 -100 -173 l-22 35 q71 47 77 122 l-7 0 l-8 -1 q-22 0 -37 13 q-14 13 -14 36 q0 25 13 37 q14 14 37 14 Z" /><glyph glyph-name="" unicode="-" d="M50 285 l505 0 l0 -52 l-505 0 l0 52 Z" /><glyph glyph-name="" unicode="." d="M129 100 q22 0 36 -14 q15 -13 15 -36 q0 -20 -16 -36 q-16 -14 -35 -14 q-22 0 -36 15 q-15 15 -15 35 q0 23 15 36 q13 14 36 14 Z" /><glyph glyph-name="" unicode="/" d="M457 820 l-359 -920 l-55 0 l359 920 l55 0 Z" /><glyph glyph-name="" unicode="0" d="M300 728 q129 0 192 -118 q52 -96 52 -253 q0 -155 -52 -253 q-64 -118 -192 -118 q-128 0 -192 118 q-52 95 -52 253 q0 159 52 253 q63 118 192 118 ZM300 674 q-104 0 -149 -106 q-33 -78 -33 -211 q0 -131 33 -211 q45 -106 149 -106 q102 0 149 106 q34 82 34 211 q0 131 -34 211 q-46 106 -149 106 Z" /><glyph glyph-name="" unicode="1" d="M350 714 l0 -714 l-61 0 l0 638 q-69 -75 -171 -105 l0 62 q51 15 99 45 q47 31 84 74 l49 0 Z" /><glyph glyph-name="" unicode="2" d="M309 728 q97 0 159 -56 q63 -55 63 -148 q0 -92 -71 -168 q-35 -37 -148 -114 q-152 -103 -169 -186 l389 0 l0 -56 l-464 0 q0 92 71 170 q44 50 150 123 q90 64 121 95 q59 64 59 137 q0 71 -44 110 q-43 39 -117 39 q-78 0 -123 -52 q-48 -52 -48 -152 l-62 0 q0 120 66 189 q63 69 168 69 Z" /><glyph glyph-name="" unicode="3" d="M307 728 q100 0 161 -52 q60 -52 60 -140 q0 -123 -116 -162 q62 -19 96 -63 q35 -44 35 -106 q0 -96 -67 -158 q-69 -61 -174 -61 q-95 0 -159 50 q-77 59 -86 181 l62 0 q4 -91 64 -139 q48 -39 118 -39 q81 0 133 47 q48 47 48 117 q0 66 -46 106 q-44 38 -121 38 l-63 0 l0 50 l57 0 q75 0 118 35 q40 37 40 101 q0 63 -41 102 q-43 39 -119 39 q-76 0 -119 -43 q-45 -42 -54 -119 l-61 0 q9 100 74 159 q62 57 160 57 Z" /><glyph glyph-name="" unicode="4" d="M453 714 l0 -496 l121 0 l0 -51 l-121 0 l0 -167 l-59 0 l0 167 l-368 0 l0 59 l368 488 l59 0 ZM391 631 l-310 -413 l313 0 l0 413 l-3 0 Z" /><glyph glyph-name="" unicode="5" d="M516 714 l0 -56 l-353 0 l-25 -263 l3 0 q32 38 79 57 q42 19 93 19 q102 0 165 -63 q65 -67 65 -181 q0 -105 -73 -175 q-70 -66 -175 -66 q-92 0 -157 51 q-73 55 -81 152 l61 0 q8 -73 60 -113 q48 -37 117 -37 q81 0 134 53 q53 55 53 135 q0 91 -50 143 q-48 49 -131 49 q-54 0 -98 -24 q-45 -25 -69 -71 l-58 0 l36 390 l404 0 Z" /><glyph glyph-name="" unicode="6" d="M311 728 q191 0 221 -188 l-61 0 q-25 135 -161 135 q-92 0 -143 -91 q-50 -85 -50 -221 l0 -35 l4 0 q24 63 78 99 q51 36 120 36 q102 0 163 -65 q62 -65 62 -169 q0 -105 -66 -174 q-66 -69 -168 -69 q-130 0 -195 99 q-58 89 -58 254 q0 169 64 275 q69 114 190 114 ZM309 411 q-76 0 -126 -53 q-52 -51 -52 -130 q0 -79 46 -132 q50 -57 131 -57 q79 0 127 54 q48 54 48 136 q0 82 -47 132 q-47 50 -127 50 Z" /><glyph glyph-name="" unicode="7" d="M70 714 l461 0 l0 -51 l-270 -663 l-67 0 l273 657 l-397 0 l0 57 Z" /><glyph glyph-name="" unicode="8" d="M300 728 q110 0 171 -57 q56 -51 56 -128 q0 -56 -29 -99 q-31 -43 -88 -61 l0 -4 q58 -12 100 -63 q42 -51 42 -121 q0 -92 -64 -150 q-67 -59 -188 -59 q-121 0 -188 59 q-64 57 -64 150 q0 70 42 121 q40 51 101 63 l0 4 q-58 18 -89 61 q-29 41 -29 99 q0 78 56 128 q60 57 171 57 ZM300 676 q-84 0 -129 -42 q-39 -36 -39 -93 q0 -59 36 -95 q44 -42 132 -42 q87 0 132 42 q36 36 36 95 q0 57 -39 93 q-46 42 -129 42 ZM300 354 q-94 0 -144 -47 q-48 -42 -48 -112 q0 -71 47 -112 q51 -46 145 -46 q94 0 146 46 q46 43 46 112 q0 70 -48 112 q-50 47 -144 47 Z" /><glyph glyph-name="" unicode="9" d="M291 728 q130 0 194 -98 q59 -91 59 -255 q0 -165 -64 -275 q-69 -114 -190 -114 q-191 0 -221 188 l61 0 q24 -135 161 -135 q90 0 143 91 q50 88 50 221 l0 35 l-4 0 q-25 -61 -78 -99 q-52 -36 -120 -36 q-102 0 -164 66 q-61 64 -61 168 q0 105 66 174 q66 69 168 69 ZM293 675 q-79 0 -127 -54 q-48 -54 -48 -136 q0 -82 47 -132 q48 -50 127 -50 q73 0 126 53 q52 54 52 130 q0 77 -46 132 q-51 57 -131 57 Z" /><glyph glyph-name="" unicode=":" d="M129 466 q22 0 36 -14 q15 -13 15 -36 q0 -20 -16 -36 q-16 -14 -35 -14 q-22 0 -36 15 q-15 15 -15 35 q0 23 15 36 q13 14 36 14 ZM129 100 q22 0 36 -14 q15 -13 15 -36 q0 -20 -16 -36 q-16 -14 -35 -14 q-22 0 -36 15 q-15 15 -15 35 q0 23 15 36 q13 14 36 14 Z" /><glyph glyph-name="" unicode=";" d="M129 466 q22 0 36 -14 q15 -13 15 -36 q0 -20 -16 -36 q-16 -14 -35 -14 q-22 0 -36 15 q-15 15 -15 35 q0 23 15 36 q13 14 36 14 ZM129 100 q60 0 60 -83 q0 -118 -100 -173 l-21 35 q72 48 76 122 l-7 0 l-8 -1 q-22 0 -37 13 q-14 13 -14 36 q0 26 14 37 q13 14 37 14 Z" /><glyph glyph-name="" unicode="&lt;" d="M555 456 l-435 -197 l435 -198 l0 -58 l-505 230 l0 51 l505 230 l0 -58 Z" /><glyph glyph-name="" unicode="=" d="M50 387 l505 0 l0 -52 l-505 0 l0 52 ZM50 183 l505 0 l0 -52 l-505 0 l0 52 Z" /><glyph glyph-name="" unicode="&gt;" d="M50 514 l505 -230 l0 -51 l-505 -230 l0 58 l435 198 l-435 197 l0 58 Z" /><glyph glyph-name="" unicode="?" d="M270 728 q96 0 151 -54 q54 -51 54 -138 q0 -62 -37 -113 q-16 -18 -79 -77 q-36 -30 -51 -57 q-21 -34 -21 -77 l0 -29 l-61 0 l0 29 q0 44 18 80 q22 48 92 109 q37 35 47 48 q31 42 31 85 q0 63 -37 102 q-38 38 -110 38 q-80 0 -120 -53 q-35 -46 -37 -125 l-60 0 q1 100 56 164 q58 68 164 68 ZM257 100 q22 0 36 -14 q15 -13 15 -36 q0 -21 -15 -36 q-16 -14 -36 -14 q-21 0 -35 15 q-16 15 -16 35 q0 23 16 36 q13 14 35 14 Z" /><glyph glyph-name="" unicode="@" d="M437 728 q154 0 245 -92 q86 -86 86 -219 q0 -106 -67 -193 q-65 -80 -139 -80 q-61 0 -66 69 q-56 -71 -132 -71 q-62 0 -98 41 q-37 41 -37 104 q0 118 70 198 q66 79 155 79 q74 0 98 -79 l17 60 l50 0 l-72 -272 q-11 -33 -11 -57 q0 -27 31 -27 q49 0 99 61 q57 72 57 167 q0 112 -76 188 q-81 78 -213 78 q-141 0 -234 -94 q-94 -93 -94 -236 q0 -153 91 -240 q90 -84 236 -84 q111 0 195 42 q73 38 117 100 l55 0 q-53 -87 -148 -135 q-98 -50 -219 -50 q-170 0 -275 100 q-105 102 -105 269 q0 157 108 263 q109 110 276 110 ZM461 515 q-70 0 -122 -64 q-56 -66 -56 -165 q0 -45 22 -70 q23 -28 62 -28 q43 0 85 36 q39 33 51 75 l23 87 q10 40 10 46 q0 29 -19 54 q-20 29 -56 29 Z" /><glyph glyph-name="" unicode="A" d="M358 714 l286 -714 l-67 0 l-83 213 l-344 0 l-83 -213 l-67 0 l286 714 l72 0 ZM474 265 l-150 383 l-3 0 l-151 -383 l304 0 Z" /><glyph glyph-name="" unicode="B" d="M73 714 l314 0 q98 0 154 -47 q57 -48 57 -132 q0 -61 -35 -105 q-34 -41 -89 -58 q70 -12 112 -57 q41 -47 41 -118 q0 -101 -73 -153 q-64 -44 -170 -44 l-311 0 l0 714 ZM134 661 l0 -266 l240 0 q76 0 119 34 q44 35 44 100 q0 66 -43 100 q-42 32 -119 32 l-241 0 ZM134 343 l0 -290 l248 0 q79 0 128 32 q56 39 56 113 q0 73 -52 110 q-48 35 -133 35 l-247 0 Z" /><glyph glyph-name="" unicode="C" d="M381 728 q114 0 194 -62 q83 -63 97 -168 l-59 0 q-13 83 -81 129 q-64 45 -152 45 q-131 0 -206 -93 q-70 -86 -70 -225 q0 -139 69 -223 q72 -89 201 -89 q90 0 157 49 q71 54 92 153 l59 0 q-23 -124 -112 -194 q-84 -64 -195 -64 q-160 0 -250 110 q-82 100 -82 258 q0 158 84 261 q91 113 254 113 Z" /><glyph glyph-name="" unicode="D" d="M73 714 l254 0 q167 0 251 -100 q77 -91 77 -257 q0 -163 -86 -258 q-90 -99 -255 -99 l-241 0 l0 714 ZM134 660 l0 -606 l171 0 q143 0 218 81 q72 78 72 222 q0 150 -63 223 q-68 80 -214 80 l-184 0 Z" /><glyph glyph-name="" unicode="E" d="M73 714 l501 0 l0 -54 l-440 0 l0 -263 l416 0 l0 -55 l-416 0 l0 -288 l457 0 l0 -54 l-518 0 l0 714 Z" /><glyph glyph-name="" unicode="F" d="M73 714 l473 0 l0 -54 l-412 0 l0 -265 l391 0 l0 -54 l-391 0 l0 -341 l-61 0 l0 714 Z" /><glyph glyph-name="" unicode="G" d="M375 728 q132 0 211 -67 q73 -63 93 -178 l-62 0 q-17 88 -76 137 q-62 52 -166 52 q-125 0 -199 -90 q-72 -87 -72 -229 q0 -139 72 -222 q77 -90 220 -90 q62 0 122 18 q61 19 97 44 l0 203 l-244 0 l0 54 l305 0 l0 -286 q-52 -41 -123 -64 q-78 -24 -162 -24 q-168 0 -262 109 q-86 99 -86 258 q0 159 85 262 q91 113 247 113 Z" /><glyph glyph-name="" unicode="H" d="M73 714 l61 0 l0 -317 l443 0 l0 317 l61 0 l0 -714 l-61 0 l0 342 l-443 0 l0 -342 l-61 0 l0 714 Z" /><glyph glyph-name="" unicode="I" d="M82 714 l61 0 l0 -714 l-61 0 l0 714 Z" /><glyph glyph-name="" unicode="J" d="M371 714 l62 0 l0 -487 q0 -113 -46 -174 q-53 -67 -168 -67 q-97 0 -148 53 q-56 55 -56 159 l0 27 l61 0 l0 -26 q0 -157 144 -157 q81 0 117 47 q34 46 34 139 l0 486 Z" /><glyph glyph-name="" unicode="K" d="M632 714 l-328 -305 l373 -409 l-84 0 l-331 370 l-128 -119 l0 -251 l-61 0 l0 714 l61 0 l0 -392 l416 392 l82 0 Z" /><glyph glyph-name="" unicode="L" d="M73 714 l61 0 l0 -660 l429 0 l0 -54 l-490 0 l0 714 Z" /><glyph glyph-name="" unicode="M" d="M73 714 l81 0 l280 -637 l3 0 l278 637 l81 0 l0 -714 l-61 0 l0 613 l-3 0 l-268 -613 l-59 0 l-267 613 l-4 0 l0 -613 l-61 0 l0 714 Z" /><glyph glyph-name="" unicode="N" d="M73 714 l69 0 l432 -619 l3 0 l0 619 l62 0 l0 -714 l-68 0 l-434 624 l-3 0 l0 -624 l-61 0 l0 714 Z" /><glyph glyph-name="" unicode="O" d="M382 728 q157 0 250 -108 q87 -102 87 -263 q0 -162 -87 -264 q-93 -107 -251 -107 q-159 0 -251 108 q-87 102 -87 263 q0 161 87 263 q93 108 252 108 ZM382 672 q-131 0 -206 -90 q-72 -87 -72 -225 q0 -141 71 -225 q75 -90 206 -90 q130 0 205 89 q72 86 72 226 q0 142 -72 226 q-74 89 -204 89 Z" /><glyph glyph-name="" unicode="P" d="M73 714 l290 0 q238 0 238 -205 q0 -206 -239 -206 l-228 0 l0 -303 l-61 0 l0 714 ZM134 660 l0 -303 l225 0 q91 0 137 38 q43 38 43 114 q0 75 -43 112 q-45 39 -137 39 l-225 0 Z" /><glyph glyph-name="" unicode="Q" d="M382 728 q157 0 250 -108 q87 -102 87 -263 q0 -162 -87 -264 l-10 -12 q37 -49 84 -116 l-42 -36 q-52 76 -83 116 q-83 -59 -200 -59 q-159 0 -251 108 q-87 102 -87 263 q0 161 87 263 q93 108 252 108 ZM382 672 q-131 0 -206 -90 q-72 -87 -72 -225 q0 -141 71 -225 q75 -90 206 -90 q97 0 164 50 q-62 79 -129 151 l38 37 q72 -77 131 -151 q0 2 1 2 q72 86 72 226 q0 142 -72 226 q-74 89 -204 89 Z" /><glyph glyph-name="" unicode="R" d="M73 714 l302 0 q107 0 166 -50 q61 -52 61 -146 q0 -61 -34 -109 q-36 -48 -101 -63 l0 -2 q108 -24 120 -132 l10 -107 q6 -67 35 -105 l-67 0 q-22 35 -28 97 l-9 98 q-6 66 -49 95 q-39 27 -109 27 l-236 0 l0 -317 l-61 0 l0 714 ZM134 660 l0 -289 l235 0 q83 0 130 41 q42 39 42 104 q0 71 -41 107 q-41 37 -132 37 l-234 0 Z" /><glyph glyph-name="" unicode="S" d="M306 728 q117 0 186 -57 q71 -57 80 -168 l-61 0 q-12 83 -63 127 q-50 43 -144 43 q-86 0 -136 -30 q-56 -32 -56 -101 q0 -59 67 -95 q36 -17 137 -46 q139 -40 184 -68 q89 -53 89 -150 q0 -92 -77 -146 q-73 -51 -195 -51 q-123 0 -194 56 q-81 64 -90 194 l60 0 q11 -101 70 -150 q55 -44 153 -44 q93 0 153 37 q58 38 58 101 q0 73 -73 114 q-40 23 -157 55 q-128 36 -164 57 q-82 46 -82 134 q0 93 77 142 q68 46 178 46 Z" /><glyph glyph-name="" unicode="T" d="M18 714 l585 0 l0 -54 l-262 0 l0 -660 l-61 0 l0 660 l-262 0 l0 54 Z" /><glyph glyph-name="" unicode="U" d="M73 714 l61 0 l0 -438 q0 -116 50 -173 q54 -62 167 -62 q113 0 167 62 q50 59 50 173 l0 438 l61 0 l0 -438 q0 -138 -67 -213 q-71 -77 -211 -77 q-140 0 -210 76 q-68 74 -68 214 l0 438 Z" /><glyph glyph-name="" unicode="V" d="M73 714 l239 -649 l3 0 l239 649 l68 0 l-269 -714 l-78 0 l-270 714 l68 0 Z" /><glyph glyph-name="" unicode="W" d="M74 714 l171 -632 l3 0 l175 632 l71 0 l175 -632 l3 0 l171 632 l69 0 l-205 -714 l-72 0 l-175 628 l-3 0 l-175 -628 l-72 0 l-205 714 l69 0 Z" /><glyph glyph-name="" unicode="X" d="M102 714 l208 -293 l209 293 l76 0 l-248 -343 l269 -371 l-77 0 l-229 323 l-229 -323 l-76 0 l268 371 l-247 343 l76 0 Z" /><glyph glyph-name="" unicode="Y" d="M80 714 l243 -363 l242 363 l75 0 l-287 -420 l0 -294 l-61 0 l0 294 l-287 420 l75 0 Z" /><glyph glyph-name="" unicode="Z" d="M55 714 l511 0 l0 -53 l-462 -607 l486 0 l0 -54 l-565 0 l0 53 l463 607 l-433 0 l0 54 Z" /><glyph glyph-name="" unicode="[" d="M50 827 l233 0 l0 -52 l-177 0 l0 -830 l177 0 l0 -52 l-233 0 l0 934 Z" /><glyph glyph-name="" unicode="\" d="M98 820 l359 -920 l-55 0 l-359 920 l55 0 Z" /><glyph glyph-name="" unicode="]" d="M50 827 l233 0 l0 -934 l-233 0 l0 52 l177 0 l0 830 l-177 0 l0 52 Z" /><glyph glyph-name="" unicode="^" d="M281 714 l161 -344 l-52 0 l-139 290 l-138 -290 l-53 0 l161 344 l60 0 Z" /><glyph glyph-name="" unicode="_" d="M0 -88 l500 0 l0 -52 l-500 0 l0 52 Z" /><glyph glyph-name="" unicode="`" d="M150 722 l105 -146 l-44 0 l-133 146 l72 0 Z" /><glyph glyph-name="" unicode="a" d="M282 531 q109 0 161 -59 q46 -51 46 -139 l0 -333 l-57 0 l0 99 q-32 -46 -84 -77 q-61 -36 -135 -36 q-76 0 -123 39 q-47 40 -47 107 q0 99 81 144 q65 37 173 37 l132 1 l0 19 q0 147 -150 147 q-69 0 -108 -29 q-44 -29 -53 -90 l-59 0 q12 87 73 130 q56 40 150 40 ZM429 265 l-129 -1 q-196 -1 -196 -131 q0 -43 33 -70 q32 -27 88 -27 q81 0 144 54 q60 53 60 115 l0 60 Z" /><glyph glyph-name="" unicode="b" d="M63 728 l60 0 l0 -320 q57 123 181 123 q110 0 172 -83 q57 -75 57 -189 q0 -116 -57 -191 q-64 -82 -174 -82 q-129 0 -182 116 l0 -102 l-57 0 l0 728 ZM293 480 q-80 0 -126 -62 q-46 -59 -46 -155 l0 -12 q0 -92 43 -150 q46 -64 131 -64 q87 0 135 66 q42 59 42 156 q0 97 -43 155 q-48 66 -136 66 Z" /><glyph glyph-name="" unicode="c" d="M281 531 q93 0 151 -45 q59 -45 71 -138 l-60 0 q-10 65 -52 98 q-42 33 -110 33 q-82 0 -130 -63 q-47 -59 -47 -161 q0 -99 45 -158 q45 -59 131 -59 q144 0 166 147 l59 0 q-15 -98 -74 -149 q-58 -50 -151 -50 q-115 0 -178 78 q-59 71 -59 191 q0 118 61 194 q64 82 177 82 Z" /><glyph glyph-name="" unicode="d" d="M453 728 l60 0 l0 -728 l-57 0 l0 102 q-54 -116 -181 -116 q-111 0 -175 82 q-57 75 -57 191 q0 114 57 189 q62 83 172 83 q124 0 181 -123 l0 320 ZM283 480 q-88 0 -136 -66 q-43 -56 -43 -155 q0 -97 42 -156 q47 -66 135 -66 q84 0 131 64 q43 60 43 150 l0 12 q0 94 -46 155 q-47 62 -126 62 Z" /><glyph glyph-name="" unicode="e" d="M272 531 q123 0 184 -83 q55 -74 59 -207 l-420 0 q5 -95 51 -149 q48 -54 128 -54 q69 0 114 37 q36 31 55 91 l61 0 q-18 -75 -69 -123 q-63 -57 -161 -57 q-109 0 -174 74 q-67 74 -67 199 q0 114 64 191 q66 81 175 81 ZM273 479 q-77 0 -123 -53 q-47 -53 -54 -136 l356 0 q-15 189 -179 189 Z" /><glyph glyph-name="" unicode="f" d="M365 714 l0 -53 l-87 0 q-40 0 -57 -20 q-18 -19 -18 -64 l0 -60 l155 0 l0 -52 l-155 0 l0 -465 l-60 0 l0 465 l-138 0 l0 52 l138 0 l0 61 q0 66 32 99 q33 37 98 37 l92 0 Z" /><glyph glyph-name="" unicode="g" d="M276 531 q128 0 185 -118 l0 104 l60 0 l0 -479 q0 -250 -232 -250 q-101 0 -157 44 q-53 42 -66 124 l60 0 q11 -58 48 -86 q40 -32 115 -32 q172 0 172 193 l0 99 q-57 -118 -185 -118 q-108 0 -173 77 q-60 72 -60 182 q0 110 60 182 q65 78 173 78 ZM283 480 q-86 0 -133 -62 q-46 -56 -46 -147 q0 -88 43 -144 q47 -63 135 -63 q86 0 134 60 q45 57 45 147 q0 90 -45 147 q-47 62 -133 62 Z" /><glyph glyph-name="" unicode="h" d="M63 728 l61 0 l0 -305 q27 53 72 81 q44 27 98 27 q89 0 138 -52 q50 -53 50 -149 l0 -330 l-60 0 l0 322 q0 74 -38 117 q-39 40 -107 40 q-64 0 -109 -52 q-44 -50 -44 -128 l0 -299 l-61 0 l0 728 Z" /><glyph glyph-name="" unicode="i" d="M123 703 q21 0 36 -15 q15 -12 15 -35 q0 -20 -16 -36 q-16 -14 -35 -14 q-22 0 -36 14 q-15 15 -15 36 q0 23 15 35 q14 15 36 15 ZM93 517 l60 0 l0 -517 l-60 0 l0 517 Z" /><glyph glyph-name="" unicode="j" d="M138 703 q22 0 37 -15 q14 -12 14 -35 q0 -20 -14 -36 q-16 -14 -37 -14 q-20 0 -36 14 q-15 15 -15 36 q0 23 15 35 q15 15 36 15 ZM108 517 l60 0 l0 -584 q0 -131 -135 -131 l-48 0 l0 52 l44 0 q79 0 79 81 l0 582 Z" /><glyph glyph-name="" unicode="k" d="M63 728 l60 0 l0 -472 l287 261 l82 0 l-227 -205 l250 -312 l-79 0 l-214 273 l-99 -90 l0 -183 l-60 0 l0 728 Z" /><glyph glyph-name="" unicode="l" d="M82 728 l60 0 l0 -728 l-60 0 l0 728 Z" /><glyph glyph-name="" unicode="m" d="M273 531 q123 0 162 -106 q27 52 69 79 q39 27 94 27 q82 0 130 -51 q47 -52 47 -142 l0 -338 l-60 0 l0 330 q0 74 -30 110 q-33 39 -103 39 q-57 0 -94 -43 q-38 -41 -38 -107 l0 -329 l-61 0 l0 330 q0 149 -129 149 q-59 0 -97 -47 q-40 -46 -40 -114 l0 -318 l-60 0 l0 517 l60 0 l0 -78 q55 92 150 92 Z" /><glyph glyph-name="" unicode="n" d="M291 531 q192 0 192 -213 l0 -318 l-60 0 l0 314 q0 165 -147 165 q-62 0 -104 -45 q-44 -44 -49 -122 l0 -312 l-60 0 l0 517 l60 0 l0 -85 q27 46 70 73 q42 26 98 26 Z" /><glyph glyph-name="" unicode="o" d="M289 531 q114 0 183 -82 q63 -76 63 -191 q0 -113 -63 -190 q-70 -82 -183 -82 q-113 0 -183 82 q-63 77 -63 190 q0 115 64 191 q67 82 182 82 ZM289 479 q-89 0 -139 -68 q-46 -59 -46 -153 q0 -93 46 -152 q51 -68 139 -68 q89 0 140 68 q46 63 46 152 q0 92 -46 153 q-50 68 -140 68 Z" /><glyph glyph-name="" unicode="p" d="M302 531 q110 0 174 -83 q57 -75 57 -191 q0 -113 -56 -189 q-64 -82 -173 -82 q-124 0 -181 122 l0 -306 l-60 0 l0 715 l57 0 l0 -102 q57 116 182 116 ZM295 480 q-84 0 -131 -66 q-43 -58 -43 -153 l0 -11 q0 -94 46 -153 q47 -60 126 -60 q87 0 136 64 q42 59 42 156 q0 97 -41 156 q-48 67 -135 67 Z" /><glyph glyph-name="" unicode="q" d="M275 531 q124 0 181 -116 l0 102 l57 0 l0 -715 l-60 0 l0 306 q-57 -122 -181 -122 q-111 0 -172 82 q-57 75 -57 189 q0 117 58 191 q62 83 174 83 ZM281 480 q-89 0 -135 -67 q-41 -57 -41 -156 q0 -98 43 -156 q46 -64 135 -64 q80 0 126 60 q46 61 46 153 l0 11 q0 93 -43 153 q-48 66 -131 66 Z" /><glyph glyph-name="" unicode="r" d="M280 531 q48 0 75 -11 l0 -61 q-37 11 -79 11 q-71 0 -112 -62 q-41 -56 -41 -135 l0 -273 l-60 0 l0 517 l60 0 l0 -99 q21 49 57 77 q42 36 100 36 Z" /><glyph glyph-name="" unicode="s" d="M239 531 q184 0 206 -159 l-59 0 q-10 54 -43 79 q-35 28 -105 28 q-58 0 -93 -23 q-36 -24 -36 -62 q0 -39 46 -63 q31 -15 109 -36 q95 -24 134 -48 q62 -38 62 -104 q0 -157 -210 -157 q-199 0 -217 177 l59 0 q9 -68 48 -98 q36 -27 108 -27 q150 0 150 102 q0 47 -51 72 q-28 14 -115 36 q-91 24 -126 46 q-59 35 -59 99 q0 63 56 101 q53 37 136 37 Z" /><glyph glyph-name="" unicode="t" d="M188 517 l135 0 l0 -52 l-135 0 l0 -350 q0 -34 12 -49 q12 -14 45 -14 l65 0 l0 -52 l-73 0 q-60 0 -86 31 q-23 26 -23 84 l0 350 l-110 0 l0 52 l110 0 l0 142 l60 25 l0 -167 Z" /><glyph glyph-name="" unicode="u" d="M63 517 l60 0 l0 -316 q0 -81 34 -121 q36 -42 111 -42 q59 0 105 46 q45 45 51 119 l0 314 l60 0 l0 -517 l-60 0 l0 87 q-60 -101 -172 -101 q-189 0 -189 212 l0 319 Z" /><glyph glyph-name="" unicode="v" d="M71 517 l163 -441 l162 441 l67 0 l-198 -517 l-62 0 l-198 517 l66 0 Z" /><glyph glyph-name="" unicode="w" d="M72 517 l140 -440 l130 440 l58 0 l130 -440 l141 440 l66 0 l-177 -517 l-58 0 l-130 439 l-132 -439 l-57 0 l-178 517 l67 0 Z" /><glyph glyph-name="" unicode="x" d="M99 517 l148 -199 l148 199 l71 0 l-185 -244 l207 -273 l-72 0 l-169 228 l-170 -228 l-72 0 l208 273 l-186 244 l72 0 Z" /><glyph glyph-name="" unicode="y" d="M71 517 l169 -431 l167 431 l66 0 l-285 -715 l-65 0 l87 211 l-205 504 l66 0 Z" /><glyph glyph-name="" unicode="z" d="M35 517 l401 0 l0 -46 l-334 -419 l350 0 l0 -52 l-427 0 l0 47 l333 418 l-323 0 l0 52 Z" /><glyph glyph-name="" unicode="{" d="M306 827 l0 -49 l-54 0 q-73 0 -73 -81 l0 -218 q0 -89 -78 -119 q78 -33 78 -119 l0 -219 q0 -80 73 -80 l54 0 l0 -49 l-62 0 q-57 0 -90 36 q-31 34 -31 94 l0 216 q0 46 -19 68 q-23 26 -77 26 l0 54 q54 2 77 26 q19 22 19 68 l0 215 q0 61 31 95 q33 36 90 36 l62 0 Z" /><glyph glyph-name="" unicode="|" d="M66 860 l52 0 l0 -1000 l-52 0 l0 1000 Z" /><glyph glyph-name="" unicode="}" d="M27 827 l62 0 q57 0 90 -36 q31 -36 31 -95 l0 -215 q0 -47 19 -69 q21 -23 77 -25 l0 -54 q-54 0 -76 -25 q-20 -21 -20 -69 l0 -216 q0 -58 -31 -94 q-33 -36 -90 -36 l-62 0 l0 49 l54 0 q73 0 73 80 l0 219 q0 86 78 119 q-78 30 -78 119 l0 218 q0 81 -73 81 l-54 0 l0 49 Z" /><glyph glyph-name="" unicode="~" d="M146 431 q45 0 112 -46 q66 -45 96 -45 q38 0 86 72 l39 -28 q-64 -94 -125 -94 q-43 0 -110 46 q-67 45 -98 45 q-39 0 -86 -72 l-39 28 q63 94 125 94 Z" /><glyph glyph-name="" unicode="©" d="M401 728 q154 0 263 -108 q108 -108 108 -263 q0 -153 -108 -263 q-109 -108 -263 -108 q-155 0 -263 108 q-108 110 -108 263 q0 155 108 263 q108 108 263 108 ZM401 689 q-139 0 -235 -97 q-97 -96 -97 -235 q0 -138 97 -235 q97 -97 235 -97 q136 0 235 97 q97 99 97 235 q0 138 -97 235 q-97 97 -235 97 ZM410 587 q74 0 123 -36 q52 -39 64 -111 l-53 0 q-9 47 -46 73 q-36 26 -88 26 q-79 0 -120 -53 q-41 -48 -41 -131 q0 -80 42 -130 q42 -50 116 -50 q53 0 92 30 q39 30 51 86 l53 0 q-17 -81 -71 -125 q-51 -39 -125 -39 q-102 0 -159 69 q-52 62 -52 159 q0 99 53 161 q58 71 161 71 Z" /><glyph glyph-name="" unicode="&#x2013;" d="M50 390 l724 0 l0 -60 l-724 0 l0 60 Z" /><glyph glyph-name="" unicode="&#x2014;" d="M0 386 l1000 0 l0 -52 l-1000 0 l0 52 Z" /><glyph glyph-name="" unicode="&#x2018;" d="M242 802 q-73 -47 -77 -123 q4 2 15 2 q23 0 37 -13 q14 -14 14 -36 q0 -22 -13 -38 q-16 -13 -37 -13 q-61 0 -61 82 q0 120 100 174 l22 -35 Z" /><glyph glyph-name="" unicode="&#x2019;" d="M141 837 q61 0 61 -82 q0 -119 -100 -174 l-22 35 q71 48 76 123 q-8 -2 -14 -2 q-23 0 -37 14 q-15 14 -15 35 q0 26 14 37 q13 14 37 14 Z" /><glyph glyph-name="" unicode="&#x201c;" d="M413 802 q-73 -47 -77 -123 q4 2 15 2 q23 0 37 -13 q14 -14 14 -36 q0 -22 -13 -38 q-16 -13 -37 -13 q-61 0 -61 82 q0 120 100 174 l22 -35 ZM242 802 q-73 -47 -77 -123 q4 2 15 2 q23 0 37 -13 q14 -14 14 -36 q0 -22 -13 -38 q-16 -13 -37 -13 q-61 0 -61 82 q0 120 100 174 l22 -35 Z" /><glyph glyph-name="" unicode="&#x201d;" d="M312 837 q61 0 61 -82 q0 -119 -100 -174 l-22 35 q71 47 77 123 q-8 -2 -15 -2 q-23 0 -37 14 q-14 13 -14 35 q0 25 13 37 q13 14 37 14 ZM141 837 q61 0 61 -82 q0 -119 -100 -174 l-22 35 q71 48 76 123 q-8 -2 -14 -2 q-23 0 -37 14 q-15 14 -15 35 q0 26 14 37 q13 14 37 14 Z" /><glyph glyph-name="" unicode="&#x2026;" d="M167 100 q22 0 36 -14 q15 -13 15 -36 q0 -21 -15 -36 q-16 -14 -36 -14 q-22 0 -36 15 q-15 15 -15 35 q0 23 15 36 q13 14 36 14 ZM500 100 q23 0 37 -14 q14 -14 14 -36 q0 -20 -14 -36 q-16 -14 -37 -14 q-21 0 -36 15 q-15 15 -15 35 q0 23 15 36 q14 14 36 14 ZM833 100 q22 0 36 -14 q15 -13 15 -36 q0 -21 -15 -36 q-16 -14 -36 -14 q-21 0 -36 15 q-15 15 -15 35 q0 23 15 36 q14 14 36 14 Z" /><glyph glyph-name="" unicode="&#x2190;" d="M277 540 l-157 -155 l858 0 l0 -50 l-858 0 l157 -155 l-28 -30 l-227 210 l227 210 l28 -30 Z" /><glyph glyph-name="" unicode="&#x2191;" d="M710 611 l-30 -28 l-155 157 l0 -858 l-50 0 l0 858 l-155 -157 l-30 28 l210 227 l210 -227 Z" /><glyph glyph-name="" unicode="&#x2192;" d="M978 360 l-227 -210 l-28 30 l157 155 l-858 0 l0 50 l858 0 l-157 155 l28 30 l227 -210 Z" /><glyph glyph-name="" unicode="&#x2193;" d="M475 838 l50 0 l0 -858 l155 157 l30 -28 l-210 -227 l-210 227 l30 28 l155 -157 l0 858 Z" /><glyph glyph-name="" unicode="&#x3001;" d="M172 133 q50 -34 111 -97 q52 -54 84 -100 l-39 -33 q-33 46 -83 99 q-59 62 -108 98 l35 33 Z" /><glyph glyph-name="" unicode="&#x3002;" d="M250 136 q51 0 88 -34 q36 -34 36 -86 q0 -50 -36 -86 q-39 -34 -88 -34 q-51 0 -88 34 q-36 35 -36 86 q0 53 36 86 q35 34 88 34 ZM250 94 q-35 0 -57 -23 q-24 -21 -24 -55 q0 -32 24 -55 q23 -23 57 -23 q32 0 57 23 q24 23 24 55 q0 33 -24 55 q-23 23 -57 23 Z" /><glyph glyph-name="" unicode="&#x300e;" d="M619 827 l351 0 l0 -182 l-169 0 l0 -431 l-182 0 l0 613 ZM660 785 l0 -529 l99 0 l0 431 l169 0 l0 98 l-268 0 Z" /><glyph glyph-name="" unicode="&#x300f;" d="M199 506 l182 0 l0 -613 l-351 0 l0 182 l169 0 l0 431 ZM241 464 l0 -431 l-169 0 l0 -98 l268 0 l0 529 l-99 0 Z" /><glyph glyph-name="" unicode="&#xff01;" d="M284 714 l-10 -529 l-48 0 l-10 529 l68 0 ZM250 100 q23 0 37 -14 q14 -14 14 -36 q0 -20 -14 -36 q-16 -14 -37 -14 q-21 0 -36 15 q-15 15 -15 35 q0 23 15 36 q14 14 36 14 Z" /><glyph glyph-name="" unicode="&#xff08;" d="M920 827 q-61 -100 -95 -208 q-43 -130 -43 -259 q0 -129 43 -259 q34 -107 95 -208 l-55 0 q-63 95 -99 206 q-43 130 -43 261 q0 131 43 260 q36 111 99 207 l55 0 Z" /><glyph glyph-name="" unicode="&#xff09;" d="M135 827 q62 -96 99 -207 q43 -134 43 -260 q0 -126 -43 -261 q-38 -111 -99 -206 l-55 0 q58 96 95 208 q43 135 43 259 q0 124 -43 259 q-37 113 -95 208 l55 0 Z" /><glyph glyph-name="" unicode="&#xff0b;" d="M474 680 l52 0 l0 -295 l286 0 l0 -52 l-286 0 l0 -297 l-52 0 l0 297 l-286 0 l0 52 l286 0 l0 295 Z" /><glyph glyph-name="" unicode="&#xff0c;" d="M179 100 q60 0 60 -83 q0 -118 -100 -173 l-21 35 q72 48 76 122 l-7 0 l-8 -1 q-22 0 -37 13 q-14 13 -14 36 q0 26 14 37 q13 14 37 14 Z" /><glyph glyph-name="" unicode="&#xff0d;" d="M188 385 l624 0 l0 -52 l-624 0 l0 52 Z" /><glyph glyph-name="" unicode="&#xff1a;" d="M250 597 q23 0 37 -14 q14 -14 14 -36 q0 -21 -14 -35 q-15 -15 -37 -15 q-21 0 -36 15 q-15 15 -15 35 q0 23 15 36 q14 14 36 14 ZM250 231 q23 0 37 -14 q14 -14 14 -36 q0 -21 -14 -35 q-15 -15 -37 -15 q-21 0 -36 15 q-15 15 -15 35 q0 23 15 36 q14 14 36 14 Z" /><glyph glyph-name="" unicode="&#xff1b;" d="M250 597 q23 0 37 -14 q14 -14 14 -36 q0 -21 -14 -35 q-15 -15 -37 -15 q-21 0 -36 15 q-15 15 -15 35 q0 23 15 36 q14 14 36 14 ZM250 231 q61 0 61 -82 q0 -119 -100 -174 l-22 35 q71 48 76 123 q-8 -2 -14 -2 q-22 0 -37 13 q-15 15 -15 36 q0 25 14 38 q14 13 37 13 Z" /><glyph glyph-name="" unicode="&#xff1f;" d="M258 728 q94 0 151 -54 q54 -51 54 -138 q0 -63 -38 -113 q-15 -19 -79 -77 q-34 -30 -50 -57 q-21 -36 -21 -77 l0 -29 l-61 0 l0 29 q0 44 18 80 q22 48 92 109 q38 38 46 48 q32 41 32 85 q0 63 -37 102 q-38 38 -110 38 q-80 0 -121 -54 q-36 -45 -36 -124 l-60 0 q0 100 55 164 q59 68 165 68 ZM245 100 q22 0 36 -14 q15 -13 15 -36 q0 -21 -15 -36 q-16 -14 -36 -14 q-22 0 -37 15 q-14 14 -14 35 q0 23 14 36 q14 14 37 14 Z" /><glyph glyph-name="" unicode="&#xff5e;" d="M327 457 q49 0 113 -32 q42 -22 90 -51 q99 -57 156 -57 q78 0 156 117 l42 -32 q-92 -139 -198 -139 q-69 0 -168 57 q-56 35 -90 52 q-59 31 -101 31 q-90 0 -168 -112 l-42 33 q91 133 210 133 Z" /><glyph glyph-name="" unicode="&#x2f00;&#x4e00;" d="M52 394 l895 0 l0 -54 l-895 0 l0 54 Z" /><glyph glyph-name="" unicode="&#x4e03;" d="M946 519 l-503 -93 l0 -383 q0 -62 55 -62 l258 0 q52 0 77 23 q23 26 30 172 l52 -17 q-11 -163 -40 -198 q-30 -33 -110 -33 l-280 0 q-96 0 -96 107 l0 381 l-332 -61 l-8 53 l340 63 l0 330 l54 0 l0 -320 l495 91 l8 -53 Z" /><glyph glyph-name="" unicode="&#x4e07;" d="M65 741 l870 0 l0 -53 l-518 0 l0 -42 q-1 -95 -11 -188 l429 0 q-3 -390 -38 -466 q-36 -76 -124 -76 q-29 0 -129 2 l-15 52 q33 -1 73 -2 l16 -1 l15 0 q18 -1 27 -1 q77 3 96 73 q20 71 24 367 l-381 0 q-21 -142 -65 -241 q-76 -166 -252 -262 l-31 48 q170 93 244 258 q65 165 68 437 l0 42 l-298 0 l0 53 Z" /><glyph glyph-name="" unicode="&#x4e09;" d="M115 733 l772 0 l0 -53 l-772 0 l0 53 ZM189 386 l623 0 l0 -54 l-623 0 l0 54 ZM53 13 l894 0 l0 -54 l-894 0 l0 54 Z" /><glyph glyph-name="" unicode="&#x4e0a;" d="M425 815 l56 0 l0 -316 l370 0 l0 -52 l-370 0 l0 -448 l463 0 l0 -53 l-885 0 l0 53 l366 0 l0 816 Z" /><glyph glyph-name="" unicode="&#x4e0b;" d="M58 756 l883 0 l0 -53 l-441 0 l0 -167 q189 -97 384 -225 l-32 -48 q-207 140 -352 217 l0 -580 l-53 0 l0 803 l-389 0 l0 53 Z" /><glyph glyph-name="" unicode="&#x4e0d;" d="M80 757 l840 0 l0 -53 l-327 0 q-27 -63 -65 -126 l0 -678 l-56 0 l0 596 q-141 -187 -384 -332 l-36 46 q349 203 481 494 l-453 0 l0 53 ZM653 492 q175 -139 295 -280 l-42 -42 q-106 132 -291 284 l38 38 Z" /><glyph glyph-name="" unicode="&#x4e0e;" d="M306 628 l-18 -176 l558 0 q0 -411 -43 -477 q-45 -63 -186 -63 q-66 0 -138 3 l-15 49 q136 -4 141 -4 q134 0 159 63 q28 68 28 378 l-566 0 l46 418 l54 -4 l-14 -135 l572 0 l0 -52 l-578 0 ZM61 219 l618 0 l0 -52 l-618 0 l0 52 Z" /><glyph glyph-name="" unicode="&#x4e13;" d="M53 502 l289 0 q13 47 37 141 l-257 0 l0 51 l269 0 l13 63 l13 63 l54 -5 q-11 -60 -24 -121 l440 0 l0 -51 l-452 0 l-9 -37 l-8 -36 q-10 -39 -18 -68 l547 0 l0 -52 l-562 0 q-21 -73 -50 -148 l488 0 l0 -48 q-76 -121 -236 -237 q98 -37 186 -81 l-30 -46 q-229 114 -470 180 l29 43 q113 -31 228 -74 q147 101 230 212 l-501 0 q39 105 68 199 l-274 0 l0 52 Z" /><glyph glyph-name="" unicode="&#x4e14;" d="M272 467 l0 -209 l459 0 l0 209 l-459 0 ZM731 518 l0 201 l-459 0 l0 -201 l459 0 ZM272 206 l0 -216 l459 0 l0 216 l-459 0 ZM59 -10 l157 0 l0 781 l569 0 l0 -781 l157 0 l0 -53 l-883 0 l0 53 Z" /><glyph glyph-name="" unicode="&#x4e1a;" d="M365 803 l53 0 l0 -801 l162 0 l0 801 l53 0 l0 -801 l307 0 l0 -53 l-880 0 l0 53 l305 0 l0 801 ZM909 611 q-60 -264 -154 -461 l-49 18 q89 182 155 456 l48 -13 ZM134 627 q78 -202 142 -471 l-50 -12 q-53 236 -139 467 l47 16 Z" /><glyph glyph-name="" unicode="&#x4e1c;" d="M82 688 l249 0 q36 79 58 138 l55 -12 q-25 -66 -54 -126 l519 0 l0 -54 l-545 0 q-77 -153 -169 -264 l299 0 l0 156 l53 0 l0 -156 l322 0 l0 -49 l-322 0 l0 -331 q0 -85 -85 -85 l-104 0 l-11 52 q66 -4 96 -4 q51 0 51 50 l0 318 l-356 0 l-13 46 q98 105 180 267 l-223 0 l0 54 ZM333 196 q-101 -139 -249 -242 l-33 44 q145 99 244 232 l38 -34 ZM713 230 q140 -123 232 -242 l-39 -39 q-82 114 -229 246 l36 35 Z" /><glyph glyph-name="" unicode="&#x4e1d;" d="M60 1 l880 0 l0 -52 l-880 0 l0 52 ZM361 781 q-102 -207 -201 -324 q85 6 190 20 l17 29 l17 29 q19 34 34 61 l50 -17 q-139 -256 -280 -391 q153 13 289 41 l10 -50 q-167 -30 -379 -45 l-11 51 q99 53 222 243 q-108 -15 -213 -24 l-13 48 q13 6 23 21 q114 144 193 328 l52 -20 ZM786 781 q-102 -209 -201 -325 q96 8 192 21 q31 53 65 115 l51 -17 q-138 -255 -275 -386 q161 12 297 39 l10 -50 q-172 -27 -386 -42 l-10 51 q99 53 218 241 q-97 -13 -216 -25 l-13 49 q14 7 23 20 q113 144 193 330 l52 -21 Z" /><glyph glyph-name="" unicode="&#x4e22;" d="M877 755 q-154 -34 -349 -50 l0 -154 l331 0 l0 -51 l-331 0 l0 -161 l420 0 l0 -52 l-530 0 q-117 -222 -200 -305 q274 18 547 54 q-61 84 -115 148 l43 27 q132 -157 205 -279 l-45 -32 q-32 54 -55 89 q-298 -37 -651 -60 l-13 50 l7 2 l5 2 q81 57 216 304 l-308 0 l0 52 l420 0 l0 161 l-332 0 l0 51 l332 0 l0 150 q-170 -11 -351 -11 l-16 47 q454 1 745 63 l25 -45 Z" /><glyph glyph-name="" unicode="&#x4e24;" d="M61 763 l878 0 l0 -53 l-276 0 l0 -173 l224 0 l0 -536 q0 -89 -80 -89 l-102 0 l-15 52 l98 -2 q45 0 45 50 l0 474 l-172 0 q-4 -61 -7 -92 q75 -116 147 -251 l-33 -49 q-73 157 -123 242 q-34 -185 -134 -291 l-41 35 q126 132 140 406 l-227 0 q-3 -52 -11 -108 q58 -78 122 -182 l-30 -44 q-60 113 -102 174 q-36 -162 -123 -258 l-41 36 q119 127 134 382 l-165 0 l0 -580 l-54 0 l0 631 l221 0 q0 5 1 14 l0 159 l-274 0 l0 53 ZM612 537 l0 173 l-226 0 l0 -160 l-1 -13 l227 0 Z" /><glyph glyph-name="" unicode="&#x4e25;" d="M137 771 l766 0 l0 -51 l-267 0 l0 -266 l289 0 l0 -51 l-722 0 l0 -138 q-6 -228 -121 -364 l-41 37 q103 118 107 327 l0 189 l257 0 l0 266 l-268 0 l0 51 ZM456 454 l129 0 l0 266 l-129 0 l0 -266 ZM841 661 q-29 -95 -73 -164 l-45 16 q40 61 73 160 l45 -12 ZM234 668 q47 -75 80 -153 l-45 -21 q-38 92 -82 159 l47 15 Z" /><glyph glyph-name="" unicode="&#x4e2a;" d="M473 521 l54 0 l0 -618 l-54 0 l0 618 ZM525 814 q126 -211 436 -372 l-32 -48 q-288 148 -429 368 q-170 -241 -429 -374 l-32 49 q283 145 436 377 l50 0 Z" /><glyph glyph-name="" unicode="&#x4e2d;" d="M472 819 l56 0 l0 -185 l362 0 l0 -460 l-55 0 l0 67 l-307 0 l0 -346 l-56 0 l0 346 l-306 0 l0 -67 l-55 0 l0 460 l361 0 l0 185 ZM166 294 l306 0 l0 286 l-306 0 l0 -286 ZM528 294 l307 0 l0 286 l-307 0 l0 -286 Z" /><glyph glyph-name="" unicode="&#x4e30;" d="M149 437 l324 0 l0 178 l-370 0 l0 54 l370 0 l0 144 l54 0 l0 -144 l379 0 l0 -54 l-379 0 l0 -178 l333 0 l0 -54 l-333 0 l0 -177 l403 0 l0 -53 l-403 0 l0 -250 l-54 0 l0 250 l-400 0 l0 53 l400 0 l0 177 l-324 0 l0 54 Z" /><glyph glyph-name="" unicode="&#x4e32;" d="M159 705 l314 0 l0 112 l54 0 l0 -112 l315 0 l0 -242 l-315 0 l0 -112 l354 0 l0 -263 l-354 0 l0 -185 l-54 0 l0 185 l-352 0 l0 263 l352 0 l0 112 l-314 0 l0 242 ZM788 511 l0 147 l-261 0 l0 -147 l261 0 ZM473 511 l0 147 l-260 0 l0 -147 l260 0 ZM827 136 l0 168 l-300 0 l0 -168 l300 0 ZM473 136 l0 168 l-298 0 l0 -168 l298 0 Z" /><glyph glyph-name="" unicode="&#x4e34;" d="M262 813 l54 0 l0 -908 l-54 0 l0 908 ZM909 360 l0 -450 l-52 0 l0 55 l-372 0 l0 -55 l-53 0 l0 450 l477 0 ZM485 17 l162 0 l0 292 l-162 0 l0 -292 ZM698 309 l0 -292 l159 0 l0 292 l-159 0 ZM658 586 q86 -85 135 -154 l-41 -30 q-50 70 -136 158 l42 26 ZM90 687 l52 0 l0 -617 l-52 0 l0 617 ZM526 633 q-55 -106 -126 -189 l-38 45 q116 132 183 331 l54 -12 q-19 -59 -47 -121 l390 0 l0 -54 l-416 0 Z" /><glyph glyph-name="" unicode="&#x4e3a;" d="M177 788 q91 -95 136 -162 l-44 -29 q-54 78 -134 161 l42 30 ZM522 366 q115 -125 172 -213 l-47 -32 q-62 99 -169 217 l44 28 ZM420 815 l53 0 l0 -103 q-2 -86 -7 -149 l415 0 q0 -421 -38 -537 q-39 -115 -138 -115 q-71 0 -119 3 l-15 53 q72 -6 131 -6 q95 7 110 177 q14 177 14 371 l-365 0 q-24 -189 -84 -318 q-88 -181 -293 -285 l-30 48 q201 102 285 282 q49 117 68 273 l-319 0 l0 54 l325 0 q5 65 7 149 l0 103 Z" /><glyph glyph-name="" unicode="&#x4e3b;" d="M473 585 l-379 0 l0 53 l813 0 l0 -53 l-379 0 l0 -257 l330 0 l0 -52 l-330 0 l0 -286 l413 0 l0 -53 l-881 0 l0 53 l413 0 l0 286 l-331 0 l0 52 l331 0 l0 257 ZM472 816 q41 -94 58 -152 l-49 -18 q-26 81 -63 155 l54 15 Z" /><glyph glyph-name="" unicode="&#x4e3e;" d="M221 804 q53 -82 98 -179 l-46 -24 q-47 104 -96 182 l44 21 ZM455 817 q50 -85 92 -177 l-46 -24 q-45 105 -91 179 l45 22 ZM76 522 l0 53 l571 0 q74 113 127 247 l51 -19 q-58 -136 -123 -228 l222 0 l0 -53 l-231 0 q80 -140 267 -221 l-24 -50 q-210 102 -296 271 l-287 0 q-70 -154 -281 -267 l-31 48 q197 96 261 219 l-226 0 ZM237 342 l236 0 l0 117 l54 0 l0 -117 l237 0 l0 -54 l-237 0 l0 -140 l368 0 l0 -53 l-368 0 l0 -192 l-54 0 l0 192 l-368 0 l0 53 l368 0 l0 140 l-236 0 l0 54 Z" /><glyph glyph-name="" unicode="&#x4e45;" d="M534 271 q-187 -250 -462 -368 l-31 53 q412 170 619 652 l-325 0 q-91 -146 -239 -258 l-36 46 q233 174 314 428 l57 -7 q-29 -87 -65 -156 l358 0 l0 -45 q-67 -167 -156 -298 q114 -230 387 -364 l-41 -48 q-264 145 -380 365 Z" /><glyph glyph-name="" unicode="&#x4e48;" d="M703 336 q126 -190 215 -399 l-51 -23 q-20 47 -45 100 q-266 -46 -646 -69 l-15 55 q24 10 50 35 q183 175 432 602 l54 -27 q-279 -463 -435 -606 q277 19 536 59 q-69 139 -147 256 l52 17 ZM495 804 q-151 -319 -410 -530 l-37 44 q245 197 389 500 l58 -14 Z" /><glyph glyph-name="" unicode="&#x4e49;" d="M409 813 q97 -109 172 -241 l-49 -25 q-77 137 -174 244 l51 22 ZM831 757 q-69 -354 -283 -574 q173 -146 405 -229 l-33 -49 q-238 89 -412 239 q-172 -157 -422 -239 l-30 49 q244 79 410 228 q-198 189 -312 464 l49 28 q108 -272 303 -454 q208 214 272 548 l53 -11 Z" /><glyph glyph-name="" unicode="&#x4e4b;" d="M446 818 q48 -77 94 -183 l315 0 l0 -42 q-177 -332 -522 -511 q8 -8 12 -13 q64 -81 176 -90 q69 -3 199 -3 q79 0 220 3 l-13 -54 l-198 0 q-112 0 -188 2 q-159 3 -244 121 q-27 33 -48 33 q-47 0 -134 -175 l-45 30 q96 200 181 200 q20 0 33 -10 l9 -6 q327 166 495 461 l-660 0 l0 54 l354 0 q-41 92 -97 173 l61 10 Z" /><glyph glyph-name="" unicode="&#x4e4e;" d="M58 335 l431 0 l0 340 q-174 -14 -367 -14 l-18 51 q459 0 757 79 l27 -48 q-149 -42 -346 -63 l0 -345 l403 0 l0 -54 l-403 0 l0 -283 q0 -89 -81 -89 l-136 0 l-12 52 q90 -4 129 -4 q47 0 47 54 l0 270 l-431 0 l0 54 ZM828 624 q-43 -132 -104 -228 l-50 18 q58 88 102 224 l52 -14 ZM237 598 q60 -95 100 -193 l-46 -21 q-46 111 -104 198 l50 16 Z" /><glyph glyph-name="" unicode="&#x4e50;" d="M114 363 q46 201 68 374 q28 -4 43 -4 q361 1 586 72 l27 -47 q-234 -67 -612 -71 q-27 -164 -52 -271 l307 0 l0 199 l54 0 l0 -199 l373 0 l0 -53 l-373 0 l0 -364 q0 -92 -85 -92 l-133 0 l-12 52 q88 -4 126 -4 q50 0 50 58 l0 350 l-367 0 ZM293 254 q-81 -180 -187 -307 l-47 33 q108 123 186 297 l48 -23 ZM732 283 q96 -145 180 -318 l-50 -26 q-85 182 -178 321 l48 23 Z" /><glyph glyph-name="" unicode="&#x4e58;" d="M722 241 q-88 0 -88 87 l0 198 l53 0 l0 -92 q120 18 211 55 l18 -47 q-99 -36 -229 -54 l0 -49 q0 -51 50 -51 l94 0 q25 0 37 10 q15 13 19 73 l51 -16 q-9 -82 -32 -99 q-21 -15 -65 -15 l-119 0 ZM61 626 l412 0 l0 97 q-150 -8 -304 -8 l-17 48 q404 2 659 46 l27 -47 q-132 -24 -311 -36 l0 -100 l411 0 l0 -52 l-411 0 l0 -279 q163 -177 422 -277 l-30 -51 q-232 97 -392 263 l0 -329 l-54 0 l0 324 q-156 -157 -387 -263 l-33 50 q272 116 420 283 l0 279 l-412 0 l0 52 ZM298 525 l54 0 l0 -297 l-54 0 l0 55 q-93 -21 -213 -42 l-14 50 q132 18 227 37 l0 84 l-206 0 l0 48 l206 0 l0 65 Z" /><glyph glyph-name="" unicode="&#x4e5f;" d="M493 819 l53 0 l0 -245 l300 68 q0 -286 -8 -352 q-14 -103 -124 -103 l-46 0 l-15 51 l38 0 l17 -1 l16 0 q58 0 67 84 q4 44 4 253 l-249 -55 l0 -375 l-53 0 l0 363 l-232 -51 l0 -388 q0 -81 76 -81 l442 0 q61 0 89 22 q26 25 35 169 l50 -17 q-12 -161 -44 -194 q-33 -33 -121 -33 l-464 0 q-116 0 -116 127 l0 383 l-166 -36 l0 52 l166 38 l0 241 l53 0 l0 -229 l232 52 l0 257 Z" /><glyph glyph-name="" unicode="&#x4e60;" d="M656 288 q-213 -133 -528 -236 l-22 51 q315 96 537 235 l13 -50 ZM234 585 q129 -99 216 -195 l-37 -38 q-82 94 -218 196 l39 37 ZM521 -40 l81 0 l82 -1 q49 0 74 43 q24 45 30 212 q0 25 4 480 l-660 0 l0 53 l713 0 q-6 -479 -9 -569 q-6 -156 -34 -212 q-30 -56 -107 -56 l-72 0 q-53 -1 -88 -1 l-14 51 Z" /><glyph glyph-name="" unicode="&#x4e66;" d="M417 819 l54 0 l0 -181 l294 0 l0 -26 l-22 -243 l144 0 q0 -280 -45 -328 q-21 -22 -59 -31 q-30 -5 -59 -6 l-66 0 l-15 51 l90 0 q51 1 72 26 q24 31 29 235 l-363 0 l0 -415 l-54 0 l0 415 l-363 0 l0 53 l363 0 l0 216 l-305 0 l0 53 l305 0 l0 181 ZM471 369 l220 0 l20 216 l-240 0 l0 -216 ZM727 813 q114 -59 206 -144 l-30 -44 q-99 93 -204 147 l28 41 Z" /><glyph glyph-name="" unicode="&#x4e70;" d="M149 493 q118 -49 212 -115 l-28 -43 q-103 78 -210 119 l26 39 ZM244 635 q110 -48 201 -117 l-29 -44 q-93 76 -198 122 l26 39 ZM531 643 l53 0 l0 -210 q-2 -90 -22 -163 l380 0 l0 -54 l-399 0 l-12 -27 l-13 -26 q224 -102 402 -220 l-38 -41 q-184 123 -391 220 l-11 -16 l-12 -14 q-108 -119 -356 -186 l-31 47 q247 64 351 179 q33 40 53 84 l-411 0 l0 54 l432 0 q22 73 25 163 l0 210 ZM114 751 l753 0 l0 -35 q-22 -88 -59 -180 l-51 15 q35 71 55 149 l-698 0 l0 51 Z" /><glyph glyph-name="" unicode="&#x4e71;" d="M49 525 l219 0 l0 171 q-90 -8 -182 -8 l-17 48 q249 1 411 56 l26 -46 q-76 -28 -183 -43 l0 -178 l216 0 l0 -53 l-216 0 l0 -183 l173 0 l0 -379 l-54 0 l0 52 l-291 0 l0 -52 l-53 0 l0 379 l170 0 l0 183 l-219 0 l0 53 ZM151 14 l291 0 l0 224 l-291 0 l0 -224 ZM692 -81 q-81 0 -81 84 l0 797 l54 0 l0 -786 q0 -44 43 -44 l112 0 q37 0 52 23 q17 31 25 178 l52 -17 q-10 -165 -39 -204 q-25 -31 -79 -31 l-139 0 Z" /><glyph glyph-name="" unicode="&#x4e86;" d="M489 480 q156 93 298 217 l-670 0 l0 52 l744 0 l0 -52 q-137 -125 -319 -244 l0 -463 q0 -80 -84 -80 q-41 0 -85 1 q-33 1 -73 3 l-15 53 q72 -6 158 -6 q46 0 46 40 l0 479 Z" /><glyph glyph-name="" unicode="&#x4e88;" d="M338 646 q102 -65 177 -124 q118 85 207 194 l-542 0 l0 52 l612 0 l0 -44 q-105 -136 -237 -236 l37 -32 l314 0 l0 -47 q-76 -120 -178 -210 l-43 37 q85 70 160 169 l-309 0 l0 -415 q0 -83 -82 -83 l-143 0 l-12 52 q96 -4 136 -4 q47 0 47 49 l0 401 l-397 0 l0 51 l432 0 q-85 73 -216 154 l37 36 Z" /><glyph glyph-name="" unicode="&#x4e8b;" d="M177 632 l296 0 l0 72 l-399 0 l0 48 l399 0 l0 65 l54 0 l0 -65 l399 0 l0 -48 l-399 0 l0 -72 l296 0 l0 -185 l-296 0 l0 -73 l310 0 l0 -137 l117 0 l0 -45 l-117 0 l0 -132 l-310 0 l0 -77 q0 -76 -80 -76 l-123 0 l-11 51 q80 -4 115 -4 q45 0 45 42 l0 64 l-337 0 l0 45 l337 0 l0 87 l-427 0 l0 45 l427 0 l0 93 l-336 0 l0 44 l336 0 l0 73 l-296 0 l0 185 ZM769 489 l0 100 l-242 0 l0 -100 l242 0 ZM473 489 l0 100 l-242 0 l0 -100 l242 0 ZM527 330 l0 -93 l259 0 l0 93 l-259 0 ZM786 192 l-259 0 l0 -87 l259 0 l0 87 Z" /><glyph glyph-name="" unicode="&#x2f06;&#x4e8c;" d="M148 696 l704 0 l0 -53 l-704 0 l0 53 ZM56 67 l887 0 l0 -53 l-887 0 l0 53 Z" /><glyph glyph-name="" unicode="&#x4e8e;" d="M123 771 l747 0 l0 -53 l-334 0 l0 -293 l403 0 l0 -54 l-403 0 l0 -367 q0 -92 -94 -92 l-153 0 l-12 53 q102 -4 147 -4 q58 0 58 57 l0 353 l-421 0 l0 54 l421 0 l0 293 l-359 0 l0 53 Z" /><glyph glyph-name="" unicode="&#x4e91;" d="M152 752 l706 0 l0 -53 l-706 0 l0 53 ZM55 470 l893 0 l0 -54 l-485 0 q-148 -304 -254 -413 q288 17 576 51 q-56 102 -131 215 l44 27 q140 -210 215 -367 l-47 -34 q-23 51 -54 109 q-325 -38 -673 -58 l-14 53 q6 2 14 6 q101 76 265 411 l-349 0 l0 54 Z" /><glyph glyph-name="" unicode="&#x4e92;" d="M76 767 l846 0 l0 -54 l-533 0 l-45 -182 l436 0 l-83 -539 l252 0 l0 -53 l-889 0 l0 53 l585 0 l31 196 l-469 0 l127 525 l-258 0 l0 54 ZM684 239 l39 241 l-391 0 l-59 -241 l411 0 Z" /><glyph glyph-name="" unicode="&#x4e94;" d="M147 432 l230 0 l56 267 l-337 0 l0 53 l809 0 l0 -53 l-418 0 l-56 -267 l343 0 l0 -431 l169 0 l0 -52 l-884 0 l0 52 l227 0 l80 378 l-219 0 l0 53 ZM719 1 l0 378 l-299 0 l-80 -378 l379 0 Z" /><glyph glyph-name="" unicode="&#x4e9b;" d="M307 811 l54 0 l0 -174 l155 0 l0 -52 l-155 0 l0 -207 q84 15 165 33 l0 -52 q-226 -48 -473 -77 l-13 51 l48 5 l47 5 l0 371 l54 0 l0 -364 l118 18 l0 443 ZM925 681 q-129 -68 -293 -112 l0 -169 q0 -46 41 -46 l130 0 q38 0 57 16 q22 25 29 128 l51 -16 q-10 -126 -42 -156 q-27 -24 -85 -24 l-157 0 q-77 0 -77 87 l0 421 l53 0 l0 -189 q142 39 261 104 l32 -44 ZM175 198 l649 0 l0 -53 l-649 0 l0 53 ZM67 -10 l867 0 l0 -53 l-867 0 l0 53 Z" /><glyph glyph-name="" unicode="&#x4ea4;" d="M61 689 l424 0 q-27 67 -62 122 l59 10 q32 -54 61 -132 l397 0 l0 -51 l-879 0 l0 51 ZM653 594 q168 -135 279 -268 l-40 -39 q-99 124 -277 271 l38 36 ZM727 387 q-75 -143 -183 -244 q164 -124 405 -187 l-32 -50 q-248 69 -414 200 q-168 -141 -414 -204 l-33 48 q245 63 405 191 q-116 102 -187 233 l47 27 q67 -126 181 -224 q109 100 175 232 l50 -22 ZM381 558 q-113 -147 -282 -259 l-35 45 q165 106 277 250 l40 -36 Z" /><glyph glyph-name="" unicode="&#x4ea6;" d="M248 488 q-52 -214 -149 -373 l-49 31 q97 153 146 353 l52 -11 ZM782 499 q93 -172 162 -369 l-52 -24 q-72 209 -161 376 l51 17 ZM478 812 q33 -60 59 -132 l392 0 l0 -54 l-281 0 l0 -619 q0 -96 -94 -96 l-108 0 l-12 52 q72 -4 101 -4 q59 0 59 61 l0 606 l-177 0 l0 -162 q-4 -384 -240 -561 l-41 36 q224 164 228 525 l0 162 l-291 0 l0 54 l406 0 q-25 64 -61 123 l60 9 Z" /><glyph glyph-name="" unicode="&#x4ea7;" d="M495 828 q26 -51 49 -121 l355 0 l0 -52 l-177 0 q-19 -91 -55 -169 l253 0 l0 -53 l-724 0 l0 -157 q-6 -232 -111 -373 l-40 37 q92 122 96 336 l0 210 l206 0 l-46 169 l-187 0 l0 52 l376 0 q-23 61 -51 112 l56 9 ZM615 486 q39 81 54 169 l-314 0 l47 -169 l213 0 Z" /><glyph glyph-name="" unicode="&#x4eab;" d="M208 600 l585 0 l0 -190 l-585 0 l0 190 ZM740 457 l0 95 l-479 0 l0 -95 l479 0 ZM479 817 q24 -38 49 -93 l404 0 l0 -52 l-863 0 l0 52 l400 0 q-26 48 -51 82 l61 11 ZM47 141 l443 0 l0 48 q112 43 239 97 l-586 0 l0 49 l694 0 l0 -39 q-133 -65 -294 -125 l0 -30 l410 0 l0 -50 l-410 0 l0 -107 q0 -81 -78 -81 l-142 0 l-15 49 q86 -3 135 -3 q47 0 47 50 l0 92 l-443 0 l0 50 Z" /><glyph glyph-name="" unicode="&#x4eae;" d="M59 730 l418 0 q-24 47 -51 84 l58 10 q25 -39 49 -94 l408 0 l0 -49 l-882 0 l0 49 ZM236 604 l528 0 l0 -184 l-528 0 l0 184 ZM711 466 l0 93 l-422 0 l0 -93 l422 0 ZM905 345 l0 -162 l-54 0 l0 114 l-703 0 l0 -114 l-54 0 l0 162 l811 0 ZM315 215 l366 0 l0 -211 q0 -45 44 -45 l92 0 q27 0 43 11 q20 14 30 127 l50 -16 q-10 -105 -31 -137 q-21 -32 -84 -32 l-114 0 q-83 0 -83 82 l0 173 l-259 0 l0 -27 q-7 -193 -275 -241 l-31 46 q252 41 252 202 l0 68 Z" /><glyph glyph-name="" unicode="&#x4eb2;" d="M645 171 q163 -78 296 -188 l-30 -45 q-144 123 -294 192 l28 41 ZM375 132 q-116 -113 -296 -188 l-24 49 q173 67 286 177 l34 -38 ZM492 820 q25 -52 42 -116 l334 0 l0 -51 l-734 0 l0 51 l346 0 q-20 57 -45 106 l57 10 ZM86 462 l237 0 q-30 73 -70 131 l51 19 q42 -63 74 -150 l248 0 q44 75 74 155 l52 -19 q-29 -74 -70 -136 l233 0 l0 -52 l-384 0 l0 -130 l352 0 l0 -51 l-352 0 l0 -245 q0 -81 -86 -81 l-113 0 l-12 52 q74 -4 106 -4 q50 0 50 46 l0 232 l-359 0 l0 51 l359 0 l0 130 l-390 0 l0 52 Z" /><glyph glyph-name="" unicode="&#x2f08;&#x4eba;" d="M528 813 q0 -112 -7 -219 q84 -416 439 -636 l-36 -46 q-323 209 -422 563 q-83 -341 -430 -564 l-33 48 q418 261 433 692 q0 39 1 93 l0 69 l55 0 Z" /><glyph glyph-name="" unicode="&#x4ec0;" d="M184 494 q-61 -90 -134 -166 l-17 55 q168 191 244 433 l51 -23 q-36 -112 -90 -209 l0 -684 l-54 0 l0 594 ZM607 816 l56 0 l0 -337 l290 0 l0 -54 l-290 0 l0 -525 l-56 0 l0 525 l-282 0 l0 54 l282 0 l0 337 Z" /><glyph glyph-name="" unicode="&#x4ec1;" d="M373 647 l523 0 l0 -54 l-523 0 l0 54 ZM318 68 l633 0 l0 -53 l-633 0 l0 53 ZM177 482 q-61 -84 -125 -149 l-17 56 q173 189 251 430 l50 -23 q-42 -124 -105 -230 l0 -664 l-54 0 l0 580 Z" /><glyph glyph-name="" unicode="&#x4ec5;" d="M317 795 q-37 -113 -92 -216 l0 -679 l-54 0 l0 590 q-53 -77 -115 -145 l-17 56 q158 185 227 417 l51 -23 ZM921 -95 q-168 115 -276 245 q-122 -150 -295 -246 l-35 44 q178 96 295 246 q-168 223 -192 500 l-50 0 l0 53 l509 0 l0 -49 q-52 -299 -201 -506 q112 -135 282 -245 l-37 -42 ZM641 236 q132 190 180 458 l-351 0 q18 -254 171 -458 Z" /><glyph glyph-name="" unicode="&#x4eca;" d="M409 556 q122 -57 230 -140 l-30 -46 q-113 91 -229 142 l29 44 ZM148 316 l696 0 l0 -42 q-102 -245 -396 -371 l-36 46 q267 111 369 316 l-633 0 l0 51 ZM520 804 q193 -216 442 -338 l-28 -50 q-253 129 -433 337 q-167 -197 -434 -338 l-27 50 q266 137 442 339 l38 0 Z" /><glyph glyph-name="" unicode="&#x4ecb;" d="M640 478 l54 0 l0 -568 l-54 0 l0 568 ZM302 475 l54 0 l0 -179 q-4 -269 -180 -395 l-41 37 q164 111 167 358 l0 179 ZM519 811 q185 -226 430 -357 l-27 -47 q-250 136 -422 353 q-157 -207 -421 -362 l-26 48 q255 146 428 365 l38 0 Z" /><glyph glyph-name="" unicode="&#x4ecd;" d="M474 711 l-135 0 l0 54 l473 0 l0 -27 q-22 -151 -55 -294 l166 0 l0 -24 q-9 -273 -21 -357 q-15 -90 -45 -120 q-33 -31 -100 -31 l-117 0 l-17 54 q88 -4 118 -4 q56 0 79 23 q22 27 31 95 q10 78 19 315 l-176 0 q41 168 62 316 l-228 0 l0 -196 q-6 -414 -218 -602 l-43 37 q204 177 207 565 l0 196 ZM298 799 q-32 -102 -75 -191 l0 -708 l-53 0 l0 609 q-55 -92 -123 -170 l-17 58 q151 187 219 425 l49 -23 Z" /><glyph glyph-name="" unicode="&#x4ece;" d="M319 808 q0 -236 -24 -410 q119 -125 201 -254 l-41 -41 q-69 116 -170 233 q-1 -1 -1 -4 q-48 -257 -212 -420 l-38 45 q145 147 193 371 q35 188 37 480 l55 0 ZM709 809 q0 -149 -11 -284 q75 -357 263 -565 l-39 -45 q-162 191 -240 477 l-5 -32 l-6 -31 q-49 -259 -221 -423 l-37 45 q152 148 203 375 q38 195 38 483 l55 0 Z" /><glyph glyph-name="" unicode="&#x4ed3;" d="M519 812 q188 -232 436 -366 l-27 -48 q-252 140 -428 364 q-163 -212 -432 -367 l-26 48 q263 148 439 369 l38 0 ZM684 400 l-372 0 l0 -368 q0 -62 69 -62 l312 0 q83 0 105 31 q23 36 33 138 l50 -17 q-14 -142 -51 -175 q-34 -28 -126 -28 l-341 0 q-106 0 -106 97 l0 434 l481 0 l0 -226 q0 -88 -79 -91 q-33 0 -74 1 q-26 1 -72 3 l-15 51 q100 -4 143 -4 q43 0 43 54 l0 162 Z" /><glyph glyph-name="" unicode="&#x4ed4;" d="M325 387 l304 0 l0 150 q99 75 193 185 l-418 0 l0 50 l481 0 l0 -50 q-87 -108 -203 -207 l0 -128 l277 0 l0 -54 l-277 0 l0 -333 q0 -95 -94 -95 l-108 0 l-13 50 l47 0 q33 -1 52 -1 q63 0 63 63 l0 316 l-304 0 l0 54 ZM174 488 q-58 -82 -123 -148 l-17 58 q171 188 246 424 l50 -24 q-43 -123 -102 -226 l0 -671 l-54 0 l0 587 Z" /><glyph glyph-name="" unicode="&#x4ed6;" d="M318 799 q-37 -114 -92 -218 l0 -681 l-54 0 l0 590 q-54 -82 -123 -157 l-17 56 q165 192 237 433 l49 -23 ZM487 -78 q-105 0 -105 106 l0 415 l-95 -30 l0 54 l95 31 l0 224 l55 0 l0 -206 l164 53 l0 247 l55 0 l0 -229 l217 70 q0 -302 -13 -372 q-14 -65 -111 -65 l-18 0 l-16 53 l24 0 q15 -1 21 -1 q40 0 49 37 q8 34 10 274 l-163 -52 l0 -426 l-55 0 l0 408 l-164 -52 l0 -426 q0 -61 64 -61 l305 0 q42 0 64 22 q19 25 25 164 l51 -17 q-9 -155 -35 -189 q-27 -32 -96 -32 l-328 0 Z" /><glyph glyph-name="" unicode="&#x4ed8;" d="M323 800 q-33 -105 -81 -197 l0 -703 l-54 0 l0 608 q-64 -99 -134 -176 l-18 56 q163 190 236 435 l51 -23 ZM351 592 l397 0 l0 221 l54 0 l0 -221 l148 0 l0 -54 l-148 0 l0 -532 q0 -96 -86 -96 l-143 0 l-12 52 q94 -4 136 -4 q51 0 51 62 l0 518 l-397 0 l0 54 ZM433 418 q119 -139 182 -242 l-46 -32 q-66 111 -180 246 l44 28 Z" /><glyph glyph-name="" unicode="&#x4ee3;" d="M919 516 l-337 -41 q9 -109 27 -185 q36 -153 105 -243 q61 -81 116 -84 q46 2 67 200 l47 -28 q-18 -122 -48 -182 q-27 -44 -63 -44 q-72 0 -149 95 q-84 102 -126 270 q-20 79 -30 194 l-224 -27 l-8 51 l228 28 q-10 137 -11 297 l54 0 q0 -150 10 -290 l333 41 l9 -52 ZM178 488 q-58 -83 -126 -152 l-17 56 q171 190 246 425 l50 -23 q-39 -118 -99 -221 l0 -673 l-54 0 l0 588 ZM680 807 q92 -76 156 -155 l-37 -36 q-60 77 -155 158 l36 33 Z" /><glyph glyph-name="" unicode="&#x4ee4;" d="M416 572 q108 -47 200 -118 l-28 -43 q-98 76 -200 119 l28 42 ZM318 172 q113 -44 205 -92 q121 92 225 217 l-585 0 l0 52 l653 0 l0 -46 q-107 -141 -245 -248 q89 -49 156 -95 l-30 -47 q-198 137 -409 215 l30 44 ZM519 801 q189 -213 437 -336 l-27 -48 q-252 128 -429 333 q-162 -198 -427 -344 l-27 48 q260 139 435 347 l38 0 Z" /><glyph glyph-name="" unicode="&#x4ee5;" d="M367 703 q135 -151 214 -274 l-45 -32 q-79 128 -215 277 l46 29 ZM721 232 q-96 -192 -319 -323 l-37 45 q252 144 336 370 q63 192 63 481 l56 0 q0 -281 -60 -476 q-10 -30 -16 -44 q123 -158 212 -324 l-41 -41 q-77 153 -194 312 ZM117 68 q24 15 24 44 l0 659 l56 0 l0 -674 q125 49 243 121 l16 -54 q-148 -85 -322 -147 l-17 51 Z" /><glyph glyph-name="" unicode="&#x4eec;" d="M722 -91 l-15 52 l102 -2 q49 0 49 60 l0 672 l-252 0 l0 53 l306 0 l0 -739 q0 -96 -92 -96 l-98 0 ZM452 814 q75 -90 114 -159 l-43 -30 q-43 77 -113 163 l42 26 ZM330 796 q-42 -121 -102 -228 l0 -668 l-54 0 l0 584 q-53 -76 -120 -145 l-17 56 q169 187 244 424 l49 -23 ZM367 645 l54 0 l0 -742 l-54 0 l0 742 Z" /><glyph glyph-name="" unicode="&#x4ef6;" d="M322 796 q-42 -125 -100 -227 l0 -668 l-53 0 l0 583 q-54 -77 -118 -145 l-18 57 q166 189 239 424 l50 -24 ZM492 751 q-14 -78 -36 -152 l168 0 l0 214 l54 0 l0 -214 l237 0 l0 -54 l-237 0 l0 -259 l274 0 l0 -53 l-274 0 l0 -327 l-54 0 l0 327 l-303 0 l0 53 l303 0 l0 259 l-186 0 q-40 -102 -94 -179 l-34 44 q94 142 129 347 l53 -6 Z" /><glyph glyph-name="" unicode="&#x4ef7;" d="M177 498 q-57 -85 -119 -153 l-17 57 q154 182 221 410 l50 -23 q-33 -106 -81 -197 l0 -689 l-54 0 l0 595 ZM720 466 l53 0 l0 -554 l-53 0 l0 554 ZM458 463 l53 0 l0 -152 q-3 -279 -149 -410 l-41 36 q134 116 137 374 l0 152 ZM634 811 q95 -204 328 -361 l-30 -46 q-215 142 -322 353 q-122 -235 -309 -365 l-30 46 q204 144 316 373 l47 0 Z" /><glyph glyph-name="" unicode="&#x4efb;" d="M904 732 q-108 -36 -250 -54 l0 -296 l298 0 l0 -54 l-298 0 l0 -323 l248 0 l0 -54 l-548 0 l0 54 l246 0 l0 323 l-296 0 l0 54 l296 0 l0 290 q-103 -9 -221 -9 l-18 50 q313 1 516 65 l27 -46 ZM330 788 q-43 -120 -102 -220 l0 -668 l-54 0 l0 586 q-56 -74 -118 -138 l-18 56 q166 178 242 407 l50 -23 Z" /><glyph glyph-name="" unicode="&#x4efd;" d="M389 364 l0 54 l432 0 q0 -300 -16 -377 q-12 -123 -116 -123 q-30 0 -105 3 l-13 52 q86 -4 112 -4 q61 0 70 90 q11 49 14 305 l-187 0 q-25 -168 -72 -267 q-53 -104 -160 -188 l-35 44 q98 75 146 167 q46 94 68 244 l-138 0 ZM331 796 q-44 -131 -103 -235 l0 -661 l-54 0 l0 574 q-52 -76 -121 -149 l-17 58 q171 191 246 436 l49 -23 ZM561 784 q-94 -256 -245 -392 l-42 37 q155 139 236 375 l51 -20 ZM707 816 q72 -223 252 -366 l-37 -43 q-187 148 -262 382 l47 27 Z" /><glyph glyph-name="" unicode="&#x4eff;" d="M325 793 q-35 -106 -85 -199 l0 -694 l-54 0 l0 604 q-57 -85 -129 -162 l-18 57 q163 184 235 418 l51 -24 ZM493 600 l-157 0 l0 53 l285 0 q-27 84 -62 155 l57 9 q31 -71 58 -164 l267 0 l0 -53 l-395 0 l0 -108 q0 -40 -3 -79 l327 0 q-3 -302 -19 -392 q-23 -106 -124 -109 q-34 0 -146 4 l-16 47 q93 -3 157 -3 q71 3 83 92 q10 87 10 309 l-276 0 q-30 -302 -189 -457 l-42 37 q182 171 185 551 l0 108 Z" /><glyph glyph-name="" unicode="&#x4f01;" d="M520 811 q191 -213 441 -336 l-29 -52 q-253 131 -432 339 q-167 -197 -436 -340 l-28 52 q265 134 444 337 l40 0 ZM502 550 l53 0 l0 -233 l281 0 l0 -53 l-281 0 l0 -266 l353 0 l0 -53 l-828 0 l0 53 l157 0 l0 408 l53 0 l0 -408 l212 0 l0 552 Z" /><glyph glyph-name="" unicode="&#x4f18;" d="M181 490 q-59 -86 -127 -155 l-17 53 q169 190 242 425 l49 -23 q-36 -109 -92 -211 l0 -677 l-55 0 l0 588 ZM319 564 l202 0 q2 46 2 69 l0 178 l54 0 l0 -178 l-2 -69 l351 0 l0 -52 l-210 0 l0 -516 q0 -28 30 -28 l94 0 q22 0 34 17 q19 26 23 168 l49 -16 q-9 -155 -33 -191 q-21 -26 -60 -28 l-121 0 q-67 0 -67 68 l0 526 l-93 0 q-32 -407 -244 -607 l-41 35 q203 189 231 572 l-199 0 l0 52 ZM715 793 q96 -67 163 -138 l-38 -37 q-61 67 -160 141 l35 34 Z" /><glyph glyph-name="" unicode="&#x4f1a;" d="M520 814 q191 -218 441 -344 l-29 -52 q-255 136 -432 347 q-165 -201 -436 -348 l-28 52 q267 138 444 345 l40 0 ZM259 502 l485 0 l0 -52 l-485 0 l0 52 ZM102 301 l798 0 l0 -54 l-475 0 q-76 -151 -188 -269 q274 15 506 49 q-64 86 -122 151 l42 26 q138 -156 209 -270 l-44 -32 q-27 45 -57 86 q-222 -37 -598 -62 l-15 48 q19 6 28 15 q111 124 179 258 l-263 0 l0 54 Z" /><glyph glyph-name="" unicode="&#x4f20;" d="M176 484 q-51 -74 -119 -145 l-18 57 q167 187 240 419 l50 -23 q-39 -118 -99 -222 l0 -670 l-54 0 l0 584 ZM353 680 l198 0 q11 45 31 135 l53 -5 q-13 -60 -30 -130 l312 0 l0 -52 l-326 0 q-20 -75 -39 -134 l406 0 l0 -51 l-423 0 q-23 -67 -56 -143 l420 0 l0 -48 q-67 -110 -212 -222 q86 -47 146 -89 l-30 -47 q-182 127 -377 201 l29 44 q95 -38 184 -84 q129 92 203 194 l-433 0 q43 102 73 194 l-173 0 l0 51 l189 0 q26 83 40 134 l-185 0 l0 52 Z" /><glyph glyph-name="" unicode="&#x4f2a;" d="M183 509 q-56 -88 -130 -170 l-17 56 q159 186 228 420 l50 -23 q-34 -102 -77 -188 l0 -704 l-54 0 l0 609 ZM393 789 q71 -83 111 -149 l-41 -29 q-41 66 -112 148 l42 30 ZM635 364 q92 -117 138 -197 l-42 -30 q-52 92 -138 200 l42 27 ZM571 814 l53 0 l0 -122 q-1 -52 -5 -133 l283 0 q0 -418 -15 -517 q-15 -126 -154 -126 q-22 0 -78 3 l-12 49 q48 -3 85 -3 q93 0 108 94 q10 74 13 446 l-234 0 q-18 -193 -65 -318 q-69 -175 -229 -275 l-29 45 q154 99 218 273 q38 113 53 275 l-218 0 l0 54 l222 0 q4 86 4 133 l0 122 Z" /><glyph glyph-name="" unicode="&#x4f30;" d="M321 794 q-39 -121 -99 -228 l0 -666 l-54 0 l0 579 q-50 -72 -116 -145 l-18 58 q165 190 236 425 l51 -23 ZM326 610 l281 0 l0 204 l54 0 l0 -204 l293 0 l0 -53 l-293 0 l0 -225 l222 0 l0 -429 l-53 0 l0 47 l-385 0 l0 -47 l-54 0 l0 429 l216 0 l0 225 l-281 0 l0 53 ZM445 2 l385 0 l0 278 l-385 0 l0 -278 Z" /><glyph glyph-name="" unicode="&#x4f3c;" d="M178 495 q-51 -77 -121 -153 l-18 59 q159 183 230 415 l51 -23 q-36 -112 -88 -208 l0 -678 l-54 0 l0 588 ZM856 791 q0 -279 -44 -473 q-11 -47 -25 -85 q110 -161 171 -284 l-44 -31 q-58 123 -148 261 q-74 -163 -221 -277 l-33 41 q184 146 245 370 q47 191 47 478 l52 0 ZM335 96 q31 12 31 33 l0 600 l54 0 l0 -605 q91 34 177 79 l13 -48 q-121 -63 -259 -110 l-16 51 ZM551 683 q75 -115 132 -253 l-45 -20 q-58 141 -133 259 l46 14 Z" /><glyph glyph-name="" unicode="&#x4f46;" d="M409 749 l467 0 l0 -590 l-467 0 l0 590 ZM822 210 l0 217 l-359 0 l0 -217 l359 0 ZM463 479 l359 0 l0 218 l-359 0 l0 -218 ZM327 -10 l628 0 l0 -53 l-628 0 l0 53 ZM332 797 q-42 -122 -103 -226 l0 -671 l-54 0 l0 588 q-53 -74 -122 -145 l-17 57 q171 186 246 420 l50 -23 Z" /><glyph glyph-name="" unicode="&#x4f4d;" d="M328 796 q-39 -116 -98 -221 l0 -675 l-54 0 l0 589 q-55 -79 -119 -145 l-18 57 q168 187 239 419 l50 -24 ZM333 647 l279 0 q-25 89 -52 157 l57 9 q25 -70 48 -166 l266 0 l0 -51 l-598 0 l0 51 ZM317 8 l346 0 q79 207 137 513 l52 -13 q-55 -290 -134 -500 l239 0 l0 -53 l-640 0 l0 53 ZM445 510 q59 -195 106 -452 l-50 -13 q-42 236 -106 449 l50 16 Z" /><glyph glyph-name="" unicode="&#x4f4e;" d="M423 389 l0 -385 q63 25 102 44 l9 -48 q-77 -32 -175 -65 l-14 47 q25 9 25 32 l0 672 q320 48 490 108 l30 -44 q-73 -26 -178 -51 q1 -148 9 -259 l221 0 l0 -51 l-217 0 q5 -66 17 -125 q23 -132 64 -210 q35 -66 56 -66 q25 2 44 175 l45 -25 q-27 -213 -79 -213 q-44 0 -94 80 q-52 86 -85 241 q-13 68 -20 143 l-250 0 ZM659 687 q-133 -26 -236 -43 l0 -204 l246 0 q-10 123 -10 247 ZM591 119 q84 -100 133 -182 l-41 -29 q-53 89 -130 184 l38 27 ZM326 791 q-37 -110 -97 -218 l0 -673 l-54 0 l0 588 q-54 -78 -122 -149 l-17 56 q167 187 240 419 l50 -23 Z" /><glyph glyph-name="" unicode="&#x4f4f;" d="M329 637 l601 0 l0 -53 l-272 0 l0 -260 l245 0 l0 -51 l-245 0 l0 -284 l293 0 l0 -53 l-639 0 l0 53 l292 0 l0 284 l-246 0 l0 51 l246 0 l0 260 l-275 0 l0 53 ZM326 794 q-40 -118 -101 -225 l0 -669 l-54 0 l0 585 q-53 -74 -115 -139 l-18 57 q165 182 237 415 l51 -24 ZM604 815 q39 -92 58 -153 l-49 -18 q-24 76 -62 156 l53 15 Z" /><glyph glyph-name="" unicode="&#x4f53;" d="M170 466 q-48 -73 -112 -147 l-17 53 q161 197 233 446 l49 -23 q-41 -131 -100 -240 l0 -654 l-53 0 l0 565 ZM310 635 l275 0 l0 181 l53 0 l0 -181 l280 0 l0 -52 l-220 0 q72 -259 259 -461 l-35 -43 q-193 225 -265 504 l-19 0 l0 -417 l166 0 l0 -52 l-166 0 l0 -212 l-53 0 l0 212 l-163 0 l0 52 l163 0 l0 417 l-18 0 q-78 -313 -269 -513 l-28 46 q181 181 257 467 l-217 0 l0 52 Z" /><glyph glyph-name="" unicode="&#x4f55;" d="M336 749 l617 0 l0 -53 l-82 0 l0 -710 q0 -80 -86 -80 l-171 0 l-12 52 q114 -4 164 -4 q51 0 51 46 l0 696 l-481 0 l0 53 ZM367 531 l317 0 l0 -364 l-317 0 l0 364 ZM631 217 l0 264 l-211 0 l0 -264 l211 0 ZM314 796 q-34 -110 -91 -217 l0 -679 l-53 0 l0 590 q-54 -79 -112 -143 l-18 56 q156 182 225 415 l49 -22 Z" /><glyph glyph-name="" unicode="&#x4f59;" d="M520 810 q192 -184 441 -291 l-28 -49 q-253 111 -432 291 q-163 -171 -436 -298 l-28 50 q267 119 444 297 l39 0 ZM239 536 l526 0 l0 -51 l-229 0 l0 -146 l368 0 l0 -54 l-368 0 l0 -277 q0 -94 -95 -94 l-121 0 l-11 52 q80 -4 113 -4 q60 0 60 59 l0 264 l-386 0 l0 54 l386 0 l0 146 l-243 0 l0 51 ZM346 191 q-91 -158 -233 -239 l-40 35 q147 83 225 223 l48 -19 ZM701 221 q151 -136 233 -241 l-45 -32 q-86 114 -231 247 l43 26 Z" /><glyph glyph-name="" unicode="&#x4f5c;" d="M475 614 q-68 -145 -162 -257 l-38 45 q140 164 222 418 l54 -13 q-19 -59 -52 -140 l448 0 l0 -53 l-349 0 l0 -182 l303 0 l0 -54 l-303 0 l0 -185 l311 0 l0 -53 l-311 0 l0 -238 l-54 0 l0 712 l-69 0 ZM174 488 q-56 -74 -118 -138 l-17 57 q166 180 242 408 l50 -23 q-41 -121 -103 -223 l0 -667 l-54 0 l0 586 Z" /><glyph glyph-name="" unicode="&#x4f60;" d="M175 481 q-49 -73 -121 -152 l-18 57 q167 192 240 432 l50 -23 q-38 -118 -97 -226 l0 -667 l-54 0 l0 579 ZM796 417 q80 -178 141 -385 l-49 -22 q-63 221 -141 391 l49 16 ZM460 634 q-49 -118 -116 -219 l-46 29 q115 166 169 376 l52 -11 q-18 -64 -39 -123 l432 0 l0 -36 q-24 -93 -65 -184 l-52 15 q37 65 62 153 l-397 0 ZM460 -90 l-12 51 q88 -4 126 -4 q39 0 39 39 l0 544 l52 0 l0 -557 q0 -73 -73 -73 l-132 0 ZM499 397 q-57 -211 -144 -370 l-52 19 q84 143 147 364 l49 -13 Z" /><glyph glyph-name="" unicode="&#x4f7f;" d="M341 706 l273 0 l0 108 l53 0 l0 -108 l281 0 l0 -51 l-281 0 l0 -107 l239 0 l0 -273 l-243 0 q-12 -143 -55 -220 q154 -91 362 -103 l-14 -51 q-216 14 -378 111 q-78 -87 -257 -114 l-24 50 q166 21 234 95 q-92 65 -166 159 l43 29 q68 -88 154 -147 q39 70 48 191 l-230 0 l0 273 l234 0 l0 107 l-273 0 l0 51 ZM854 324 l0 174 l-187 0 l0 -155 l-1 -19 l188 0 ZM613 324 q0 7 1 20 l0 154 l-183 0 l0 -174 l182 0 ZM169 484 q-57 -85 -119 -153 l-17 58 q159 189 232 431 l51 -24 q-37 -115 -92 -219 l0 -677 l-55 0 l0 584 Z" /><glyph glyph-name="" unicode="&#x4f8b;" d="M315 753 l326 0 l0 -52 l-187 0 q-9 -85 -24 -158 l189 0 l0 -48 q-60 -419 -301 -589 l-28 48 q125 89 197 248 q-67 64 -139 108 q-28 -51 -67 -102 l-27 52 q124 162 148 441 l-87 0 l0 52 ZM370 354 q77 -44 138 -100 q41 112 61 238 l-151 0 q-21 -76 -48 -138 ZM716 -90 l-12 52 q72 -4 103 -4 q48 0 48 50 l0 803 l54 0 l0 -816 q0 -85 -83 -85 l-110 0 ZM146 470 q-40 -64 -91 -128 l-17 58 q136 186 197 418 l51 -24 q-33 -118 -86 -226 l0 -668 l-54 0 l0 570 ZM692 719 l51 0 l0 -622 l-51 0 l0 622 Z" /><glyph glyph-name="" unicode="&#x4f9b;" d="M344 596 l137 0 l0 214 l54 0 l0 -214 l199 0 l0 214 l54 0 l0 -214 l140 0 l0 -54 l-140 0 l0 -250 l168 0 l0 -53 l-639 0 l0 53 l164 0 l0 250 l-137 0 l0 54 ZM535 292 l199 0 l0 250 l-199 0 l0 -250 ZM746 189 q127 -141 196 -249 l-48 -34 q-69 116 -192 255 l44 28 ZM558 159 q-78 -145 -186 -252 l-47 33 q105 101 184 243 l49 -24 ZM174 489 q-57 -81 -124 -150 l-17 58 q171 188 246 426 l50 -24 q-41 -120 -101 -226 l0 -671 l-54 0 l0 587 Z" /><glyph glyph-name="" unicode="&#x4f9d;" d="M320 796 q-36 -111 -88 -209 l0 -685 l-54 0 l0 594 q-58 -89 -128 -163 l-18 59 q166 190 238 427 l50 -23 ZM609 814 q26 -73 47 -157 l267 0 l0 -51 l-242 0 q18 -155 61 -279 q92 64 155 136 l34 -43 q-67 -73 -172 -141 q72 -184 201 -309 l-33 -51 q-247 246 -297 687 l-17 0 q-45 -128 -117 -235 l0 -384 q107 33 205 80 l9 -52 q-113 -52 -281 -101 l-11 48 q24 9 24 31 l0 308 q-67 -78 -152 -144 l-28 47 q207 155 297 402 l-240 0 l0 51 l283 0 q-21 77 -50 147 l57 10 Z" /><glyph glyph-name="" unicode="&#x4fa7;" d="M624 761 l0 -605 l-49 0 l0 557 l-212 0 l0 -559 l-50 0 l0 607 l311 0 ZM520 109 q85 -85 142 -169 l-37 -38 q-54 84 -139 174 l34 33 ZM447 655 l45 0 l0 -318 q-1 -174 -50 -280 q-46 -99 -154 -154 l-28 44 q102 53 146 146 q40 94 41 244 l0 318 ZM149 478 q-43 -74 -93 -137 l-17 56 q133 183 194 421 l47 -22 q-34 -121 -79 -218 l0 -678 l-52 0 l0 578 ZM725 -90 l-12 50 q70 -4 100 -4 q44 0 44 50 l0 805 l52 0 l0 -818 q0 -83 -78 -83 l-106 0 ZM707 720 l47 0 l0 -621 l-47 0 l0 621 Z" /><glyph glyph-name="" unicode="&#x4fbf;" d="M346 767 l595 0 l0 -52 l-288 0 l0 -100 l240 0 l0 -374 l-242 0 q-9 -115 -65 -189 q158 -89 373 -100 l-13 -49 q-228 12 -395 112 q-80 -70 -236 -112 l-29 44 q149 38 220 97 q-81 55 -143 129 l41 28 q58 -69 137 -121 q48 66 57 161 l-239 0 l0 374 l240 0 l0 100 l-253 0 l0 52 ZM842 287 l0 119 l-189 0 l0 -119 l189 0 ZM599 287 l0 119 l-189 0 l0 -119 l189 0 ZM410 452 l189 0 l0 117 l-189 0 l0 -117 ZM653 569 l0 -117 l189 0 l0 117 l-189 0 ZM165 480 q-47 -76 -107 -147 l-17 58 q145 184 212 422 l49 -22 q-34 -111 -84 -215 l0 -672 l-53 0 l0 576 Z" /><glyph glyph-name="" unicode="&#x4fc3;" d="M165 479 q-48 -73 -107 -140 l-17 58 q152 185 218 416 l50 -22 q-35 -114 -91 -222 l0 -669 l-53 0 l0 579 ZM385 771 l498 0 l0 -309 l-209 0 l0 -174 l241 0 l0 -51 l-241 0 l0 -254 q59 -10 141 -12 l47 0 q18 0 40 1 l56 0 l-11 -51 l-106 0 q-201 0 -273 42 q-97 53 -149 178 q-47 -146 -118 -242 l-35 43 q115 164 155 438 l52 -9 q-13 -85 -33 -159 q22 -72 62 -126 q48 -61 111 -87 l4 -1 l4 -2 l0 466 l-236 0 l0 309 ZM830 513 l0 207 l-392 0 l0 -207 l392 0 Z" /><glyph glyph-name="" unicode="&#x4fdd;" d="M319 795 q-37 -112 -92 -213 l0 -682 l-55 0 l0 591 q-50 -76 -122 -152 l-17 57 q164 189 235 423 l51 -24 ZM389 767 l464 0 l0 -303 l-205 0 l0 -124 l293 0 l0 -54 l-234 0 q93 -164 251 -280 l-34 -46 q-157 127 -260 326 l-16 0 l0 -384 l-54 0 l0 384 l-17 0 q-104 -210 -265 -328 l-30 48 q155 106 251 280 l-224 0 l0 54 l285 0 l0 124 l-205 0 l0 303 ZM799 517 l0 198 l-356 0 l0 -198 l356 0 Z" /><glyph glyph-name="" unicode="&#x4fe1;" d="M163 489 q-55 -84 -112 -148 l-18 57 q154 190 221 425 l51 -24 q-34 -112 -89 -218 l0 -681 l-53 0 l0 589 ZM311 674 l646 0 l0 -52 l-646 0 l0 52 ZM404 526 l466 0 l0 -49 l-466 0 l0 49 ZM404 385 l466 0 l0 -50 l-466 0 l0 50 ZM887 238 l0 -335 l-53 0 l0 55 l-393 0 l0 -55 l-54 0 l0 335 l500 0 ZM441 10 l393 0 l0 177 l-393 0 l0 -177 ZM625 817 q33 -63 51 -117 l-48 -19 q-24 67 -55 122 l52 14 Z" /><glyph glyph-name="" unicode="&#x4fee;" d="M640 812 q-13 -40 -37 -84 l296 0 l0 -48 q-55 -103 -165 -179 q89 -45 218 -76 l-22 -51 q-148 37 -247 95 q-104 -58 -253 -98 l-21 48 q129 33 226 81 q-73 52 -113 122 q-33 -32 -75 -64 l-32 41 q127 90 172 219 l53 -6 ZM556 660 q42 -77 129 -131 q100 64 154 149 l-268 0 q-9 -9 -15 -18 ZM309 791 q-35 -112 -89 -213 l0 -677 l-53 0 l0 587 q-46 -69 -112 -145 l-17 54 q154 185 221 417 l50 -23 ZM324 640 l51 0 l0 -564 l-51 0 l0 564 ZM764 368 q-55 -48 -115 -81 q-63 -34 -163 -67 l-27 43 q89 25 154 57 q61 32 110 72 l41 -24 ZM855 291 q-119 -154 -349 -221 l-21 47 q221 63 332 202 l38 -28 ZM443 -54 q169 47 278 111 q108 64 184 167 l39 -29 q-68 -105 -200 -184 q-137 -74 -279 -113 l-22 48 Z" /><glyph glyph-name="" unicode="&#x500d;" d="M340 710 l261 0 q-17 49 -41 101 l55 10 q21 -49 39 -111 l264 0 l0 -52 l-578 0 l0 52 ZM301 435 l191 0 q-26 82 -67 160 l50 19 q39 -73 72 -179 l149 0 q43 85 74 181 l53 -19 q-30 -90 -69 -162 l190 0 l0 -54 l-643 0 l0 54 ZM849 274 l0 -370 l-55 0 l0 59 l-348 0 l0 -59 l-55 0 l0 370 l458 0 ZM446 17 l348 0 l0 204 l-348 0 l0 -204 ZM163 490 q-56 -85 -113 -148 l-17 57 q153 186 222 422 l50 -23 q-35 -113 -89 -216 l0 -682 l-53 0 l0 590 Z" /><glyph glyph-name="" unicode="&#x5012;" d="M641 5 q-169 -48 -362 -78 l-12 51 q61 9 166 28 l0 210 l-143 0 l0 52 l143 0 l0 122 l54 0 l0 -122 l139 0 l0 -52 l-139 0 l0 -198 q77 17 154 39 l0 -52 ZM295 767 l341 0 l0 -50 l-182 0 q-54 -169 -100 -247 q103 11 201 32 q-25 54 -60 121 l40 25 q68 -127 106 -223 l-42 -29 l-13 33 l-13 32 q-122 -25 -284 -44 l-12 47 l6 1 l6 2 q6 1 9 2 q47 65 104 248 l-107 0 l0 50 ZM727 -88 l-12 51 q72 -4 103 -4 q43 0 43 43 l0 806 l53 0 l0 -819 q0 -77 -77 -77 l-110 0 ZM694 720 l50 0 l0 -621 l-50 0 l0 621 ZM153 496 q-44 -80 -97 -151 l-17 57 q125 184 179 414 l49 -23 q-26 -99 -61 -183 l0 -710 l-53 0 l0 596 Z" /><glyph glyph-name="" unicode="&#x5019;" d="M299 791 q-36 -119 -85 -214 l0 -678 l-51 0 l0 586 q-52 -82 -109 -149 l-17 57 q147 186 213 421 l49 -23 ZM314 633 l51 0 l0 -589 l-51 0 l0 589 ZM422 585 l349 0 l0 135 l-301 0 l0 49 l353 0 l0 -184 l103 0 l0 -50 l-504 0 l0 50 ZM526 370 q-34 -57 -75 -102 l-34 40 q73 76 119 197 l46 -10 q-15 -39 -30 -75 l350 0 l0 -50 l-200 0 l0 -3 q0 -65 -13 -132 l254 0 l0 -49 l-236 0 q73 -137 248 -241 l-34 -43 q-179 119 -254 261 q-68 -179 -266 -263 l-33 43 q192 77 252 243 l-202 0 l0 49 l216 0 q14 59 14 120 l0 15 l-122 0 Z" /><glyph glyph-name="" unicode="&#x503c;" d="M604 813 l54 0 l0 -98 l264 0 l0 -50 l-264 0 l0 -95 l195 0 l0 -586 l101 0 l0 -51 l-658 0 l0 51 l106 0 l0 586 l202 0 l0 95 l-265 0 l0 50 l265 0 l0 98 ZM454 -16 l347 0 l0 99 l-347 0 l0 -99 ZM454 128 l347 0 l0 98 l-347 0 l0 -98 ZM454 272 l347 0 l0 98 l-347 0 l0 -98 ZM454 416 l347 0 l0 104 l-347 0 l0 -104 ZM187 509 q-56 -93 -123 -169 l-18 57 q152 187 218 420 l49 -23 q-30 -96 -72 -184 l0 -710 l-54 0 l0 609 Z" /><glyph glyph-name="" unicode="&#x5047;" d="M375 299 l0 -147 l196 0 l0 -51 l-196 0 l0 -199 l-52 0 l0 869 l265 0 l0 -281 l-213 0 l0 -140 l195 0 l0 -51 l-195 0 ZM907 491 l-264 0 l0 50 l211 0 l0 178 l-209 0 l0 51 l262 0 l0 -279 ZM611 385 l306 0 l0 -49 q-33 -153 -113 -260 q69 -80 164 -130 l-26 -47 q-104 57 -171 136 q-79 -86 -189 -137 l-28 45 q110 52 184 135 q-4 4 -5 6 q-71 104 -96 250 l-26 0 l0 51 ZM686 334 q19 -125 84 -215 q67 95 98 215 l-182 0 ZM375 541 l162 0 l0 178 l-162 0 l0 -178 ZM146 484 q-41 -72 -93 -139 l-17 56 q129 186 186 420 l51 -24 q-31 -112 -73 -207 l0 -690 l-54 0 l0 584 Z" /><glyph glyph-name="" unicode="&#x504f;" d="M860 659 l-467 0 l0 -149 l467 0 l0 149 ZM393 462 l0 -14 q-1 -312 -119 -538 l-39 34 q107 194 109 504 l0 261 l268 0 q-21 53 -47 98 l54 10 q22 -44 46 -108 l245 0 l0 -247 l-517 0 ZM164 490 q-52 -79 -104 -137 l-17 53 q145 180 209 403 l49 -22 q-34 -110 -86 -210 l0 -677 l-51 0 l0 590 ZM810 -95 l-12 43 l45 -2 q23 0 23 24 l0 154 l-102 0 l0 -204 l-42 0 l0 204 l-97 0 l0 -204 l-41 0 l0 204 l-106 0 l0 -218 l-46 0 l0 458 l481 0 l0 -404 q0 -55 -55 -55 l-48 0 ZM478 170 l106 0 l0 149 l-106 0 l0 -149 ZM625 319 l0 -149 l97 0 l0 149 l-97 0 ZM764 319 l0 -149 l102 0 l0 149 l-102 0 Z" /><glyph glyph-name="" unicode="&#x505a;" d="M666 485 q-29 -61 -62 -109 l-32 39 q96 145 129 392 l51 -9 q-12 -75 -29 -145 l222 0 l0 -51 l-50 0 q-3 -274 -87 -456 q59 -116 153 -205 l-37 -36 q-85 82 -143 189 q-67 -117 -174 -189 l-32 41 q112 73 178 202 q-69 150 -87 337 ZM779 207 q64 162 66 395 l-136 0 l-8 -27 q11 -209 78 -368 ZM295 789 q-33 -111 -81 -210 l0 -678 l-52 0 l0 584 q-44 -69 -106 -145 l-18 57 q145 184 209 414 l48 -22 ZM577 359 l0 -337 l-219 0 l0 -68 l-52 0 l0 405 l110 0 l0 211 l-136 0 l0 50 l136 0 l0 182 l52 0 l0 -182 l133 0 l0 -50 l-133 0 l0 -211 l109 0 ZM358 71 l168 0 l0 239 l-168 0 l0 -239 Z" /><glyph glyph-name="" unicode="&#x505c;" d="M300 794 q-33 -112 -86 -217 l0 -674 l-53 0 l0 581 q-47 -73 -105 -142 l-17 58 q146 183 212 418 l49 -24 ZM604 819 q10 -26 16 -43 q8 -25 15 -47 l289 0 l0 -50 l-615 0 l0 50 l272 0 q-18 52 -32 80 l55 10 ZM379 611 l467 0 l0 -180 l-467 0 l0 180 ZM793 474 l0 95 l-361 0 l0 -95 l361 0 ZM925 362 l0 -161 l-52 0 l0 -40 l-224 0 l0 -178 q0 -73 -77 -73 l-114 0 l-12 52 q76 -4 107 -4 q42 0 42 38 l0 165 l-227 0 l0 48 l504 0 l0 105 l-516 0 l0 -113 l-52 0 l0 161 l621 0 Z" /><glyph glyph-name="" unicode="&#x5065;" d="M886 404 l-165 0 l0 -91 l190 0 l0 -44 l-190 0 l0 -88 l221 0 l0 -46 l-221 0 l0 -112 l-52 0 l0 112 l-177 0 l0 46 l177 0 l0 88 l-145 0 l0 44 l145 0 l0 91 l-135 0 l0 45 l135 0 l0 94 l-177 0 l0 45 l177 0 l0 94 l-135 0 l0 45 l135 0 l0 81 l52 0 l0 -81 l165 0 l0 -139 l70 0 l0 -45 l-70 0 l0 -139 ZM721 682 l0 -94 l116 0 l0 94 l-116 0 ZM721 543 l0 -94 l116 0 l0 94 l-116 0 ZM277 714 l190 0 l0 -46 q-62 -135 -125 -230 l130 0 l0 -30 q-4 -185 -62 -314 q52 -60 113 -86 q81 -36 256 -39 q60 0 110 1 q41 0 70 1 l-11 -52 l-134 0 q-253 2 -342 57 q-48 26 -87 70 q-50 -84 -128 -139 l-27 47 q76 53 121 134 q-63 90 -99 223 l45 17 q27 -112 78 -189 q44 109 50 253 l-146 0 l0 39 q74 107 131 231 l-133 0 l0 52 ZM143 484 q-39 -69 -87 -132 l-18 57 q125 181 179 405 l49 -23 q-32 -115 -71 -204 l0 -685 l-52 0 l0 582 Z" /><glyph glyph-name="" unicode="&#x5076;" d="M388 770 l478 0 l0 -370 l-215 0 l0 -94 l262 0 l0 -313 q0 -87 -80 -87 l-92 0 l-14 50 l89 -2 q46 0 46 50 l0 254 l-216 0 l0 -150 q62 8 95 16 q-14 44 -28 80 l39 13 q30 -76 59 -189 l-42 -11 q-9 42 -16 65 q-99 -26 -294 -40 l-15 51 q102 5 155 10 l0 155 l-204 0 l0 -355 l-51 0 l0 403 l255 0 l0 94 l-211 0 l0 370 ZM813 447 l0 114 l-162 0 l0 -114 l162 0 ZM599 447 l0 114 l-160 0 l0 -114 l160 0 ZM439 608 l160 0 l0 114 l-160 0 l0 -114 ZM651 722 l0 -114 l162 0 l0 114 l-162 0 ZM174 494 q-54 -78 -121 -148 l-17 57 q164 184 236 414 l50 -23 q-40 -116 -94 -213 l0 -681 l-54 0 l0 594 Z" /><glyph glyph-name="" unicode="&#x50a8;" d="M143 488 q-39 -69 -87 -132 l-17 56 q122 180 176 403 l49 -23 q-29 -108 -69 -200 l0 -690 l-52 0 l0 586 ZM330 770 q89 -75 150 -147 l-41 -41 q-57 76 -146 152 l37 36 ZM243 500 l173 0 l0 -442 q41 42 92 103 l14 -54 q-72 -90 -156 -163 l-21 49 q18 18 18 36 l0 419 l-120 0 l0 52 ZM539 692 l125 0 l0 121 l51 0 l0 -121 l118 0 l0 -47 l-118 0 l0 -145 l38 0 q83 109 142 260 l45 -25 q-53 -131 -125 -235 l131 0 l0 -50 l-168 0 q-45 -57 -101 -106 l216 0 l0 -439 l-52 0 l0 44 l-205 0 l0 -44 l-52 0 l0 370 q-37 -24 -85 -47 l-28 43 q139 63 241 179 l-199 0 l0 50 l151 0 l0 145 l-125 0 l0 47 ZM636 123 l0 -126 l205 0 l0 126 l-205 0 ZM841 171 l0 124 l-205 0 l0 -124 l205 0 Z" /><glyph glyph-name="" unicode="&#x50cf;" d="M355 592 l-25 -16 l-25 -16 l-34 40 q154 87 245 220 l55 -12 q-25 -37 -45 -62 l261 0 l0 -37 q-41 -54 -89 -97 l196 0 l0 -207 l-301 0 q-2 -2 -4 -6 q69 -70 105 -152 q111 49 183 119 l35 -39 q-51 -45 -111 -81 q44 -145 160 -255 l-36 -43 q-117 125 -165 276 l-24 -11 l-25 -12 q16 -52 19 -115 q0 -100 -31 -140 q-27 -31 -97 -42 l-29 0 l-16 -1 l-16 0 l-17 49 l71 0 q36 3 59 29 q22 28 22 105 q-1 21 -5 54 q-131 -123 -352 -201 l-28 46 q240 80 369 204 q-12 41 -31 76 q-112 -103 -309 -170 l-26 46 q202 63 313 162 q-29 40 -50 61 q-88 -86 -241 -121 l-21 46 q152 34 232 116 l-172 0 l0 187 ZM628 612 q48 39 94 90 l-235 0 q-47 -48 -104 -90 l245 0 ZM841 451 l0 115 l-177 0 q-13 -62 -41 -115 l218 0 ZM564 451 q35 53 48 115 l-204 0 l0 -115 l156 0 ZM165 493 q-49 -79 -107 -148 l-18 57 q142 182 207 415 l49 -23 q-31 -108 -78 -204 l0 -687 l-53 0 l0 590 Z" /><glyph glyph-name="" unicode="&#x2f09;&#x513f;" d="M295 790 l53 0 l0 -328 q-6 -383 -245 -558 l-43 36 q230 163 235 522 l0 328 ZM683 -67 q-93 0 -93 99 l0 759 l55 0 l0 -747 q0 -57 55 -57 l104 0 q45 0 63 21 q24 29 31 167 l51 -16 q-11 -159 -44 -196 q-28 -30 -91 -30 l-131 0 Z" /><glyph glyph-name="" unicode="&#x5141;" d="M135 402 l-10 50 q120 63 282 366 l51 -17 q-119 -225 -240 -346 q277 9 532 32 q-60 99 -130 191 l47 24 q120 -158 221 -339 l-51 -26 q-37 67 -58 102 l-151 -12 l0 -407 q0 -47 51 -47 l109 0 q45 0 63 23 q25 30 33 170 l51 -16 q-12 -159 -45 -198 q-28 -30 -91 -30 l-136 0 q-88 0 -88 87 l0 414 l-173 -10 q-14 -217 -76 -321 q-74 -115 -240 -197 l-35 46 q157 73 223 174 q61 97 73 295 l-212 -8 Z" /><glyph glyph-name="" unicode="&#x5143;" d="M153 752 l686 0 l0 -52 l-686 0 l0 52 ZM75 459 l851 0 l0 -53 l-282 0 l0 -394 q0 -44 50 -44 l111 0 q38 0 54 22 q20 29 28 171 l49 -16 q-9 -158 -39 -197 q-25 -30 -82 -30 l-137 0 q-88 0 -88 83 l0 405 l-196 0 l0 -12 q-3 -200 -78 -320 q-75 -112 -242 -174 l-30 46 q163 60 232 165 q61 107 64 283 l0 12 l-265 0 l0 53 Z" /><glyph glyph-name="" unicode="&#x5144;" d="M191 759 l606 0 l0 -390 l-170 0 l0 -337 q0 -55 51 -55 l123 0 q35 0 54 14 q30 18 39 173 l50 -17 q-12 -158 -42 -191 q-26 -28 -89 -28 l-151 0 q-42 0 -66 26 q-22 25 -22 67 l0 348 l-162 0 q-15 -195 -79 -287 q-74 -104 -249 -179 l-34 43 q163 66 234 158 q62 86 76 265 l-169 0 l0 390 ZM742 423 l0 282 l-496 0 l0 -282 l496 0 Z" /><glyph glyph-name="" unicode="&#x5145;" d="M487 823 q33 -65 56 -134 l386 0 l0 -51 l-496 0 q-106 -191 -181 -266 q254 12 490 37 q-49 73 -103 141 l45 28 q124 -160 188 -278 l-45 -32 q-18 34 -55 94 l-144 -14 l0 -324 q0 -52 59 -52 l131 0 q31 0 49 15 q25 24 31 156 l51 -17 q-10 -145 -41 -179 q-25 -25 -77 -27 l-159 0 q-97 0 -97 94 l0 330 l-85 -6 l-86 -7 q-12 -176 -73 -263 q-68 -93 -227 -161 l-35 43 q149 60 212 141 q57 78 69 236 l-174 -9 l-12 50 l6 2 l5 2 q75 49 199 266 l-302 0 l0 51 l417 0 q-28 72 -59 124 l57 10 Z" /><glyph glyph-name="" unicode="&#x5148;" d="M229 603 q-40 -80 -91 -149 l-50 31 q109 142 161 318 l53 -11 q-18 -62 -49 -136 l229 0 l0 159 l54 0 l0 -159 l337 0 l0 -53 l-337 0 l0 -205 l405 0 l0 -53 l-280 0 l0 -314 q0 -61 54 -61 l104 0 q27 0 44 17 q23 26 29 174 l52 -17 q-10 -162 -39 -198 q-24 -27 -73 -29 l-132 0 q-93 0 -93 103 l0 325 l-205 0 q-13 -182 -75 -271 q-72 -99 -237 -171 l-37 47 q156 63 222 150 q59 79 73 245 l-284 0 l0 53 l418 0 l0 205 l-253 0 Z" /><glyph glyph-name="" unicode="&#x5149;" d="M473 815 l54 0 l0 -381 l407 0 l0 -53 l-295 0 l0 -353 q0 -48 47 -48 l128 0 q39 0 56 22 q20 26 28 162 l53 -17 q-10 -153 -42 -189 q-27 -29 -85 -29 l-154 0 q-85 0 -85 88 l0 364 l-183 0 l0 -9 q-3 -186 -80 -301 q-74 -104 -246 -164 l-30 47 q165 57 235 155 q63 100 66 263 l0 9 l-280 0 l0 53 l406 0 l0 381 ZM856 741 q-52 -124 -137 -242 l-50 26 q84 122 135 240 l52 -24 ZM197 757 q79 -108 144 -232 l-51 -26 q-68 132 -144 233 l51 25 Z" /><glyph glyph-name="" unicode="&#x514b;" d="M473 817 l54 0 l0 -114 l399 0 l0 -52 l-399 0 l0 -120 l283 0 l0 -278 l-177 0 l0 -226 q0 -53 54 -53 l129 0 q29 0 48 11 q26 20 32 123 l51 -17 q-11 -120 -41 -149 q-25 -21 -77 -21 l-157 0 q-92 0 -92 97 l0 235 l-176 0 q-15 -143 -76 -215 q-72 -79 -237 -138 l-35 45 q154 48 221 118 q59 64 71 190 l-158 0 l0 278 l283 0 l0 120 l-399 0 l0 52 l399 0 l0 114 ZM756 305 l0 175 l-512 0 l0 -175 l512 0 Z" /><glyph glyph-name="" unicode="&#x514d;" d="M183 536 l327 0 q76 63 140 136 l-326 0 q-98 -111 -236 -200 l-34 42 q198 122 314 305 l55 -12 q-21 -35 -58 -85 l354 0 l0 -42 q-72 -88 -139 -144 l260 0 l0 -289 l-230 0 l0 -222 q0 -52 48 -52 l167 0 q32 0 45 19 q17 25 23 144 l51 -16 q-9 -141 -36 -174 q-23 -26 -72 -26 l-194 0 q-86 0 -86 94 l0 233 l-66 0 q-9 -26 -23 -59 q-86 -175 -376 -284 l-34 42 q262 96 351 247 q14 27 24 54 l-249 0 l0 289 ZM787 299 l0 186 l-259 0 q-3 -107 -23 -186 l282 0 ZM449 299 q22 89 25 186 l-237 0 l0 -186 l212 0 Z" /><glyph glyph-name="" unicode="&#x2f0a;&#x5165;" d="M464 589 q-69 127 -168 196 l45 30 q139 -99 229 -338 q141 -362 382 -515 l-33 -43 q-247 152 -399 546 q-9 26 -25 61 q-97 -398 -419 -610 l-34 46 q328 215 422 627 Z" /><glyph glyph-name="" unicode="&#x5168;" d="M519 809 q191 -202 438 -317 l-27 -47 q-250 121 -430 314 q-166 -187 -434 -321 l-26 48 q263 129 441 323 l38 0 ZM222 490 l558 0 l0 -53 l-253 0 l0 -191 l297 0 l0 -53 l-297 0 l0 -206 l388 0 l0 -53 l-829 0 l0 53 l387 0 l0 206 l-298 0 l0 53 l298 0 l0 191 l-251 0 l0 53 Z" /><glyph glyph-name="" unicode="&#x2f0b;&#x516b;" d="M398 733 q-87 -524 -310 -810 l-35 44 q216 286 291 776 l54 -10 ZM630 779 q36 -546 320 -810 l-28 -50 q-297 267 -342 845 l50 15 Z" /><glyph glyph-name="" unicode="&#x516c;" d="M393 784 q-116 -316 -302 -481 l-42 37 q194 171 293 464 l51 -20 ZM659 276 q114 -169 193 -349 l-51 -22 q-25 59 -51 111 q-268 -44 -578 -64 l-10 51 q132 81 307 469 l53 -18 q-137 -298 -271 -447 q252 18 475 56 q-52 104 -116 196 l49 17 ZM643 811 q89 -287 310 -466 l-37 -44 q-230 189 -319 484 l46 26 Z" /><glyph glyph-name="" unicode="&#x516d;" d="M657 380 q178 -249 273 -437 l-47 -33 q-101 204 -272 441 l46 29 ZM388 354 q-108 -287 -284 -437 l-45 39 q183 154 277 418 l52 -20 ZM59 540 l882 0 l0 -52 l-882 0 l0 52 ZM398 807 q124 -88 206 -177 l-39 -39 q-74 84 -204 181 l37 35 Z" /><glyph glyph-name="" unicode="&#x5171;" d="M107 605 l188 0 l0 216 l54 0 l0 -216 l302 0 l0 212 l54 0 l0 -212 l189 0 l0 -52 l-189 0 l0 -259 l239 0 l0 -53 l-888 0 l0 53 l239 0 l0 259 l-188 0 l0 52 ZM349 294 l302 0 l0 259 l-302 0 l0 -259 ZM408 156 q-124 -140 -313 -250 l-37 48 q181 101 309 238 l41 -36 ZM640 190 q175 -117 301 -241 l-43 -41 q-111 117 -297 245 l39 37 Z" /><glyph glyph-name="" unicode="&#x5173;" d="M300 811 q68 -87 118 -175 l-48 -24 q-58 101 -119 175 l49 24 ZM748 806 q-40 -118 -97 -205 l218 0 l0 -54 l-342 0 l0 -59 q-2 -80 -13 -143 l413 0 l0 -54 l-376 0 q75 -217 399 -337 l-31 -50 q-338 138 -419 379 q-27 -98 -81 -170 q-102 -130 -333 -204 l-30 47 q229 72 325 197 q41 60 64 138 l-372 0 l0 54 l385 0 q13 67 15 143 l0 59 l-343 0 l0 54 l460 0 q60 90 105 219 l53 -14 Z" /><glyph glyph-name="" unicode="&#x5176;" d="M73 722 l171 0 l0 98 l54 0 l0 -98 l404 0 l0 98 l54 0 l0 -98 l171 0 l0 -52 l-171 0 l0 -476 l190 0 l0 -51 l-891 0 l0 51 l189 0 l0 476 l-171 0 l0 52 ZM298 194 l404 0 l0 130 l-404 0 l0 -130 ZM298 371 l404 0 l0 126 l-404 0 l0 -126 ZM298 545 l404 0 l0 125 l-404 0 l0 -125 ZM412 74 q-126 -96 -309 -168 l-34 44 q181 69 305 159 l38 -35 ZM622 108 q170 -64 309 -156 l-30 -47 q-151 102 -307 162 l28 41 Z" /><glyph glyph-name="" unicode="&#x5177;" d="M790 771 l0 -613 l152 0 l0 -51 l-884 0 l0 51 l152 0 l0 613 l580 0 ZM263 158 l474 0 l0 108 l-474 0 l0 -108 ZM263 311 l474 0 l0 106 l-474 0 l0 -106 ZM263 462 l474 0 l0 106 l-474 0 l0 -106 ZM263 613 l474 0 l0 107 l-474 0 l0 -107 ZM398 61 q-112 -90 -281 -160 l-32 43 q162 66 273 153 l40 -36 ZM628 99 q157 -62 286 -149 l-30 -47 q-134 96 -284 155 l28 41 Z" /><glyph glyph-name="" unicode="&#x5178;" d="M852 683 l0 -476 l99 0 l0 -52 l-905 0 l0 52 l103 0 l0 476 l213 0 l0 141 l52 0 l0 -141 l174 0 l0 141 l52 0 l0 -141 l212 0 ZM201 207 l161 0 l0 194 l-161 0 l0 -194 ZM414 207 l174 0 l0 194 l-174 0 l0 -194 ZM640 207 l160 0 l0 194 l-160 0 l0 -194 ZM201 452 l161 0 l0 180 l-161 0 l0 -180 ZM414 632 l0 -180 l174 0 l0 180 l-174 0 ZM640 632 l0 -180 l160 0 l0 180 l-160 0 ZM626 123 q173 -75 315 -180 l-30 -45 q-152 116 -313 184 l28 41 ZM407 84 q-125 -113 -320 -188 l-24 50 q187 66 310 177 l34 -39 Z" /><glyph glyph-name="" unicode="&#x517c;" d="M85 701 l240 0 q-24 54 -59 101 l51 19 q34 -51 62 -120 l228 0 q36 59 63 123 l53 -19 q-26 -60 -57 -104 l246 0 l0 -49 l-289 0 l0 -99 l208 0 l0 -155 l112 0 l0 -48 l-112 0 l0 -152 l-183 0 q94 -139 303 -217 l-25 -51 q-212 95 -303 244 l0 -278 l-52 0 l0 302 l-165 0 l0 -302 l-54 0 l0 275 q-89 -145 -277 -242 l-30 48 q197 86 286 221 l-190 0 l0 49 l211 0 l0 103 l-296 0 l0 48 l296 0 l0 106 l-200 0 l0 49 l200 0 l0 99 l-267 0 l0 49 ZM571 553 l0 99 l-165 0 l0 -99 l165 0 ZM406 504 l0 -106 l165 0 l0 106 l-165 0 ZM623 504 l0 -106 l155 0 l0 106 l-155 0 ZM406 350 l0 -103 l165 0 l0 103 l-165 0 ZM623 350 l0 -103 l155 0 l0 103 l-155 0 Z" /><glyph glyph-name="" unicode="&#x5185;" d="M494 425 q-61 -182 -244 -299 l-36 43 q173 112 230 283 q20 65 30 141 l-308 0 l0 -690 l-54 0 l0 743 l368 0 q8 86 8 171 l55 0 q0 -80 -7 -171 l353 0 l0 -641 q0 -93 -91 -93 l-156 0 l-15 54 l153 -2 q55 0 55 52 l0 577 l-305 0 q-9 -61 -21 -113 q162 -153 270 -301 l-41 -41 q-95 140 -244 287 Z" /><glyph glyph-name="" unicode="&#x518d;" d="M87 764 l827 0 l0 -52 l-387 0 l0 -121 l296 0 l0 -378 l120 0 l0 -52 l-120 0 l0 -161 q0 -94 -84 -94 l-94 0 l-14 53 l90 -3 q48 0 48 55 l0 150 l-538 0 l0 -258 l-54 0 l0 258 l-120 0 l0 52 l120 0 l0 378 l296 0 l0 121 l-386 0 l0 52 ZM231 213 l242 0 l0 143 l-242 0 l0 -143 ZM527 213 l242 0 l0 143 l-242 0 l0 -143 ZM231 405 l242 0 l0 136 l-242 0 l0 -136 ZM527 541 l0 -136 l242 0 l0 136 l-242 0 Z" /><glyph glyph-name="" unicode="&#x5192;" d="M797 396 l0 -495 l-53 0 l0 49 l-486 0 l0 -49 l-53 0 l0 495 l592 0 ZM258 -2 l486 0 l0 85 l-486 0 l0 -85 ZM258 129 l486 0 l0 85 l-486 0 l0 -85 ZM258 260 l486 0 l0 89 l-486 0 l0 -89 ZM864 772 l0 -316 l-55 0 l0 264 l-618 0 l0 -264 l-55 0 l0 316 l728 0 ZM284 644 l433 0 l0 -46 l-433 0 l0 46 ZM284 522 l433 0 l0 -45 l-433 0 l0 45 Z" /><glyph glyph-name="" unicode="&#x5199;" d="M337 502 q-17 -65 -42 -149 l541 0 q-3 -361 -50 -406 q-33 -37 -152 -39 l-88 0 l-16 51 l55 0 q36 -1 51 -1 q87 1 111 29 q29 35 35 315 l-555 0 q62 205 93 364 l53 -6 q-11 -49 -24 -106 l419 0 l0 -52 l-431 0 ZM75 164 l599 0 l0 -52 l-599 0 l0 52 ZM891 768 l0 -208 l-54 0 l0 156 l-674 0 l0 -155 l-54 0 l0 207 l782 0 Z" /><glyph glyph-name="" unicode="&#x519b;" d="M138 554 l204 0 q34 64 59 126 l52 -12 q-23 -53 -53 -114 l463 0 l0 -52 l-492 0 q-59 -102 -134 -183 l268 0 l0 128 l54 0 l0 -128 l287 0 l0 -49 l-287 0 l0 -135 l370 0 l0 -54 l-370 0 l0 -182 l-54 0 l0 182 l-434 0 l0 54 l434 0 l0 135 l-333 0 l-10 40 q83 78 151 192 l-175 0 l0 52 ZM898 770 l0 -177 l-54 0 l0 127 l-685 0 l0 -126 l-53 0 l0 176 l792 0 Z" /><glyph glyph-name="" unicode="&#x51b2;" d="M97 775 q109 -134 161 -224 l-45 -31 q-55 96 -161 227 l45 28 ZM268 343 q-69 -213 -163 -418 l-51 22 q97 206 165 416 l49 -20 ZM602 811 l54 0 l0 -179 l260 0 l0 -445 l-53 0 l0 55 l-207 0 l0 -343 l-54 0 l0 343 l-205 0 l0 -55 l-53 0 l0 445 l258 0 l0 179 ZM397 292 l205 0 l0 288 l-205 0 l0 -288 ZM656 292 l207 0 l0 288 l-207 0 l0 -288 Z" /><glyph glyph-name="" unicode="&#x51b3;" d="M361 659 l207 0 l0 155 l53 0 l0 -155 l231 0 l0 -295 l93 0 l0 -52 l-308 0 q99 -228 322 -365 l-35 -40 q-232 153 -329 390 q-69 -271 -316 -395 l-33 43 q235 111 298 367 l-225 0 l0 52 l236 0 q11 69 13 151 l0 93 l-207 0 l0 51 ZM621 608 l0 -81 q0 -86 -12 -163 l190 0 l0 244 l-178 0 ZM104 776 q103 -127 160 -225 l-45 -32 q-56 101 -160 230 l45 27 ZM275 345 q-76 -219 -171 -415 l-51 22 q98 198 174 412 l48 -19 Z" /><glyph glyph-name="" unicode="&#x51b5;" d="M365 762 l495 0 l0 -392 l-142 0 l0 -363 q0 -34 39 -34 l74 0 q35 0 50 21 q20 29 26 163 l48 -16 q-9 -154 -37 -189 q-24 -29 -77 -29 l-100 0 q-75 0 -75 74 l0 373 l-111 0 q-15 -320 -276 -467 l-29 46 q240 129 253 421 l-138 0 l0 392 ZM807 421 l0 290 l-389 0 l0 -290 l389 0 ZM102 774 q111 -123 171 -216 l-43 -30 q-64 101 -172 219 l44 27 ZM280 346 q-82 -225 -184 -422 l-49 21 q108 209 185 420 l48 -19 Z" /><glyph glyph-name="" unicode="&#x51c6;" d="M100 776 q106 -127 163 -223 l-45 -31 q-61 104 -164 226 l46 28 ZM269 326 q-69 -213 -163 -415 l-51 22 q93 195 166 412 l48 -19 ZM435 381 l0 -155 l223 0 l0 155 l-223 0 ZM435 176 l0 -168 l223 0 l0 168 l-223 0 ZM435 -43 l0 -55 l-53 0 l0 619 q-50 -85 -107 -157 l-18 56 q134 182 189 397 l52 -10 q-25 -93 -58 -170 l489 0 l0 -52 l-218 0 l0 -153 l198 0 l0 -51 l-198 0 l0 -155 l200 0 l0 -50 l-200 0 l0 -168 l240 0 l0 -51 l-516 0 ZM658 585 l-223 0 l0 -153 l223 0 l0 153 ZM667 823 q35 -91 54 -163 l-46 -17 q-28 91 -61 166 l53 14 Z" /><glyph glyph-name="" unicode="&#x51cf;" d="M433 522 l203 0 l0 -47 l-203 0 l0 47 ZM442 381 l190 0 l0 -285 l-190 0 l0 285 ZM591 140 l0 197 l-108 0 l0 -197 l108 0 ZM914 507 q-45 -209 -126 -355 q16 -66 34 -111 q36 -77 64 -79 q25 0 31 188 l44 -20 q-3 -220 -69 -222 q-51 0 -96 83 q-22 39 -41 107 q-84 -123 -195 -189 l-32 42 q127 72 209 213 q-14 54 -25 127 q-24 162 -33 334 l-304 0 l0 -282 q-5 -273 -116 -439 l-40 36 q101 143 107 403 l0 333 l350 0 q-2 46 -2 138 l51 0 q0 -69 3 -138 l115 0 q-23 57 -54 106 l45 8 q29 -51 54 -114 l50 0 l0 -51 l-208 0 q5 -133 25 -289 q6 -46 17 -108 q61 129 95 299 l47 -20 ZM96 770 q101 -126 153 -217 l-43 -30 q-58 101 -154 219 l44 28 ZM263 342 q-73 -219 -165 -415 l-50 22 q95 198 168 412 l47 -19 Z" /><glyph glyph-name="" unicode="&#x51d1;" d="M426 324 l362 0 l0 -46 l-160 0 l0 -42 q-1 -22 -5 -59 l267 0 l0 -48 l-278 0 q-18 -62 -57 -109 q-69 -76 -224 -118 l-29 45 q150 39 213 108 q27 33 42 74 l-238 0 l0 48 l250 0 q5 31 6 59 l0 42 l-149 0 l0 46 ZM96 784 q101 -126 156 -224 l-44 -31 q-58 104 -156 227 l44 28 ZM256 351 q-69 -215 -160 -420 l-50 22 q90 196 161 417 l49 -19 ZM327 733 l253 0 q4 18 8 43 l6 42 l55 -6 q-4 -31 -14 -79 l272 0 l0 -47 l-282 0 q-10 -39 -26 -84 l268 0 l0 -47 l-286 0 q-21 -46 -42 -83 l403 0 l0 -49 l-172 0 q57 -89 192 -158 l-34 -42 q-148 89 -209 200 l-211 0 q-87 -127 -223 -202 l-29 45 q114 60 190 157 l-168 0 l0 49 l202 0 q25 43 44 83 l-170 0 l0 47 l189 0 q11 30 26 84 l-242 0 l0 47 ZM658 75 q134 -54 247 -132 l-30 -45 q-118 87 -243 138 l26 39 Z" /><glyph glyph-name="" unicode="&#x2f0f;&#x51e0;" d="M54 -60 q114 114 159 243 q36 111 36 281 l0 302 l446 0 l0 -747 q0 -41 43 -41 l85 0 q24 0 43 7 q18 11 24 39 q8 45 8 194 l49 -16 q0 -106 -7 -178 q-6 -59 -35 -80 q-27 -16 -79 -16 l-88 0 q-98 0 -98 88 l0 696 l-338 0 l0 -248 q0 -186 -43 -309 q-45 -133 -164 -253 l-41 38 Z" /><glyph glyph-name="" unicode="&#x51f6;" d="M271 739 q147 -137 265 -269 q91 143 156 334 l48 -26 q-70 -202 -167 -350 q119 -135 208 -258 l-40 -41 q-91 130 -199 254 q-128 -176 -300 -268 l-31 47 q170 88 294 263 q-128 142 -271 278 l37 36 ZM101 755 l54 0 l0 -725 l690 0 l0 722 l54 0 l0 -849 l-54 0 l0 76 l-690 0 l0 -77 l-54 0 l0 853 Z" /><glyph glyph-name="" unicode="&#x51fa;" d="M782 460 l0 280 l54 0 l0 -332 l-308 0 l0 -384 l301 0 l0 279 l53 0 l0 -394 l-53 0 l0 62 l-658 0 l0 -62 l-53 0 l0 394 l53 0 l0 -279 l301 0 l0 384 l-308 0 l0 332 l54 0 l0 -280 l254 0 l0 356 l56 0 l0 -356 l254 0 Z" /><glyph glyph-name="" unicode="&#x51fb;" d="M138 660 l334 0 l0 148 l56 0 l0 -148 l329 0 l0 -51 l-329 0 l0 -184 l411 0 l0 -52 l-411 0 l0 -373 l254 0 l0 274 l51 0 l0 -373 l-51 0 l0 49 l-563 0 l0 -49 l-51 0 l0 373 l51 0 l0 -274 l253 0 l0 373 l-410 0 l0 52 l410 0 l0 184 l-334 0 l0 51 Z" /><glyph glyph-name="" unicode="&#x51fd;" d="M188 177 q159 98 302 238 l0 172 q163 83 238 133 l-529 0 l0 51 l612 0 l0 -51 q-126 -88 -270 -163 l0 -164 q126 -89 270 -214 l-31 -47 q-137 130 -239 207 l0 -188 q0 -82 -75 -82 l-90 0 l-14 52 q25 -1 41 -1 q23 -1 44 -1 q43 0 43 50 l0 184 q-130 -129 -283 -228 l-19 52 ZM844 594 l52 0 l0 -693 l-52 0 l0 60 l-688 0 l0 -59 l-52 0 l0 693 l52 0 l0 -582 l688 0 l0 581 ZM269 562 q96 -87 142 -147 l-40 -29 q-50 66 -143 151 l41 25 ZM781 549 q-58 -93 -142 -166 l-40 28 q81 69 137 160 l45 -22 Z" /><glyph glyph-name="" unicode="&#x2f11;&#x5200;" d="M116 685 l0 53 l759 0 q0 -509 -15 -629 q-18 -176 -170 -176 q-49 0 -171 3 l-13 50 q102 -3 178 -3 q107 0 123 144 q11 89 14 558 l-361 0 q-12 -527 -356 -763 l-30 47 q323 216 333 716 l-291 0 Z" /><glyph glyph-name="" unicode="&#x5206;" d="M421 767 q-71 -130 -142 -210 q-83 -92 -202 -173 l-31 48 q108 62 192 160 q79 90 137 203 l46 -28 ZM189 360 l0 51 l597 0 q-4 -183 -18 -297 q-15 -112 -48 -157 q-33 -44 -107 -47 l-187 0 l-14 52 q124 -2 175 -2 q83 0 110 73 q26 75 35 327 l-285 0 q-36 -172 -100 -270 q-73 -103 -220 -187 l-34 43 q134 74 204 166 q66 93 96 248 l-204 0 ZM640 806 q88 -232 313 -367 l-37 -42 q-231 147 -322 383 l46 26 Z" /><glyph glyph-name="" unicode="&#x5207;" d="M607 693 l-199 0 l0 53 l510 0 q0 -532 -15 -658 q-14 -163 -134 -163 q-38 0 -134 3 l-13 50 q81 -3 141 -3 q75 0 87 130 q11 93 14 588 l-203 0 l0 -105 q-6 -470 -312 -688 l-44 39 q296 202 302 649 l0 105 ZM460 531 l-238 -48 l0 -340 q97 39 190 94 l14 -50 q-113 -70 -274 -125 l-16 51 q32 14 32 41 l0 318 l-127 -25 l-8 53 l135 26 l0 274 l54 0 l0 -263 l230 46 l8 -52 Z" /><glyph glyph-name="" unicode="&#x5212;" d="M651 727 l53 0 l0 -627 l-53 0 l0 627 ZM677 -88 l-12 51 q72 -3 137 -3 q50 0 50 51 l0 800 l54 0 l0 -814 q0 -85 -85 -85 l-144 0 ZM551 533 l-297 -46 q9 -88 26 -165 q15 -69 33 -122 q95 104 161 251 l48 -25 q-76 -169 -188 -284 q17 -46 40 -86 q59 -91 105 -92 q31 6 64 169 l45 -31 q-19 -75 -42 -130 q-27 -63 -64 -63 q-66 0 -134 95 q-29 41 -54 100 q-98 -88 -221 -140 l-31 49 q130 51 230 146 q-17 48 -38 126 q-22 85 -32 194 l-138 -22 l-7 52 l140 22 q-12 125 -12 281 l54 0 q0 -157 10 -273 l293 46 l9 -52 ZM372 818 q56 -65 109 -152 l-47 -24 q-52 89 -107 154 l45 22 Z" /><glyph glyph-name="" unicode="&#x5217;" d="M678 -88 l-12 51 q66 -3 124 -3 q63 0 63 63 l0 784 l54 0 l0 -798 q0 -97 -97 -97 l-132 0 ZM639 731 l54 0 l0 -634 l-54 0 l0 634 ZM74 766 l481 0 l0 -54 l-265 0 q-10 -78 -32 -153 l244 0 l0 -48 q-80 -425 -406 -599 l-28 48 q175 94 274 258 q-75 66 -187 127 q-37 -50 -78 -89 l-26 51 q155 147 186 405 l-163 0 l0 54 ZM183 387 q108 -59 184 -123 q56 111 84 243 l-210 0 q-22 -60 -58 -120 Z" /><glyph glyph-name="" unicode="&#x5219;" d="M517 768 l0 -605 l-54 0 l0 553 l-304 0 l0 -562 l-53 0 l0 614 l411 0 ZM380 133 q110 -93 183 -186 l-40 -40 q-68 91 -181 189 l38 37 ZM285 644 l52 0 l0 -316 q-3 -176 -65 -279 q-62 -94 -203 -152 l-31 49 q136 51 193 141 q51 93 54 241 l0 316 ZM645 727 l53 0 l0 -627 l-53 0 l0 627 ZM683 -87 l-12 52 q88 -4 125 -4 q56 0 56 56 l0 794 l54 0 l0 -808 q0 -90 -91 -90 l-132 0 Z" /><glyph glyph-name="" unicode="&#x521a;" d="M375 -88 l-14 51 l104 -3 q47 0 47 53 l0 705 l-376 0 l0 -811 l-52 0 l0 863 l480 0 l0 -768 q0 -90 -82 -90 l-107 0 ZM211 586 q72 -105 121 -185 q39 114 63 249 l49 -8 q-29 -162 -79 -295 q61 -99 112 -202 l-42 -31 q-44 89 -93 176 q-58 -130 -137 -224 l-34 41 q81 99 139 236 q-61 101 -141 217 l42 26 ZM675 726 l52 0 l0 -627 l-52 0 l0 627 ZM680 -88 l-12 51 q94 -4 134 -4 q53 0 53 53 l0 799 l54 0 l0 -812 q0 -87 -88 -87 l-141 0 Z" /><glyph glyph-name="" unicode="&#x521b;" d="M439 442 l-234 0 l0 -439 q0 -33 37 -33 l204 0 q57 0 70 27 q16 36 22 120 l51 -18 q-9 -122 -37 -155 q-25 -25 -94 -25 l-234 0 q-73 0 -73 69 l0 503 l341 0 l0 -258 q0 -79 -78 -82 q-40 0 -110 4 l-14 50 l28 -1 l27 -2 q30 -1 52 -1 q42 0 42 45 l0 196 ZM351 803 q129 -138 252 -294 l-36 -37 q-131 171 -232 280 q-117 -172 -264 -309 l-32 43 q148 136 270 317 l42 0 ZM672 726 l53 0 l0 -627 l-53 0 l0 627 ZM677 -88 l-12 51 q83 -3 157 -3 q33 0 33 39 l0 812 l54 0 l0 -826 q0 -73 -68 -73 l-164 0 Z" /><glyph glyph-name="" unicode="&#x521d;" d="M577 679 l-153 0 l0 53 l487 0 q0 -514 -15 -636 q-17 -176 -159 -176 q-33 0 -111 3 l-13 50 q69 -3 117 -3 q98 0 113 144 q11 89 14 565 l-227 0 l0 -81 q-6 -475 -257 -693 l-41 36 q241 206 245 657 l0 81 ZM193 320 q-60 -69 -135 -138 l-17 54 q202 188 265 366 l-243 0 l0 50 l297 0 l0 -45 q-36 -111 -114 -219 l0 -11 q34 -24 57 -43 q55 35 107 113 l34 -34 q-47 -68 -106 -108 q45 -41 86 -86 l-29 -46 q-73 92 -149 153 l0 -425 l-53 0 l0 419 ZM196 816 q35 -70 58 -139 l-48 -18 q-28 75 -63 143 l53 14 Z" /><glyph glyph-name="" unicode="&#x5220;" d="M693 723 l49 0 l0 -624 l-49 0 l0 624 ZM703 -90 l-11 49 q80 -4 116 -4 q49 0 49 51 l0 805 l50 0 l0 -818 q0 -83 -81 -83 l-123 0 ZM50 409 l67 0 l0 363 l199 0 l0 -363 l82 0 l0 363 l196 0 l0 -363 l62 0 l0 -51 l-62 0 l0 -390 q0 -63 -60 -63 l-59 0 l-13 47 q40 -2 56 -2 q29 0 29 35 l0 373 l-102 0 l0 -28 q-2 -264 -61 -425 l-38 35 q50 151 52 387 l0 31 l-82 0 l0 -389 q0 -63 -65 -63 l-64 0 l-13 47 q44 -2 62 -2 q33 0 33 35 l0 372 l-105 0 l0 -6 q-3 -276 -78 -447 l-39 35 q67 159 70 409 l0 9 l-67 0 l0 51 ZM547 409 l0 316 l-102 0 l0 -316 l102 0 ZM269 409 l0 316 l-105 0 l0 -316 l105 0 Z" /><glyph glyph-name="" unicode="&#x5224;" d="M135 770 q40 -82 74 -201 l-49 -13 q-30 104 -72 199 l47 15 ZM531 767 q-31 -121 -81 -214 l-47 18 q46 86 80 210 l48 -14 ZM82 500 l200 0 l0 311 l52 0 l0 -311 l197 0 l0 -52 l-197 0 l0 -4 q-1 -85 -14 -165 l239 0 l0 -51 l-250 0 q-51 -206 -202 -321 l-43 36 q140 103 190 285 l-197 0 l0 51 l209 0 q14 75 16 165 l0 4 l-200 0 l0 52 ZM646 720 l54 0 l0 -620 l-54 0 l0 620 ZM685 -88 l-12 51 q66 -3 125 -3 q54 0 54 56 l0 795 l55 0 l0 -809 q0 -90 -90 -90 l-132 0 Z" /><glyph glyph-name="" unicode="&#x5229;" d="M61 539 l208 0 l0 156 q-88 -17 -190 -25 l-18 50 q242 18 414 87 l27 -45 q-89 -35 -178 -55 l0 -168 l189 0 l0 -53 l-189 0 l0 -56 q91 -81 193 -194 l-31 -48 q-94 119 -162 186 l0 -472 l-55 0 l0 486 q-73 -163 -204 -294 l-25 61 q161 146 227 331 l-206 0 l0 53 ZM607 721 l54 0 l0 -622 l-54 0 l0 622 ZM667 -88 l-12 52 q96 -4 139 -4 q51 0 51 54 l0 797 l55 0 l0 -811 q0 -88 -87 -88 l-146 0 Z" /><glyph glyph-name="" unicode="&#x522b;" d="M103 466 l0 305 l413 0 l0 -305 l-197 0 q-3 -58 -11 -137 l217 0 q0 -257 -15 -317 q-15 -96 -142 -96 q-19 0 -66 3 l-13 48 q56 -2 74 -2 q82 0 96 64 q10 41 13 249 l-171 0 q-17 -97 -42 -158 q-55 -124 -182 -215 l-34 43 q116 79 167 193 q23 52 37 137 l-186 0 l0 51 l193 0 q8 69 11 137 l-162 0 ZM642 726 l54 0 l0 -627 l-54 0 l0 627 ZM680 -88 l-12 51 q71 -3 134 -3 q50 0 50 56 l0 795 l54 0 l0 -809 q0 -90 -85 -90 l-141 0 ZM464 516 l0 205 l-309 0 l0 -205 l309 0 Z" /><glyph glyph-name="" unicode="&#x5230;" d="M563 -2 q-236 -49 -496 -80 l-13 52 q102 10 238 31 l0 209 l-202 0 l0 52 l202 0 l0 125 l54 0 l0 -125 l190 0 l0 -52 l-190 0 l0 -200 q114 19 217 42 l0 -54 ZM66 765 l493 0 l0 -52 l-262 0 q-78 -166 -150 -246 q162 16 319 41 q-32 53 -83 124 l42 26 q97 -131 155 -241 l-44 -31 q-21 41 -45 81 q-191 -33 -421 -54 l-12 49 l6 1 l6 2 q6 1 9 2 q74 65 162 246 l-175 0 l0 52 ZM680 -88 l-12 52 q96 -4 139 -4 q48 0 48 49 l0 802 l55 0 l0 -816 q0 -83 -84 -83 l-146 0 ZM649 721 l53 0 l0 -622 l-53 0 l0 622 Z" /><glyph glyph-name="" unicode="&#x5236;" d="M150 632 q-27 -60 -67 -104 l-44 31 q78 83 99 229 l52 -8 q-9 -56 -22 -97 l137 0 l0 129 l54 0 l0 -129 l194 0 l0 -51 l-194 0 l0 -146 l222 0 l0 -51 l-222 0 l0 -121 l196 0 l0 -261 q0 -81 -80 -81 l-55 0 l-14 52 l52 -3 q45 0 45 43 l0 200 l-144 0 l0 -364 l-54 0 l0 364 l-147 0 l0 -300 l-53 0 l0 350 l200 0 l0 121 l-248 0 l0 51 l248 0 l0 146 l-155 0 ZM649 721 l53 0 l0 -622 l-53 0 l0 622 ZM680 -88 l-12 51 q72 -3 139 -3 q51 0 51 52 l0 799 l54 0 l0 -813 q0 -86 -86 -86 l-146 0 Z" /><glyph glyph-name="" unicode="&#x5237;" d="M378 495 l50 0 l0 -104 l161 0 l0 -316 q0 -74 -67 -74 l-51 0 l-14 49 l49 -3 q34 0 34 39 l0 255 l-112 0 l0 -430 l-50 0 l0 430 l-108 0 l0 -346 l-49 0 l0 396 l157 0 l0 104 ZM677 726 l51 0 l0 -627 l-51 0 l0 627 ZM682 -88 l-12 51 q96 -4 139 -4 q48 0 48 53 l0 799 l54 0 l0 -812 q0 -87 -83 -87 l-146 0 ZM539 718 l-369 0 l0 -131 l369 0 l0 131 ZM170 538 l0 -114 q-1 -301 -90 -520 l-41 36 q79 190 80 484 l0 345 l471 0 l0 -231 l-420 0 Z" /><glyph glyph-name="" unicode="&#x523b;" d="M660 726 l53 0 l0 -627 l-53 0 l0 627 ZM677 -88 l-12 51 q72 -3 139 -3 q48 0 48 50 l0 801 l54 0 l0 -815 q0 -84 -83 -84 l-146 0 ZM376 87 q-130 -120 -305 -183 l-31 47 q326 113 488 426 l48 -25 q-69 -132 -163 -229 q102 -84 178 -173 l-41 -39 q-64 81 -174 176 ZM318 823 q25 -50 50 -122 l216 0 l0 -51 l-283 0 q-80 -162 -141 -229 q114 9 225 24 q39 54 69 117 l46 -25 q-142 -290 -416 -395 l-29 46 q176 66 292 206 q-105 -13 -250 -25 l-13 52 l7 3 l5 2 q56 41 149 224 l-187 0 l0 51 l254 0 q-21 55 -52 112 l58 10 Z" /><glyph glyph-name="" unicode="&#x524d;" d="M734 803 q-31 -66 -71 -119 l282 0 l0 -54 l-891 0 l0 54 l285 0 q-31 72 -69 124 l56 9 q35 -53 70 -133 l208 0 q42 62 77 138 l53 -19 ZM320 -91 l-15 53 l76 -2 q45 0 45 51 l0 113 l-244 0 l0 -223 l-53 0 l0 634 l350 0 l0 -535 q0 -91 -80 -91 l-79 0 ZM182 174 l244 0 l0 129 l-244 0 l0 -129 ZM182 352 l244 0 l0 132 l-244 0 l0 -132 ZM656 -88 l-12 51 q66 -3 124 -3 q47 0 47 50 l0 557 l54 0 l0 -571 q0 -84 -82 -84 l-131 0 ZM605 492 l54 0 l0 -433 l-54 0 l0 433 Z" /><glyph glyph-name="" unicode="&#x5269;" d="M203 523 l48 0 l0 -282 l-48 0 l0 52 q-54 -36 -126 -70 l-13 48 q81 32 139 67 l0 77 l-135 0 l0 46 l135 0 l0 62 ZM497 301 q0 -25 30 -25 l25 0 q18 0 27 6 q16 9 20 84 l41 -14 q-6 -85 -26 -104 q-16 -16 -53 -16 l-48 0 q-30 0 -46 16 q-17 16 -17 42 l0 234 l47 0 l0 -82 q66 15 120 47 l17 -45 q-59 -29 -137 -46 l0 -97 ZM596 766 q-90 -28 -216 -43 l0 -97 l233 0 l0 -48 l-233 0 l0 -349 q104 -72 229 -181 l-32 -47 q-116 113 -197 176 l0 -277 l-51 0 l0 302 q-101 -141 -247 -237 l-31 47 q179 108 278 263 l0 303 l-253 0 l0 48 l253 0 l0 92 q-100 -9 -217 -9 l-15 45 q290 2 474 55 l25 -43 ZM698 698 l49 0 l0 -599 l-49 0 l0 599 ZM733 -88 l-11 51 q64 -4 92 -4 q45 0 45 45 l0 803 l53 0 l0 -816 q0 -79 -79 -79 l-100 0 Z" /><glyph glyph-name="" unicode="&#x526a;" d="M98 145 l0 47 l765 0 q0 -180 -32 -229 q-34 -49 -117 -49 q-67 0 -112 3 l-14 51 q75 -5 124 -5 q75 3 85 59 q10 63 10 123 l-332 0 q-71 -188 -401 -236 l-23 49 q306 41 369 187 l-322 0 ZM194 459 l0 -61 l256 0 l0 61 l-256 0 ZM450 499 l0 62 l-256 0 l0 -62 l256 0 ZM194 359 l0 -114 l-53 0 l0 359 l361 0 l0 -291 q0 -67 -80 -67 l-83 0 l-12 44 l80 -2 q43 0 43 36 l0 35 l-256 0 ZM344 822 q25 -40 49 -98 l221 0 q36 48 52 98 l54 -7 q-18 -49 -53 -91 l275 0 l0 -48 l-884 0 l0 48 l283 0 q-24 51 -51 88 l54 10 ZM654 249 l-11 48 q80 -4 115 -4 q45 0 45 50 l0 280 l54 0 l0 -292 q0 -82 -82 -82 l-121 0 ZM616 596 l51 0 l0 -251 l-51 0 l0 251 Z" /><glyph glyph-name="" unicode="&#x5272;" d="M147 443 l157 0 l0 84 l-201 0 l0 45 l201 0 l0 56 l54 0 l0 -56 l199 0 l0 -45 l-199 0 l0 -84 l158 0 l0 -44 l-158 0 l0 -87 l227 0 l0 -45 l-227 0 l0 -58 l-54 0 l0 58 l-223 0 l0 45 l223 0 l0 87 l-157 0 l0 44 ZM669 720 l51 0 l0 -621 l-51 0 l0 621 ZM710 -87 l-11 51 q80 -4 115 -4 q42 0 42 48 l0 804 l54 0 l0 -817 q0 -82 -77 -82 l-123 0 ZM596 730 l0 -153 l-51 0 l0 105 l-412 0 l0 -106 l-51 0 l0 154 l220 0 q-21 45 -45 81 l54 10 q21 -36 44 -91 l241 0 ZM551 178 l0 -276 l-51 0 l0 45 l-320 0 l0 -41 l-51 0 l0 272 l422 0 ZM180 -6 l320 0 l0 137 l-320 0 l0 -137 Z" /><glyph glyph-name="" unicode="&#x2f12;&#x529b;" d="M426 812 l56 0 l0 -85 q-2 -72 -4 -110 l386 0 q-4 -253 -20 -420 q-15 -160 -49 -222 q-34 -60 -111 -66 l-131 0 l-14 52 q84 -2 119 -2 q86 0 113 112 q28 113 37 493 l-334 0 q-19 -220 -86 -370 q-87 -186 -286 -290 l-31 47 q196 105 278 288 q53 135 69 325 l-299 0 l0 53 l303 0 q2 36 4 110 l0 85 Z" /><glyph glyph-name="" unicode="&#x529e;" d="M227 437 q-54 -180 -138 -276 l-41 35 q86 97 131 260 l48 -19 ZM382 812 l54 0 l0 -183 l-1 -16 l324 0 q-4 -257 -18 -418 q-15 -160 -47 -221 q-32 -59 -106 -65 l-111 0 l-14 52 q68 -2 98 -2 q81 0 108 111 q26 111 35 490 l-271 0 q-12 -244 -79 -396 q-78 -165 -257 -260 l-31 47 q173 92 247 257 q54 141 66 352 l-254 0 l0 53 l256 0 l1 16 l0 183 ZM815 460 q76 -140 143 -302 l-49 -25 q-68 172 -142 304 l48 23 Z" /><glyph glyph-name="" unicode="&#x529f;" d="M206 659 l-152 0 l0 54 l357 0 l0 -54 l-152 0 l0 -505 q72 23 166 61 l0 -55 q-165 -66 -363 -112 l-14 54 q66 12 158 37 l0 520 ZM607 812 l54 0 l0 -191 l257 0 q0 -463 -14 -578 q-18 -130 -169 -130 q-10 0 -34 1 l-24 0 q-17 1 -29 1 l-12 51 q54 -3 93 -3 q108 0 123 98 q11 79 14 507 l-205 0 l0 -3 q-6 -454 -242 -663 l-43 38 q227 195 231 625 l0 3 l-157 0 l0 53 l157 0 l0 191 Z" /><glyph glyph-name="" unicode="&#x52a0;" d="M900 678 l0 -760 l-54 0 l0 69 l-198 0 l0 -69 l-54 0 l0 760 l306 0 ZM648 40 l198 0 l0 585 l-198 0 l0 -585 ZM225 812 l54 0 l0 -178 l210 0 q0 -477 -15 -591 q-15 -130 -149 -130 q-22 0 -75 3 l-13 49 q47 -3 82 -3 q89 0 104 99 q10 85 13 519 l-157 0 l0 -12 q-5 -458 -196 -669 l-43 38 q182 197 185 631 l0 12 l-167 0 l0 54 l167 0 l0 178 Z" /><glyph glyph-name="" unicode="&#x52a1;" d="M409 810 q-17 -40 -43 -83 l443 0 l0 -44 q-100 -116 -246 -196 q174 -78 392 -102 l-24 -51 q-239 28 -427 123 q-185 -85 -434 -124 l-25 50 q230 32 402 105 q-95 57 -174 127 q-61 -57 -135 -100 l-33 43 q184 105 249 260 l55 -8 ZM505 515 q132 67 227 161 l-403 0 l-10 -12 l-10 -12 q87 -79 196 -137 ZM504 377 q0 -62 -11 -122 l356 0 q-3 -248 -46 -295 q-44 -49 -152 -49 q-45 0 -110 3 l-14 50 q90 -4 112 -4 q100 2 125 40 q25 40 31 206 l-314 0 q-16 -48 -35 -82 q-80 -135 -352 -222 l-36 43 q246 73 330 188 q19 31 35 73 l-309 0 l0 49 l324 0 q13 62 13 122 l53 0 Z" /><glyph glyph-name="" unicode="&#x52a8;" d="M93 738 l356 0 l0 -51 l-356 0 l0 51 ZM53 469 l435 0 l0 -54 l-235 0 q-67 -247 -117 -345 q130 23 265 74 q-47 97 -83 159 l46 22 q73 -129 139 -281 l-48 -24 l-9 21 l-8 20 q-10 23 -17 38 q-158 -56 -348 -91 l-13 51 q10 4 11 5 q48 63 129 351 l-147 0 l0 54 ZM649 812 l54 0 l0 -186 l220 0 q0 -481 -14 -599 q-12 -114 -125 -114 q-27 0 -95 3 l-13 47 q80 -2 103 -2 q66 0 78 82 q10 87 13 531 l-167 0 l0 -14 q-4 -450 -213 -660 l-43 38 q199 194 202 622 l0 14 l-132 0 l0 52 l132 0 l0 186 Z" /><glyph glyph-name="" unicode="&#x52a9;" d="M446 755 l0 -622 l36 12 q21 6 34 11 l0 -52 q-191 -67 -452 -126 l-14 52 l69 15 l0 710 l327 0 ZM173 57 q108 25 219 59 l0 148 l-219 0 l0 -207 ZM173 314 l219 0 l0 172 l-219 0 l0 -172 ZM173 535 l219 0 l0 169 l-219 0 l0 -169 ZM637 810 l54 0 l0 -190 l226 0 q0 -464 -14 -579 q-17 -128 -161 -128 q-20 0 -71 3 l-13 47 q60 -2 79 -2 q98 0 113 97 q11 79 14 510 l-173 0 l0 -2 q-4 -456 -213 -666 l-43 37 q199 196 202 629 l0 2 l-128 0 l0 52 l128 0 l0 190 Z" /><glyph glyph-name="" unicode="&#x52bf;" d="M75 708 l147 0 l0 105 l54 0 l0 -105 l126 0 l0 -51 l-126 0 l0 -118 l66 12 q36 7 64 14 l0 -50 q-60 -14 -130 -27 l0 -128 q0 -71 -73 -71 l-93 0 l-11 50 q45 -3 85 -3 q38 0 38 37 l0 105 q-48 -8 -148 -22 l-13 51 q58 6 161 22 l0 128 l-147 0 l0 51 ZM457 570 q43 -18 96 -46 q20 58 25 133 l-124 0 l0 51 l125 0 l0 106 l53 0 l0 -106 l185 0 l0 -183 q0 -179 55 -179 q31 1 46 130 l43 -23 q-9 -82 -34 -128 q-24 -32 -56 -32 q-45 0 -74 47 q-29 52 -29 185 l0 132 l-137 0 q-6 -90 -31 -159 q65 -37 119 -78 l-28 -43 q-62 47 -111 76 q-47 -88 -129 -143 l-41 37 q82 51 124 133 q-55 30 -104 50 l27 40 ZM509 299 q-6 -36 -15 -74 l364 0 q0 -200 -35 -258 q-37 -55 -130 -55 q-59 0 -98 3 l-15 52 q67 -5 110 -5 q89 3 101 68 q12 66 12 143 l-326 0 q-31 -77 -87 -130 q-98 -89 -308 -136 l-21 50 q197 42 286 120 q45 41 72 96 l-335 0 l0 52 l355 0 q10 33 16 74 l54 0 Z" /><glyph glyph-name="" unicode="&#x52d2;" d="M643 811 l54 0 l0 -211 l213 0 q0 -465 -17 -575 q-16 -111 -132 -111 q-24 0 -84 3 l-14 52 q51 -3 89 -3 q75 0 87 72 q16 90 17 507 l-160 0 q-9 -439 -198 -645 l-43 38 q179 191 187 607 l-124 0 l0 55 l125 0 l0 211 ZM54 715 l86 0 l0 96 l52 0 l0 -96 l179 0 l0 96 l51 0 l0 -96 l82 0 l0 -50 l-82 0 l0 -138 l-114 0 l0 -84 l164 0 l0 -229 l-163 0 l0 -94 l188 0 l0 -49 l-188 0 l0 -169 l-54 0 l0 169 l-207 0 l0 49 l207 0 l0 94 l-164 0 l0 229 l165 0 l0 84 l-116 0 l0 138 l-86 0 l0 50 ZM192 665 l0 -95 l179 0 l0 95 l-179 0 ZM422 259 l0 139 l-116 0 l0 -139 l116 0 ZM258 259 l0 139 l-116 0 l0 -139 l116 0 Z" /><glyph glyph-name="" unicode="&#x52fe;" d="M556 404 q102 -171 160 -301 l-45 -31 q-18 45 -41 91 q-195 -43 -435 -66 l-9 50 q89 65 209 379 l51 -17 q-90 -232 -179 -355 q183 18 339 57 q-35 69 -92 166 l42 27 ZM364 809 q-22 -81 -50 -142 l573 0 q0 -486 -15 -602 q-18 -158 -189 -158 q-8 0 -116 2 l-13 49 q72 -3 123 -3 q122 0 142 128 q11 86 13 531 l-544 0 q-70 -130 -173 -212 l-36 43 q170 139 229 374 l56 -10 Z" /><glyph glyph-name="" unicode="&#x5305;" d="M627 505 l0 -289 l-365 0 l0 -203 q0 -46 50 -47 l490 0 q38 2 54 34 q11 27 19 127 l51 -17 q-8 -95 -22 -134 q-24 -59 -88 -60 l-522 0 q-86 0 -86 80 l0 509 l419 0 ZM262 266 l311 0 l0 189 l-311 0 l0 -189 ZM355 812 q-24 -57 -51 -111 l566 0 q0 -369 -15 -456 q-12 -97 -112 -97 q-17 0 -62 3 l-13 48 q41 -3 70 -3 q55 0 64 66 q11 62 14 388 l-540 0 q-76 -127 -173 -220 l-38 45 q147 137 235 350 l55 -13 Z" /><glyph glyph-name="" unicode="&#x5316;" d="M404 794 q-54 -126 -133 -232 l0 -662 l-54 0 l0 595 q-71 -80 -158 -152 l-17 56 q215 183 311 418 l51 -23 ZM616 -81 q-96 0 -96 94 l0 324 q-73 -42 -142 -75 l-26 52 q85 37 168 86 l0 410 l54 0 l0 -376 q165 108 289 250 l37 -42 q-138 -155 -326 -272 l0 -349 q0 -50 55 -50 l170 0 q42 0 62 25 q19 26 25 184 l50 -16 q-9 -173 -34 -210 q-27 -35 -94 -35 l-192 0 Z" /><glyph glyph-name="" unicode="&#x5339;" d="M172 700 l0 -707 l763 0 l0 -54 l-817 0 l0 815 l801 0 l0 -54 l-247 0 l0 -431 q0 -42 46 -42 l90 0 q34 0 48 20 q19 29 25 152 l51 -17 q-9 -145 -37 -179 q-24 -27 -77 -27 l-116 0 q-83 0 -83 82 l0 442 l-160 0 q-12 -407 -207 -563 l-44 34 q189 140 198 529 l-234 0 Z" /><glyph glyph-name="" unicode="&#x533a;" d="M319 609 q134 -100 265 -217 q92 115 157 265 l49 -26 q-70 -159 -165 -276 q126 -115 224 -225 l-41 -41 q-93 109 -218 225 q-135 -149 -313 -225 l-31 49 q174 72 303 213 q-134 118 -269 221 l39 37 ZM126 772 l787 0 l0 -52 l-734 0 l0 -723 l762 0 l0 -52 l-815 0 l0 827 Z" /><glyph glyph-name="" unicode="&#x2f17;&#x5341;" d="M476 813 l54 0 l0 -333 l413 0 l0 -54 l-413 0 l0 -523 l-54 0 l0 523 l-416 0 l0 54 l416 0 l0 333 Z" /><glyph glyph-name="" unicode="&#x5347;" d="M550 760 q-85 -37 -188 -65 l0 -266 l288 0 l0 376 l54 0 l0 -376 l237 0 l0 -54 l-237 0 l0 -472 l-54 0 l0 472 l-289 0 q-15 -321 -245 -472 l-41 36 q218 138 232 436 l-249 0 l0 54 l250 0 l0 253 q-106 -23 -213 -32 l-17 50 q259 22 445 105 l27 -45 Z" /><glyph glyph-name="" unicode="&#x534a;" d="M201 775 q78 -97 144 -213 l-50 -25 q-68 121 -143 214 l49 24 ZM126 481 l347 0 l0 337 l54 0 l0 -337 l340 0 l0 -54 l-340 0 l0 -196 l412 0 l0 -53 l-412 0 l0 -280 l-54 0 l0 280 l-412 0 l0 53 l412 0 l0 196 l-347 0 l0 54 ZM835 751 q-51 -113 -129 -217 l-48 25 q79 105 130 215 l47 -23 Z" /><glyph glyph-name="" unicode="&#x534e;" d="M70 213 l402 0 l0 104 l54 0 l0 -104 l405 0 l0 -54 l-405 0 l0 -258 l-54 0 l0 258 l-402 0 l0 54 ZM619 339 q-83 0 -83 79 l0 93 q-82 -36 -159 -62 l-32 45 q109 37 191 73 l0 234 l53 0 l0 -209 q162 80 267 175 l37 -39 q-126 -107 -304 -193 l0 -105 q0 -41 45 -41 l158 0 q42 0 61 16 q23 20 32 125 l51 -17 q-12 -122 -44 -151 q-28 -23 -89 -23 l-184 0 ZM214 580 q-63 -58 -141 -111 l-16 56 q190 128 274 291 l47 -22 q-47 -87 -110 -159 l0 -334 l-54 0 l0 279 Z" /><glyph glyph-name="" unicode="&#x534f;" d="M57 595 l115 0 l0 212 l54 0 l0 -212 l121 0 l0 -54 l-121 0 l0 -639 l-54 0 l0 639 l-115 0 l0 54 ZM871 431 q57 -116 94 -235 l-42 -19 q-44 138 -94 241 l42 13 ZM558 806 l54 0 l0 -177 l203 0 q0 -484 -15 -600 q-12 -115 -118 -115 q-26 0 -91 3 l-13 49 q56 -3 98 -3 q63 0 73 84 q9 90 12 528 l-149 0 l0 -25 q-6 -442 -238 -646 l-41 36 q222 191 225 610 l0 25 l-175 0 l0 54 l175 0 l0 177 ZM450 426 q-45 -179 -126 -277 l-38 35 q81 98 120 253 l44 -11 Z" /><glyph glyph-name="" unicode="&#x5353;" d="M456 814 l53 0 l0 -79 l373 0 l0 -47 l-373 0 l0 -86 l309 0 l0 -359 l-292 0 l0 -102 l399 0 l0 -52 l-399 0 l0 -188 l-54 0 l0 188 l-400 0 l0 52 l400 0 l0 102 l-277 0 l0 359 l261 0 l0 212 ZM764 291 l0 109 l-516 0 l0 -109 l516 0 ZM248 446 l516 0 l0 108 l-516 0 l0 -108 Z" /><glyph glyph-name="" unicode="&#x5355;" d="M172 655 l415 0 q49 79 83 165 l52 -18 q-37 -87 -80 -147 l187 0 l0 -404 l-301 0 l0 -102 l414 0 l0 -52 l-414 0 l0 -197 l-55 0 l0 197 l-415 0 l0 52 l415 0 l0 102 l-301 0 l0 404 ZM776 301 l0 127 l-248 0 l0 -127 l248 0 ZM473 301 l0 127 l-247 0 l0 -127 l247 0 ZM226 477 l247 0 l0 129 l-247 0 l0 -129 ZM528 606 l0 -129 l248 0 l0 129 l-248 0 ZM316 815 q51 -59 97 -135 l-46 -23 q-45 75 -98 135 l47 23 Z" /><glyph glyph-name="" unicode="&#x5357;" d="M58 712 l418 0 l12 107 l55 -8 l-3 -26 l-2 -25 q-4 -30 -6 -48 l410 0 l0 -52 l-418 0 q-11 -64 -21 -113 l383 0 l0 -554 q0 -83 -81 -83 l-100 0 l-15 53 l97 -2 q45 0 45 44 l0 490 l-663 0 l0 -592 l-53 0 l0 644 l332 0 q13 60 21 113 l-411 0 l0 52 ZM379 453 q34 -55 62 -131 l114 0 q37 61 67 137 l49 -18 q-30 -69 -64 -119 l128 0 l0 -49 l-208 0 l0 -120 l239 0 l0 -48 l-239 0 l0 -187 l-54 0 l0 187 l-238 0 l0 48 l238 0 l0 120 l-205 0 l0 49 l120 0 q-24 63 -58 113 l49 18 Z" /><glyph glyph-name="" unicode="&#x535a;" d="M443 440 l0 -75 l177 0 l0 75 l-177 0 ZM671 440 l0 -75 l178 0 l0 75 l-178 0 ZM849 481 l0 77 l-178 0 l0 -77 l178 0 ZM620 481 l0 77 l-177 0 l0 -77 l177 0 ZM443 324 l0 -97 l-51 0 l0 374 l228 0 l0 80 l-264 0 l0 47 l264 0 l0 86 l51 0 l0 -86 l138 0 q-23 51 -44 85 l48 8 q21 -40 42 -93 l83 0 l0 -47 l-267 0 l0 -80 l229 0 l0 -374 l-51 0 l0 97 l-178 0 l0 -88 l-51 0 l0 88 l-177 0 ZM331 173 l437 0 l0 63 l52 0 l0 -63 l122 0 l0 -48 l-122 0 l0 -154 q0 -67 -70 -67 l-106 0 l-11 50 q68 -4 99 -4 q36 0 36 34 l0 141 l-437 0 l0 48 ZM59 563 l111 0 l0 250 l53 0 l0 -250 l110 0 l0 -54 l-110 0 l0 -606 l-53 0 l0 606 l-111 0 l0 54 ZM454 108 q92 -64 152 -126 l-35 -34 q-60 63 -151 128 l34 32 Z" /><glyph glyph-name="" unicode="&#x5360;" d="M439 815 l54 0 l0 -170 l432 0 l0 -52 l-432 0 l0 -210 l344 0 l0 -480 l-53 0 l0 72 l-566 0 l0 -73 l-53 0 l0 481 l274 0 l0 432 ZM218 26 l566 0 l0 305 l-566 0 l0 -305 Z" /><glyph glyph-name="" unicode="&#x5361;" d="M424 812 l54 0 l0 -133 l333 0 l0 -52 l-333 0 l0 -167 l463 0 l0 -53 l-463 0 l0 -108 q168 -79 364 -196 l-31 -46 q-200 124 -333 188 l0 -342 l-54 0 l0 504 l-366 0 l0 53 l366 0 l0 352 Z" /><glyph glyph-name="" unicode="&#x5370;" d="M172 396 l0 -313 q123 24 291 70 l14 -49 q-172 -48 -361 -85 l-23 45 q25 14 25 38 l0 627 q186 33 338 84 l33 -43 q-139 -48 -317 -81 l0 -240 l297 0 l0 -53 l-297 0 ZM723 37 l-15 53 l96 -2 q48 0 48 46 l0 567 l-251 0 l0 -800 l-54 0 l0 852 l360 0 l0 -631 q0 -85 -85 -85 l-99 0 Z" /><glyph glyph-name="" unicode="&#x5373;" d="M159 524 l0 -156 l260 0 l0 156 l-260 0 ZM419 573 l0 148 l-260 0 l0 -148 l260 0 ZM79 -15 q27 9 27 32 l0 754 l364 0 l0 -454 l-311 0 l0 -312 q154 44 259 88 q-31 55 -72 118 l42 26 q96 -147 147 -258 l-43 -30 q-16 37 -49 99 q-153 -66 -346 -113 l-18 50 ZM737 42 l-14 53 l94 -3 q41 0 41 42 l0 585 l-205 0 l0 -814 l-54 0 l0 865 l312 0 l0 -648 q0 -80 -76 -80 l-98 0 Z" /><glyph glyph-name="" unicode="&#x5374;" d="M70 667 l198 0 l0 150 l54 0 l0 -150 l190 0 l0 -53 l-190 0 l0 -183 l221 0 l0 -54 l-255 0 q-86 -239 -152 -337 q143 20 297 64 q-35 96 -66 166 l49 17 q72 -160 121 -325 l-50 -23 q-8 27 -18 60 l-10 28 l-9 28 q-181 -49 -384 -77 l-13 50 q8 3 12 6 q63 62 169 343 l-190 0 l0 54 l224 0 l0 183 l-198 0 l0 53 ZM740 27 l-15 53 l75 -2 q52 0 52 55 l0 571 l-193 0 l0 -799 l-54 0 l0 851 l301 0 l0 -635 q0 -94 -89 -94 l-77 0 Z" /><glyph glyph-name="" unicode="&#x5375;" d="M247 580 q55 -91 92 -185 l-44 -19 q-42 107 -93 189 l45 15 ZM694 544 q66 -112 119 -252 l-46 -20 q-54 147 -120 257 l47 15 ZM390 638 l52 0 l0 -257 q-3 -194 -87 -308 q-82 -109 -267 -169 l-28 43 q181 58 258 161 q41 62 59 150 q-126 -55 -280 -108 l-14 50 q31 12 31 40 l0 472 q227 47 346 102 l31 -43 q-119 -56 -327 -100 l0 -445 q108 37 222 86 q2 23 4 69 l0 257 ZM700 75 l-15 52 l115 -3 q55 0 55 52 l0 514 l-230 0 l0 -783 l-53 0 l0 834 l336 0 l0 -576 q0 -90 -91 -90 l-117 0 Z" /><glyph glyph-name="" unicode="&#x5378;" d="M188 658 q-36 -73 -83 -124 l-40 34 q86 92 131 251 l47 -19 q-13 -42 -32 -90 l310 0 l0 -52 l-166 0 l0 -177 l186 0 l0 -52 l-186 0 l0 -135 l162 0 l0 -52 l-162 0 l0 -186 q125 27 195 44 l0 -50 q-223 -57 -483 -96 l-13 55 q46 6 73 10 l0 312 l51 0 l0 -305 q79 11 123 19 l0 384 l-239 0 l0 52 l239 0 l0 177 l-113 0 ZM729 27 l-14 53 l80 -2 q46 0 46 56 l0 539 l-183 0 l0 -765 l-54 0 l0 817 l291 0 l0 -603 q0 -95 -82 -95 l-84 0 Z" /><glyph glyph-name="" unicode="&#x5386;" d="M928 762 l0 -54 l-738 0 l0 -306 q-6 -314 -107 -498 l-42 37 q91 167 94 461 l0 360 l793 0 ZM879 465 q-3 -395 -37 -472 q-36 -78 -126 -78 q-49 0 -118 3 l-15 50 q72 -1 120 -3 q79 3 98 75 q21 72 24 376 l-249 0 q-18 -169 -75 -283 q-76 -145 -252 -229 l-30 48 q169 80 242 223 q46 105 61 241 l-243 0 l0 49 l247 0 q2 28 4 88 l0 97 l53 0 l0 -97 q0 -46 -3 -88 l299 0 Z" /><glyph glyph-name="" unicode="&#x5389;" d="M265 557 l645 0 l0 -52 l-397 0 l0 -144 l-1 -21 l333 0 q-1 -307 -27 -369 q-27 -60 -92 -60 q-45 0 -111 3 l-14 50 q29 -1 63 -2 q9 -1 26 -1 l24 -1 q49 3 61 56 q13 49 16 274 l-284 0 q-32 -261 -220 -393 l-41 36 q212 140 215 449 l0 123 l-196 0 l0 52 ZM922 751 l0 -54 l-732 0 l0 -281 q-6 -320 -105 -512 l-41 37 q88 173 91 475 l0 335 l787 0 Z" /><glyph glyph-name="" unicode="&#x538b;" d="M266 426 l283 0 l0 215 l54 0 l0 -215 l293 0 l0 -53 l-293 0 l0 -371 l349 0 l0 -53 l-740 0 l0 53 l337 0 l0 371 l-283 0 l0 53 ZM736 305 q91 -120 144 -217 l-43 -31 q-52 101 -144 222 l43 26 ZM927 767 l0 -52 l-737 0 l0 -258 q-6 -348 -111 -558 l-42 37 q93 187 99 521 l0 310 l791 0 Z" /><glyph glyph-name="" unicode="&#x539f;" d="M306 608 l213 0 q19 53 26 107 l-364 0 l0 -340 q-4 -291 -95 -471 l-41 37 q77 155 82 434 l0 393 l804 0 l0 -53 l-332 0 q-9 -55 -27 -107 l283 0 l0 -371 l-238 0 l0 -263 q0 -68 -70 -68 l-101 0 l-12 52 q66 -4 94 -4 q34 0 34 33 l0 250 l-256 0 l0 371 ZM802 287 l0 113 l-443 0 l0 -113 l443 0 ZM359 447 l443 0 l0 112 l-443 0 l0 -112 ZM431 156 q-71 -129 -163 -220 l-44 32 q94 91 159 212 l48 -24 ZM770 180 q108 -125 164 -216 l-45 -32 q-61 104 -163 220 l44 28 Z" /><glyph glyph-name="" unicode="&#x53bb;" d="M667 276 q156 -204 235 -348 l-46 -32 q-21 41 -53 93 q-328 -36 -665 -59 l-9 46 q131 71 271 358 l-342 0 l0 54 l415 0 l0 206 l-353 0 l0 53 l353 0 l0 166 l54 0 l0 -166 l351 0 l0 -53 l-351 0 l0 -206 l414 0 l0 -54 l-481 0 q-114 -241 -233 -351 q404 32 547 51 q-64 100 -150 214 l43 28 Z" /><glyph glyph-name="" unicode="&#x53c2;" d="M65 509 l337 0 q33 45 51 93 q-99 -4 -282 -10 l-9 48 q109 34 248 176 l53 -18 q-96 -100 -193 -158 q243 8 429 22 l-26 23 l-26 23 q-30 26 -55 46 l42 27 q150 -120 228 -208 l-45 -30 q-29 33 -72 76 q-139 -9 -236 -14 q-17 -49 -47 -96 l465 0 l0 -50 l-263 0 q93 -103 293 -162 l-24 -50 q-233 82 -326 212 l-182 0 q-117 -135 -355 -218 l-24 48 q208 63 313 170 l-294 0 l0 50 ZM553 385 q-102 -125 -311 -198 l-25 44 q199 67 292 180 l44 -26 ZM815 236 q-137 -247 -595 -344 l-32 43 q456 99 580 323 l47 -22 ZM680 301 q-173 -199 -444 -248 l-31 43 q277 45 432 233 l43 -28 Z" /><glyph glyph-name="" unicode="&#x2f1c;&#x53c8;" d="M124 696 l0 53 l703 0 l0 -50 q-88 -299 -289 -503 q77 -68 170 -125 q110 -65 239 -114 l-31 -49 q-137 53 -255 127 q-90 57 -162 123 q-166 -152 -395 -246 l-32 50 q228 93 387 234 q-10 9 -18 18 q-92 98 -158 224 q-63 116 -87 258 l-72 0 ZM499 234 q191 191 269 462 l-518 0 q25 -146 93 -260 q70 -119 156 -202 Z" /><glyph glyph-name="" unicode="&#x53c9;" d="M124 747 l714 0 l0 -50 q-66 -299 -291 -509 q73 -64 157 -114 q114 -65 242 -113 l-31 -49 q-136 50 -257 126 q-84 52 -152 113 q-165 -141 -402 -240 l-32 50 q232 95 392 228 l-27 27 q-91 95 -160 223 q-62 115 -86 256 l-67 0 l0 52 ZM244 695 q27 -144 94 -257 q70 -119 159 -205 l8 -8 q215 198 275 470 l-536 0 ZM420 630 q105 -92 178 -186 l-36 -36 q-65 91 -175 189 l33 33 Z" /><glyph glyph-name="" unicode="&#x53ca;" d="M307 711 l-180 0 l0 54 l583 0 l0 -35 q-25 -127 -55 -236 l203 0 l0 -33 q-42 -206 -196 -350 q119 -92 280 -163 l-36 -47 q-164 74 -286 173 q-132 -107 -331 -176 l-31 50 q192 66 319 163 q-158 143 -226 333 q-43 -357 -262 -538 l-42 36 q255 209 260 668 l0 101 ZM619 146 q137 125 182 297 l-214 0 q29 88 64 268 l-290 0 l0 -119 l-1 -19 q53 -251 259 -427 Z" /><glyph glyph-name="" unicode="&#x53cb;" d="M76 671 l283 0 q11 85 17 143 l54 0 l-4 -37 l-4 -36 q-5 -44 -9 -70 l524 0 l0 -54 l-532 0 q-17 -99 -31 -165 l461 0 l0 -48 q-62 -170 -199 -294 q128 -103 318 -155 l-28 -48 q-198 59 -331 169 q-137 -106 -329 -172 l-27 51 q189 62 316 157 q-124 120 -178 289 l-15 0 q-19 -78 -42 -138 q-77 -192 -233 -350 l-35 44 q144 147 216 324 q52 137 83 336 l-275 0 l0 54 ZM426 401 q56 -151 170 -256 q125 108 182 256 l-352 0 Z" /><glyph glyph-name="" unicode="&#x53cc;" d="M120 595 q100 -117 184 -235 q56 155 68 336 l-298 0 l0 53 l351 0 l0 -42 q-12 -225 -83 -402 q68 -97 130 -206 l-42 -41 q-48 87 -114 188 q-85 -178 -235 -310 l-36 43 q155 137 235 320 q-93 133 -198 259 l38 37 ZM496 749 l403 0 l0 -49 q-35 -251 -168 -467 q89 -148 223 -280 l-38 -45 q-134 137 -217 275 q-97 -142 -241 -273 l-37 44 q152 134 248 280 q-124 225 -137 462 l-36 0 l0 53 ZM582 696 q12 -211 119 -410 q113 195 145 410 l-264 0 Z" /><glyph glyph-name="" unicode="&#x53cd;" d="M241 456 l0 -27 q-9 -327 -152 -523 l-39 41 q127 175 137 482 l0 312 q373 5 670 61 l26 -47 q-291 -55 -642 -61 l0 -186 l608 0 l0 -49 q-64 -201 -224 -340 q132 -98 329 -172 l-30 -47 q-205 83 -338 186 q-142 -112 -348 -185 l-30 46 q198 70 336 173 q-171 147 -228 336 l-75 0 ZM583 151 q150 130 210 305 l-425 0 q55 -172 215 -305 Z" /><glyph glyph-name="" unicode="&#x53d1;" d="M126 519 l79 266 l54 -8 l-63 -207 l196 0 q32 121 51 254 l55 -6 q-23 -143 -50 -248 l475 0 l0 -51 l-489 0 q-23 -77 -44 -131 l415 0 l0 -47 q-42 -133 -174 -243 q127 -80 311 -144 l-27 -50 q-202 74 -328 160 q-124 -89 -315 -163 l-28 50 q178 65 297 146 q-131 100 -182 217 q-112 -249 -287 -393 l-28 50 q230 200 334 548 l-252 0 ZM402 338 q51 -115 183 -209 q121 96 165 209 l-348 0 ZM666 810 q111 -86 182 -169 l-39 -39 q-67 84 -180 173 l37 35 Z" /><glyph glyph-name="" unicode="&#x53d6;" d="M58 770 l474 0 l0 -51 l-85 0 l0 -581 q68 18 100 26 l0 -54 l-50 -12 l-50 -13 l0 -187 l-54 0 l0 174 q-156 -34 -329 -60 l-13 53 l89 12 l0 642 l-82 0 l0 51 ZM194 86 q99 18 199 39 l0 153 l-199 0 l0 -192 ZM194 327 l199 0 l0 169 l-199 0 l0 -169 ZM194 546 l199 0 l0 173 l-199 0 l0 -173 ZM626 665 q20 -234 116 -427 q91 181 121 427 l-237 0 ZM714 186 q-116 220 -137 479 l-36 0 l0 52 l372 0 l0 -50 q-33 -283 -140 -485 q76 -131 185 -237 l-36 -42 q-104 105 -178 229 q-84 -137 -203 -230 l-35 42 q125 99 208 242 Z" /><glyph glyph-name="" unicode="&#x53d7;" d="M888 759 q-297 -49 -772 -49 l-16 49 q468 2 762 46 l26 -46 ZM911 502 l0 -218 l-54 0 l0 166 l-714 0 l0 -166 l-54 0 l0 218 l566 0 q65 93 107 193 l54 -20 q-49 -100 -104 -173 l199 0 ZM216 674 q56 -69 98 -137 l-48 -23 q-46 76 -98 137 l48 23 ZM452 688 q50 -64 94 -142 l-48 -24 q-45 81 -94 142 l48 24 ZM204 336 l582 0 l0 -47 q-71 -127 -223 -218 q149 -73 378 -122 l-31 -48 q-243 55 -401 140 q-167 -86 -418 -139 l-28 50 q233 44 394 119 q-148 93 -207 215 l-46 0 l0 50 ZM304 286 q64 -107 206 -187 q146 81 216 187 l-422 0 Z" /><glyph glyph-name="" unicode="&#x53d8;" d="M754 599 q117 -74 199 -152 l-37 -37 q-77 75 -198 154 l36 35 ZM499 828 q24 -55 40 -108 l389 0 l0 -52 l-283 0 l0 -278 l-54 0 l0 278 l-181 0 l0 -279 l-54 0 l0 279 l-284 0 l0 52 l413 0 q-22 56 -45 98 l59 10 ZM286 561 q-83 -91 -205 -156 l-32 42 q116 64 198 149 l39 -35 ZM140 329 l676 0 l0 -42 q-104 -131 -257 -218 q165 -79 399 -112 l-26 -49 q-250 42 -426 132 q-182 -90 -424 -132 l-26 51 q224 33 395 112 q-143 87 -229 209 l-82 0 l0 49 ZM281 280 q87 -108 222 -183 q141 75 240 183 l-462 0 Z" /><glyph glyph-name="" unicode="&#x2f1d;&#x53e3;" d="M856 690 l0 -771 l-55 0 l0 68 l-601 0 l0 -68 l-55 0 l0 771 l711 0 ZM200 40 l601 0 l0 597 l-601 0 l0 -597 Z" /><glyph glyph-name="" unicode="&#x53e5;" d="M225 473 l385 0 l0 -358 l-385 0 l0 358 ZM556 165 l0 258 l-277 0 l0 -258 l277 0 ZM337 810 q-17 -58 -44 -121 l586 0 q-6 -436 -9 -519 q-9 -156 -44 -208 q-38 -55 -137 -55 q-15 0 -40 -1 l-23 0 l-26 -1 l-15 52 l46 0 l46 -1 q70 0 103 42 q34 45 40 209 q0 28 1 62 q1 43 1 93 q2 126 3 274 l-559 0 q-71 -130 -187 -228 l-35 45 q176 149 239 364 l54 -7 Z" /><glyph glyph-name="" unicode="&#x53e6;" d="M212 768 l610 0 l0 -328 l-295 0 q-9 -74 -27 -139 l389 0 q0 -249 -39 -318 q-39 -68 -143 -68 q-73 0 -121 3 l-14 52 q80 -5 132 -5 q101 3 116 92 q14 92 14 192 l-351 0 q-30 -86 -78 -149 q-103 -128 -325 -196 l-22 49 q211 65 304 182 q38 50 64 114 l-320 0 l0 52 l338 0 q20 71 28 139 l-260 0 l0 328 ZM767 489 l0 229 l-501 0 l0 -229 l501 0 Z" /><glyph glyph-name="" unicode="&#x53ea;" d="M186 752 l628 0 l0 -438 l-628 0 l0 438 ZM760 365 l0 335 l-520 0 l0 -335 l520 0 ZM673 250 q172 -186 260 -319 l-46 -32 q-93 147 -258 324 l44 27 ZM373 227 q-109 -191 -253 -329 l-47 35 q147 132 253 317 l47 -23 Z" /><glyph glyph-name="" unicode="&#x53eb;" d="M823 811 l53 0 l0 -908 l-53 0 l0 273 q-149 -49 -317 -87 l-16 49 q27 9 27 28 l0 574 l56 0 l0 -580 q134 32 250 71 l0 580 ZM366 726 l0 -707 l-54 0 l0 55 l-171 0 l0 -76 l-54 0 l0 728 l279 0 ZM141 126 l171 0 l0 548 l-171 0 l0 -548 Z" /><glyph glyph-name="" unicode="&#x53ef;" d="M58 750 l887 0 l0 -53 l-136 0 l0 -694 q0 -93 -92 -93 l-165 0 l-12 52 q110 -4 158 -4 q56 0 56 59 l0 680 l-696 0 l0 53 ZM553 527 l0 -354 l-322 0 l0 -91 l-52 0 l0 445 l374 0 ZM231 223 l270 0 l0 255 l-270 0 l0 -255 Z" /><glyph glyph-name="" unicode="&#x53f0;" d="M828 311 l0 -410 l-54 0 l0 57 l-548 0 l0 -57 l-54 0 l0 410 l656 0 ZM226 11 l548 0 l0 248 l-548 0 l0 -248 ZM86 474 q146 60 335 342 l55 -19 q-146 -212 -289 -321 q325 14 587 40 q-66 90 -132 165 l50 24 q138 -160 247 -332 l-52 -26 q-29 48 -79 121 q-318 -30 -712 -45 l-10 51 Z" /><glyph glyph-name="" unicode="&#x53f2;" d="M150 682 l332 0 l0 131 l54 0 l0 -131 l323 0 l0 -331 l-327 0 q-15 -157 -90 -253 q216 -123 510 -138 l-14 -54 q-307 16 -533 152 q-111 -103 -316 -156 l-31 49 q192 48 298 139 q-102 71 -186 165 l44 31 q82 -93 180 -158 q69 81 84 223 l-328 0 l0 331 ZM805 403 l0 226 l-269 0 l0 -213 l-1 -13 l270 0 ZM481 403 l1 15 l0 211 l-278 0 l0 -226 l277 0 Z" /><glyph glyph-name="" unicode="&#x53f3;" d="M844 373 l0 -472 l-53 0 l0 58 l-433 0 l0 -58 l-54 0 l0 429 q-98 -131 -234 -215 l-28 49 q245 161 351 447 l-321 0 l0 53 l339 0 q24 81 38 155 l55 -6 q-13 -70 -37 -149 l475 0 l0 -53 l-492 0 q-47 -133 -116 -238 l510 0 ZM358 12 l433 0 l0 309 l-433 0 l0 -309 Z" /><glyph glyph-name="" unicode="&#x53f7;" d="M217 775 l566 0 l0 -257 l-566 0 l0 257 ZM729 567 l0 158 l-458 0 l0 -158 l458 0 ZM55 364 l0 53 l889 0 l0 -53 l-599 0 l-38 -132 l493 0 q-10 -231 -44 -278 q-35 -43 -133 -43 q-54 0 -134 4 l-19 50 q90 -5 141 -5 q82 0 104 37 q20 37 29 185 l-501 0 l46 182 l-234 0 Z" /><glyph glyph-name="" unicode="&#x53f8;" d="M155 384 l428 0 l0 -296 l-428 0 l0 296 ZM531 138 l0 196 l-324 0 l0 -196 l324 0 ZM625 -91 l-14 52 l139 -2 q53 0 53 65 l0 690 l-687 0 l0 52 l741 0 l0 -756 q0 -101 -96 -101 l-136 0 ZM85 571 l601 0 l0 -51 l-601 0 l0 51 Z" /><glyph glyph-name="" unicode="&#x53f9;" d="M353 717 l0 -631 l-206 0 l0 -87 l-54 0 l0 718 l260 0 ZM147 138 l152 0 l0 527 l-152 0 l0 -527 ZM923 -94 q-149 113 -246 248 q-114 -154 -280 -254 l-35 44 q171 100 283 257 q-149 226 -170 503 l-60 0 l0 54 l479 0 l0 -49 q-48 -301 -186 -511 q97 -134 253 -250 l-38 -42 ZM675 246 q122 194 163 458 l-311 0 q16 -255 148 -458 Z" /><glyph glyph-name="" unicode="&#x5404;" d="M776 270 l0 -370 l-54 0 l0 53 l-440 0 l0 -53 l-54 0 l0 370 l548 0 ZM282 5 l440 0 l0 214 l-440 0 l0 -214 ZM430 810 q-24 -43 -51 -84 l390 0 l0 -44 q-91 -130 -222 -220 q167 -95 405 -133 l-24 -49 q-252 43 -428 152 q-181 -108 -428 -156 l-24 48 q237 41 405 139 q-94 67 -163 152 q-65 -71 -147 -130 l-36 41 q170 117 270 297 l53 -13 ZM323 652 q72 -93 176 -161 q115 77 201 184 l-358 0 l-9 -11 l-10 -12 Z" /><glyph glyph-name="" unicode="&#x5408;" d="M520 814 q193 -226 444 -356 l-29 -50 q-255 137 -435 357 q-165 -207 -439 -359 l-28 51 q269 144 447 357 l40 0 ZM809 297 l0 -393 l-53 0 l0 65 l-512 0 l0 -65 l-53 0 l0 393 l618 0 ZM244 21 l512 0 l0 224 l-512 0 l0 -224 ZM242 492 l516 0 l0 -53 l-516 0 l0 53 Z" /><glyph glyph-name="" unicode="&#x540c;" d="M680 -94 l-15 55 l132 -3 q43 0 43 47 l0 713 l-680 0 l0 -815 l-55 0 l0 868 l790 0 l0 -778 q0 -87 -80 -87 l-135 0 ZM242 588 l517 0 l0 -52 l-517 0 l0 52 ZM303 416 l395 0 l0 -313 l-395 0 l0 313 ZM646 153 l0 213 l-291 0 l0 -213 l291 0 Z" /><glyph glyph-name="" unicode="&#x540d;" d="M345 -32 l0 -62 l-54 0 l0 360 q-107 -36 -211 -61 l-27 51 q269 59 441 151 q-67 58 -190 129 l47 29 q120 -72 188 -132 q164 98 240 232 l-390 0 q-101 -96 -262 -171 l-35 47 q257 112 349 275 l58 -7 q-25 -47 -61 -92 l403 0 l0 -49 q-117 -218 -418 -351 l444 0 l0 -411 l-55 0 l0 62 l-467 0 ZM812 21 l0 245 l-467 0 l0 -245 l467 0 Z" /><glyph glyph-name="" unicode="&#x540e;" d="M219 475 l0 -37 q-9 -337 -137 -533 l-41 42 q116 178 125 491 l0 293 q376 3 690 70 l26 -49 q-294 -61 -663 -69 l0 -155 l728 0 l0 -53 l-728 0 ZM865 318 l0 -416 l-54 0 l0 52 l-433 0 l0 -52 l-55 0 l0 416 l542 0 ZM378 8 l433 0 l0 258 l-433 0 l0 -258 Z" /><glyph glyph-name="" unicode="&#x5410;" d="M344 727 l0 -722 l-53 0 l0 64 l-145 0 l0 -87 l-54 0 l0 745 l252 0 ZM146 120 l145 0 l0 555 l-145 0 l0 -555 ZM646 811 l54 0 l0 -308 l225 0 l0 -53 l-225 0 l0 -460 l254 0 l0 -53 l-566 0 l0 53 l258 0 l0 460 l-223 0 l0 53 l223 0 l0 308 Z" /><glyph glyph-name="" unicode="&#x5411;" d="M322 455 l359 0 l0 -337 l-359 0 l0 337 ZM628 169 l0 235 l-253 0 l0 -235 l253 0 ZM501 812 q-19 -79 -57 -149 l451 0 l0 -669 q0 -86 -83 -86 l-153 0 l-15 55 l150 -2 q46 0 46 45 l0 604 l-672 0 l0 -706 l-55 0 l0 759 l274 0 q40 78 58 157 l56 -8 Z" /><glyph glyph-name="" unicode="&#x5417;" d="M339 726 l0 -707 l-51 0 l0 58 l-145 0 l0 -79 l-52 0 l0 728 l248 0 ZM143 129 l145 0 l0 545 l-145 0 l0 -545 ZM571 634 l-52 -265 l224 0 l60 344 l-377 0 l0 52 l437 0 l-66 -396 l122 0 q0 -349 -44 -404 q-45 -53 -188 -53 q-26 0 -86 2 l-17 55 q70 -5 90 -5 q136 0 163 51 q29 52 29 302 l-407 0 l59 320 l53 -3 ZM392 177 l383 0 l0 -52 l-383 0 l0 52 Z" /><glyph glyph-name="" unicode="&#x541e;" d="M759 291 q-103 86 -157 198 l-179 0 q-69 -109 -180 -198 l516 0 ZM656 489 q92 -165 302 -260 l-24 -50 q-96 47 -163 103 l0 -375 l-54 0 l0 66 l-434 0 l0 -66 l-54 0 l0 373 q-77 -58 -160 -100 l-26 49 q210 104 319 260 l-294 0 l0 51 l326 0 q45 80 64 170 l-316 0 l0 52 l716 0 l0 -52 l-347 0 q-19 -89 -59 -170 l481 0 l0 -51 l-277 0 ZM283 24 l434 0 l0 216 l-434 0 l0 -216 Z" /><glyph glyph-name="" unicode="&#x5426;" d="M100 762 l805 0 l0 -54 l-322 0 q-27 -38 -56 -70 l0 -323 l-54 0 l0 270 q-144 -126 -386 -220 l-33 44 q334 124 468 299 l-422 0 l0 54 ZM824 264 l0 -358 l-55 0 l0 56 l-533 0 l0 -56 l-55 0 l0 358 l643 0 ZM236 14 l533 0 l0 198 l-533 0 l0 -198 ZM638 605 q183 -107 300 -209 l-40 -39 q-109 99 -297 213 l37 35 Z" /><glyph glyph-name="" unicode="&#x5427;" d="M349 726 l0 -706 l-53 0 l0 60 l-148 0 l0 -82 l-54 0 l0 728 l255 0 ZM148 132 l148 0 l0 542 l-148 0 l0 -542 ZM639 711 l-141 0 l0 -332 l141 0 l0 332 ZM690 379 l148 0 l0 332 l-148 0 l0 -332 ZM891 762 l0 -434 l-393 0 l0 -290 q0 -65 63 -67 l251 0 q41 1 59 40 q13 32 19 149 l52 -17 q-7 -105 -23 -154 q-25 -68 -93 -70 l-283 0 q-98 0 -98 102 l0 741 l446 0 Z" /><glyph glyph-name="" unicode="&#x542b;" d="M453 619 q65 -37 126 -94 l-32 -37 q-62 58 -130 99 l36 32 ZM822 227 l0 -325 l-54 0 l0 48 l-535 0 l0 -48 l-54 0 l0 325 l361 0 q83 63 163 157 l-505 0 l0 50 l571 0 l0 -44 q-66 -90 -151 -163 l204 0 ZM233 0 l535 0 l0 175 l-535 0 l0 -175 ZM523 805 q129 -165 439 -289 l-31 -46 q-288 114 -431 284 q-172 -185 -432 -284 l-31 46 q288 112 440 289 l46 0 Z" /><glyph glyph-name="" unicode="&#x542c;" d="M925 753 q-171 -64 -384 -75 l0 -195 l407 0 l0 -52 l-159 0 l0 -529 l-54 0 l0 529 l-194 0 l0 -45 q-10 -295 -171 -472 l-40 41 q147 156 159 431 l0 339 q227 6 409 76 l27 -48 ZM358 722 l0 -589 l-204 0 l0 -80 l-54 0 l0 669 l258 0 ZM154 185 l150 0 l0 485 l-150 0 l0 -485 Z" /><glyph glyph-name="" unicode="&#x542f;" d="M867 272 l0 -373 l-53 0 l0 55 l-461 0 l0 -55 l-54 0 l0 373 l568 0 ZM353 6 l461 0 l0 215 l-461 0 l0 -215 ZM824 649 l-605 0 l0 -175 l605 0 l0 175 ZM219 423 l0 -45 q-2 -276 -133 -475 l-42 37 q121 172 122 438 l0 323 l337 0 q-23 61 -51 112 l55 10 q26 -53 51 -122 l320 0 l0 -278 l-659 0 Z" /><glyph glyph-name="" unicode="&#x544a;" d="M820 260 l0 -357 l-55 0 l0 58 l-524 0 l0 -58 l-55 0 l0 357 l634 0 ZM241 12 l524 0 l0 196 l-524 0 l0 -196 ZM225 615 q-53 -73 -118 -128 l-35 45 q141 117 189 285 l56 -6 q-20 -72 -58 -142 l222 0 l0 145 l54 0 l0 -145 l345 0 l0 -54 l-345 0 l0 -181 l415 0 l0 -54 l-900 0 l0 54 l431 0 l0 181 l-256 0 Z" /><glyph glyph-name="" unicode="&#x5458;" d="M817 449 l0 -355 l-55 0 l0 305 l-516 0 l0 -320 l-54 0 l0 370 l625 0 ZM244 774 l511 0 l0 -233 l-511 0 l0 233 ZM701 592 l0 131 l-404 0 l0 -131 l404 0 ZM537 318 q-21 -218 -94 -295 q-82 -95 -349 -119 l-22 49 q247 17 326 102 q72 81 84 269 l55 -6 ZM567 87 q193 -62 348 -148 l-30 -46 q-169 97 -347 152 l29 42 Z" /><glyph glyph-name="" unicode="&#x5462;" d="M860 718 l-382 0 l0 -174 l382 0 l0 174 ZM478 493 l0 -91 q-2 -292 -120 -502 l-42 38 q109 181 110 464 l0 367 l487 0 l0 -276 l-435 0 ZM625 20 q0 -54 51 -54 l136 0 q39 0 55 19 q20 23 28 143 l50 -16 q-10 -135 -41 -169 q-25 -25 -82 -25 l-162 0 q-87 0 -87 92 l0 396 l52 0 l0 -145 q161 29 284 97 l18 -50 q-140 -72 -302 -97 l0 -191 ZM330 726 l0 -611 l-186 0 l0 -83 l-52 0 l0 694 l238 0 ZM144 165 l135 0 l0 509 l-135 0 l0 -509 Z" /><glyph glyph-name="" unicode="&#x5468;" d="M485 682 l53 0 l0 -92 l188 0 l0 -48 l-188 0 l0 -112 l223 0 l0 -49 l-497 0 l0 49 l221 0 l0 112 l-191 0 l0 48 l191 0 l0 92 ZM875 771 l0 -787 q0 -72 -81 -72 l-126 0 l-14 51 q88 -2 123 -2 q45 0 45 43 l0 716 l-619 0 l0 -379 q-3 -269 -97 -436 l-42 37 q82 155 85 395 l0 434 l726 0 ZM317 299 l385 0 l0 -238 l-385 0 l0 238 ZM650 109 l0 143 l-280 0 l0 -143 l280 0 Z" /><glyph glyph-name="" unicode="&#x5473;" d="M334 726 l0 -723 l-51 0 l0 65 l-140 0 l0 -88 l-52 0 l0 746 l243 0 ZM143 117 l140 0 l0 558 l-140 0 l0 -558 ZM692 380 l0 -480 l-53 0 l0 480 l-7 0 q-69 -238 -237 -391 l-28 46 q156 135 225 345 l-196 0 l0 52 l243 0 l0 183 l-207 0 l0 52 l207 0 l0 149 l53 0 l0 -149 l207 0 l0 -52 l-207 0 l0 -183 l240 0 l0 -52 l-193 0 q63 -192 226 -343 l-35 -43 q-167 172 -230 386 l-8 0 Z" /><glyph glyph-name="" unicode="&#x547c;" d="M922 632 q-37 -139 -89 -240 l-49 18 q50 91 88 236 l50 -14 ZM470 611 q40 -94 71 -209 l-47 -13 q-28 105 -72 206 l48 16 ZM492 -94 l-12 52 q72 -4 102 -4 q54 0 54 44 l0 279 l-258 0 l0 51 l258 0 l0 376 q-119 -14 -227 -20 l-17 47 q298 17 506 76 l27 -47 q-113 -30 -235 -48 l0 -384 l264 0 l0 -51 l-264 0 l0 -293 q0 -78 -89 -78 l-109 0 ZM141 68 l0 -87 l-52 0 l0 746 l240 0 l0 -723 l-52 0 l0 64 l-136 0 ZM277 118 l0 557 l-136 0 l0 -557 l136 0 Z" /><glyph glyph-name="" unicode="&#x547d;" d="M442 382 l0 -369 l-53 0 l0 55 l-182 0 l0 -73 l-53 0 l0 387 l288 0 ZM207 119 l182 0 l0 213 l-182 0 l0 -213 ZM521 816 q159 -187 432 -309 l-30 -45 q-274 125 -422 304 q-154 -178 -424 -304 l-30 45 q283 132 434 309 l40 0 ZM295 556 l410 0 l0 -50 l-410 0 l0 50 ZM684 8 l-15 52 l82 -3 q48 0 48 46 l0 231 l-194 0 l0 -439 l-53 0 l0 489 l299 0 l0 -292 q0 -84 -82 -84 l-85 0 Z" /><glyph glyph-name="" unicode="&#x548c;" d="M902 741 l0 -799 l-54 0 l0 83 l-262 0 l0 -92 l-53 0 l0 808 l369 0 ZM586 76 l262 0 l0 614 l-262 0 l0 -614 ZM74 534 l181 0 l0 161 q-84 -14 -164 -20 l-18 50 q217 15 374 77 l26 -46 q-85 -32 -166 -50 l0 -172 l177 0 l0 -51 l-177 0 l0 -57 q93 -85 179 -184 l-32 -46 q-85 114 -147 180 l0 -469 l-52 0 l0 480 q-65 -157 -184 -285 l-23 57 q147 144 207 324 l-181 0 l0 51 Z" /><glyph glyph-name="" unicode="&#x54b1;" d="M147 54 l0 -87 l-52 0 l0 746 l244 0 l0 -722 l-51 0 l0 63 l-141 0 ZM288 105 l0 556 l-141 0 l0 -556 l141 0 ZM901 680 l0 -771 l-54 0 l0 68 l-345 0 l0 -68 l-53 0 l0 771 l130 0 q30 65 45 135 l59 -8 q-19 -73 -46 -127 l264 0 ZM502 28 l345 0 l0 165 l-345 0 l0 -165 ZM502 244 l345 0 l0 167 l-345 0 l0 -167 ZM502 463 l345 0 l0 165 l-345 0 l0 -165 Z" /><glyph glyph-name="" unicode="&#x54c1;" d="M229 767 l540 0 l0 -311 l-540 0 l0 311 ZM714 508 l0 207 l-430 0 l0 -207 l430 0 ZM436 338 l0 -420 l-53 0 l0 53 l-231 0 l0 -53 l-53 0 l0 420 l337 0 ZM152 22 l231 0 l0 265 l-231 0 l0 -265 ZM901 338 l0 -420 l-54 0 l0 53 l-241 0 l0 -53 l-53 0 l0 420 l348 0 ZM606 22 l241 0 l0 265 l-241 0 l0 -265 Z" /><glyph glyph-name="" unicode="&#x54c8;" d="M862 296 l0 -394 l-52 0 l0 60 l-318 0 l0 -60 l-52 0 l0 394 l422 0 ZM492 12 l318 0 l0 233 l-318 0 l0 -233 ZM676 804 q98 -191 285 -313 l-32 -45 q-174 117 -279 307 q-116 -193 -281 -313 l-31 45 q173 124 287 319 l51 0 ZM335 726 l0 -707 l-51 0 l0 58 l-142 0 l0 -79 l-52 0 l0 728 l245 0 ZM142 129 l142 0 l0 546 l-142 0 l0 -546 ZM477 491 l341 0 l0 -51 l-341 0 l0 51 Z" /><glyph glyph-name="" unicode="&#x54cd;" d="M547 501 l223 0 l0 -380 l-223 0 l0 380 ZM722 167 l0 288 l-128 0 l0 -288 l128 0 ZM675 811 q-12 -72 -33 -132 l278 0 l0 -671 q0 -98 -83 -98 l-122 0 l-15 53 l119 -2 q49 0 49 59 l0 607 l-416 0 l0 -721 l-53 0 l0 773 l187 0 q20 63 31 140 l58 -8 ZM322 723 l0 -722 l-54 0 l0 64 l-128 0 l0 -88 l-53 0 l0 746 l235 0 ZM140 116 l128 0 l0 555 l-128 0 l0 -555 Z" /><glyph glyph-name="" unicode="&#x54e5;" d="M99 768 l816 0 l0 -52 l-118 0 l0 -296 l-53 0 l0 296 l-645 0 l0 52 ZM208 638 l369 0 l0 -190 l-369 0 l0 190 ZM527 489 l0 106 l-269 0 l0 -106 l269 0 ZM59 370 l881 0 l0 -51 l-141 0 l0 -326 q0 -88 -89 -88 l-117 0 l-12 50 q76 -4 111 -4 q54 0 54 56 l0 312 l-687 0 l0 51 ZM199 230 l380 0 l0 -201 l-380 0 l0 201 ZM528 72 l0 116 l-278 0 l0 -116 l278 0 Z" /><glyph glyph-name="" unicode="&#x54ea;" d="M286 725 l0 -648 l-151 0 l0 -93 l-49 0 l0 741 l200 0 ZM135 124 l103 0 l0 553 l-103 0 l0 -553 ZM340 539 l75 0 l0 175 l-70 0 l0 50 l267 0 q0 -569 -13 -710 q-12 -138 -102 -138 q-4 0 -58 2 l-13 48 q36 -3 62 -3 q54 0 63 95 q6 52 9 203 l-111 0 q-30 -223 -124 -348 l-39 33 q86 110 115 315 l-63 0 l0 50 l69 0 q7 83 8 159 l0 20 l-75 0 l0 49 ZM561 311 q0 25 1 85 l0 94 l-100 0 l0 -20 q-1 -76 -8 -159 l107 0 ZM562 539 q0 27 1 86 l0 89 l-101 0 l0 -175 l100 0 ZM696 767 l235 0 l0 -41 q-26 -145 -61 -286 q72 -150 75 -260 q0 -70 -24 -99 q-34 -40 -117 -40 l-17 52 q30 -3 50 -3 q29 3 45 22 q13 23 13 68 q0 109 -73 252 q40 157 60 287 l-137 0 l0 -814 l-49 0 l0 862 Z" /><glyph glyph-name="" unicode="&#x5510;" d="M533 265 l-246 0 l0 47 l246 0 l0 87 l-329 0 q-9 -295 -120 -477 l-41 37 q102 167 108 463 l0 308 l367 0 q-18 45 -37 80 l56 10 q17 -36 37 -90 l341 0 l0 -52 l-710 0 l0 -232 l328 0 l0 87 l-237 0 l0 47 l237 0 l0 51 l51 0 l0 -51 l244 0 l0 -134 l113 0 l0 -47 l-113 0 l0 -134 l-244 0 l0 -91 l262 0 l0 -271 l-51 0 l0 39 l-442 0 l0 -42 l-52 0 l0 274 l232 0 l0 91 ZM353 -11 l442 0 l0 137 l-442 0 l0 -137 ZM584 312 l192 0 l0 87 l-192 0 l0 -87 ZM776 446 l0 87 l-192 0 l0 -87 l192 0 Z" /><glyph glyph-name="" unicode="&#x5546;" d="M321 261 l357 0 l0 -233 l-357 0 l0 233 ZM625 77 l0 135 l-251 0 l0 -135 l251 0 ZM589 460 q129 -92 211 -180 l-40 -39 q-76 87 -207 183 l36 36 ZM492 824 q23 -43 42 -99 l406 0 l0 -52 l-219 0 q-32 -81 -65 -135 l227 0 l0 -534 q0 -97 -81 -97 l-101 0 l-14 50 l98 -2 q45 0 45 60 l0 474 l-662 0 l0 -579 l-53 0 l0 628 l216 0 q-24 74 -60 135 l-211 0 l0 52 l416 0 q-21 50 -42 90 l58 9 ZM598 538 q35 63 63 135 l-330 0 q33 -66 55 -135 l212 0 ZM443 423 q-88 -103 -217 -181 l-34 44 q125 73 212 172 l39 -35 Z" /><glyph glyph-name="" unicode="&#x554a;" d="M277 746 l0 -723 l-48 0 l0 70 l-101 0 l0 -92 l-46 0 l0 745 l195 0 ZM128 139 l101 0 l0 561 l-101 0 l0 -561 ZM615 586 l176 0 l0 -427 l-176 0 l0 427 ZM749 199 l0 347 l-92 0 l0 -347 l92 0 ZM622 768 l338 0 l0 -50 l-48 0 l0 -726 q0 -84 -84 -84 l-107 0 l-10 47 q68 -4 101 -4 q53 0 53 53 l0 714 l-243 0 l0 50 ZM354 773 l213 0 l0 -39 q-32 -156 -70 -299 q67 -121 72 -227 q-2 -65 -22 -94 q-30 -35 -104 -37 l-16 51 q15 -3 27 -3 q40 3 53 21 q14 19 14 62 q0 97 -73 220 q48 175 70 299 l-116 0 l0 -825 l-48 0 l0 871 Z" /><glyph glyph-name="" unicode="&#x5566;" d="M585 645 l356 0 l0 -51 l-356 0 l0 51 ZM549 -2 l201 0 q67 211 116 515 l48 -13 q-46 -289 -113 -502 l153 0 l0 -52 l-405 0 l0 52 ZM657 502 q36 -178 60 -404 l-46 -5 q-27 219 -62 403 l48 6 ZM714 812 q55 -74 85 -130 l-40 -29 q-32 62 -87 134 l42 25 ZM335 -83 l-11 48 q40 -4 60 -4 q43 0 43 45 l0 269 q-36 -13 -93 -31 l-13 51 q58 14 106 31 l0 246 l-94 0 l0 51 l94 0 l0 183 l52 0 l0 -183 l84 0 l0 -51 l-84 0 l0 -226 q43 17 89 41 l0 -52 q-53 -26 -89 -40 l0 -302 q0 -76 -79 -76 l-65 0 ZM290 728 l0 -729 l-50 0 l0 66 l-104 0 l0 -90 l-50 0 l0 753 l204 0 ZM136 113 l104 0 l0 567 l-104 0 l0 -567 Z" /><glyph glyph-name="" unicode="&#x5584;" d="M100 721 l233 0 q-22 47 -51 88 l59 10 q23 -41 48 -98 l224 0 q38 51 55 100 l57 -8 q-20 -49 -54 -92 l229 0 l0 -48 l-373 0 l0 -82 l328 0 l0 -44 l-328 0 l0 -81 l394 0 l0 -48 l-155 0 q-19 -54 -55 -109 l225 0 l0 -49 l-872 0 l0 49 l223 0 q-23 59 -55 109 l-153 0 l0 48 l394 0 l0 81 l-328 0 l0 44 l328 0 l0 82 l-373 0 l0 48 ZM658 309 q34 51 55 109 l-186 0 l0 -109 l131 0 ZM290 418 q26 -46 48 -109 l135 0 l0 109 l-183 0 ZM825 174 l0 -272 l-54 0 l0 43 l-542 0 l0 -43 l-55 0 l0 272 l651 0 ZM229 -4 l542 0 l0 128 l-542 0 l0 -128 Z" /><glyph glyph-name="" unicode="&#x5594;" d="M302 744 l0 -589 l-162 0 l0 -77 l-51 0 l0 666 l213 0 ZM140 206 l112 0 l0 487 l-112 0 l0 -487 ZM452 424 l0 -17 q-1 -291 -119 -500 l-41 37 q107 179 109 463 l0 366 l500 0 l0 -203 l-449 0 l0 -98 l469 0 l0 -48 l-249 0 q-53 -100 -107 -151 q179 15 262 25 q-31 56 -53 87 l42 21 q57 -87 108 -189 l-44 -22 l-15 32 l-16 31 l-63 -6 l-64 -7 l0 -110 l174 0 l0 -47 l-174 0 l0 -110 l223 0 l0 -50 l-494 0 l0 50 l220 0 l0 110 l-182 0 l0 47 l182 0 l0 105 l-86 -6 l-88 -7 l-7 45 q56 22 127 152 l-165 0 ZM850 724 l-398 0 l0 -107 l398 0 l0 107 Z" /><glyph glyph-name="" unicode="&#x559c;" d="M132 623 l341 0 l0 77 l-375 0 l0 46 l375 0 l0 70 l54 0 l0 -70 l376 0 l0 -46 l-376 0 l0 -77 l341 0 l0 -45 l-736 0 l0 45 ZM192 343 l0 172 l616 0 l0 -172 l-89 0 l-46 -83 l271 0 l0 -48 l-888 0 l0 48 l268 0 l-37 83 l-95 0 ZM343 343 l37 -83 l236 0 l46 83 l-319 0 ZM756 386 l0 87 l-512 0 l0 -87 l512 0 ZM823 146 l0 -242 l-52 0 l0 42 l-541 0 l0 -42 l-52 0 l0 242 l645 0 ZM230 -8 l541 0 l0 108 l-541 0 l0 -108 Z" /><glyph glyph-name="" unicode="&#x563f;" d="M319 728 l0 -657 l-184 0 l0 -78 l-51 0 l0 735 l235 0 ZM135 121 l133 0 l0 557 l-133 0 l0 -557 ZM404 773 l501 0 l0 -338 l-225 0 l0 -92 l229 0 l0 -48 l-229 0 l0 -105 l263 0 l0 -47 l-576 0 l0 47 l262 0 l0 105 l-233 0 l0 48 l233 0 l0 92 l-225 0 l0 338 ZM857 482 l0 244 l-180 0 l0 -244 l180 0 ZM632 482 l0 244 l-180 0 l0 -244 l180 0 ZM480 83 q-34 -108 -83 -183 l-48 17 q50 74 85 178 l46 -12 ZM581 87 q35 -88 58 -179 l-48 -11 q-23 104 -55 180 l45 10 ZM729 92 q33 -84 60 -180 l-47 -11 q-23 100 -59 181 l46 10 ZM872 101 q50 -83 88 -178 l-45 -21 q-39 104 -87 184 l44 15 ZM542 674 q27 -61 47 -134 l-36 -9 q-18 69 -45 132 l34 11 ZM801 665 q-20 -74 -52 -134 l-35 13 q28 50 51 130 l36 -9 Z" /><glyph glyph-name="" unicode="&#x5668;&#xfa38;" d="M144 773 l293 0 l0 -231 l-293 0 l0 231 ZM387 589 l0 137 l-192 0 l0 -137 l192 0 ZM563 773 l297 0 l0 -231 l-297 0 l0 231 ZM809 589 l0 137 l-196 0 l0 -137 l196 0 ZM61 429 l340 0 q32 42 50 88 l51 -6 q-15 -37 -43 -82 l286 0 q-26 45 -51 76 l48 15 q34 -44 57 -91 l140 0 l0 -50 l-287 0 q99 -105 309 -165 l-22 -46 q-33 11 -81 31 l0 -298 l-50 0 l0 47 l-205 0 l0 -47 l-50 0 l0 307 l282 0 q-161 72 -238 171 l-175 0 q-90 -105 -246 -171 l271 0 l0 -307 l-50 0 l0 47 l-189 0 l0 -47 l-49 0 l0 300 q-41 -17 -94 -33 l-25 45 q207 63 316 166 l-295 0 l0 50 ZM208 -5 l189 0 l0 165 l-189 0 l0 -165 ZM603 -5 l205 0 l0 165 l-205 0 l0 -165 Z" /><glyph glyph-name="" unicode="&#x56db;" d="M902 745 l0 -827 l-55 0 l0 63 l-694 0 l0 -63 l-55 0 l0 827 l804 0 ZM153 30 l694 0 l0 188 l-177 0 q-87 0 -87 86 l0 391 l-164 0 l0 -220 q-3 -211 -177 -307 l-44 38 q165 84 168 269 l0 220 l-213 0 l0 -665 ZM636 695 l0 -380 q0 -47 47 -47 l164 0 l0 427 l-211 0 Z" /><glyph glyph-name="" unicode="&#x56de;" d="M318 533 l365 0 l0 -349 l-365 0 l0 349 ZM630 233 l0 251 l-259 0 l0 -251 l259 0 ZM896 752 l0 -830 l-55 0 l0 40 l-682 0 l0 -40 l-55 0 l0 830 l792 0 ZM159 12 l682 0 l0 690 l-682 0 l0 -690 Z" /><glyph glyph-name="" unicode="&#x56e0;" d="M221 504 l252 0 q8 67 10 154 l52 0 q0 -79 -8 -154 l252 0 l0 -52 l-259 0 q-8 -43 -16 -74 q167 -135 277 -266 l-39 -40 q-97 124 -253 259 q-62 -160 -247 -260 l-33 41 q173 94 229 238 q17 48 27 102 l-244 0 l0 52 ZM896 763 l0 -859 l-54 0 l0 50 l-684 0 l0 -50 l-54 0 l0 859 l792 0 ZM158 6 l684 0 l0 705 l-684 0 l0 -705 Z" /><glyph glyph-name="" unicode="&#x56e2;" d="M244 526 l342 0 l0 129 l51 0 l0 -129 l131 0 l0 -49 l-131 0 l0 -316 q0 -82 -77 -82 l-113 0 l-11 50 l54 -3 q29 -1 52 -1 q44 0 44 49 l0 303 l-1 0 q-118 -210 -329 -330 l-29 47 q200 105 312 283 l-295 0 l0 49 ZM897 765 l0 -863 l-52 0 l0 50 l-690 0 l0 -50 l-52 0 l0 863 l794 0 ZM155 2 l690 0 l0 713 l-690 0 l0 -713 Z" /><glyph glyph-name="" unicode="&#x56f0;" d="M251 519 l228 0 l0 140 l52 0 l0 -140 l224 0 l0 -52 l-224 0 l0 -60 q131 -95 257 -211 l-30 -44 q-136 135 -227 205 l0 -292 l-52 0 l0 344 q-81 -162 -241 -271 l-28 46 q176 110 253 283 l-212 0 l0 52 ZM887 766 l0 -862 l-53 0 l0 53 l-668 0 l0 -53 l-53 0 l0 862 l774 0 ZM166 9 l668 0 l0 705 l-668 0 l0 -705 Z" /><glyph glyph-name="" unicode="&#x56f4;" d="M234 593 l234 0 l0 78 l54 0 l0 -78 l241 0 l0 -48 l-241 0 l0 -91 l199 0 l0 -47 l-199 0 l0 -91 l238 0 q-1 -131 -17 -174 q-19 -52 -105 -55 q-17 0 -40 3 l-16 46 q30 -3 51 -3 q55 1 67 38 q8 25 10 97 l-188 0 l0 -220 l-54 0 l0 220 l-248 0 l0 48 l248 0 l0 91 l-192 0 l0 47 l192 0 l0 91 l-234 0 l0 48 ZM899 765 l0 -863 l-52 0 l0 49 l-694 0 l0 -49 l-52 0 l0 863 l798 0 ZM153 1 l694 0 l0 714 l-694 0 l0 -714 Z" /><glyph glyph-name="" unicode="&#x56fa;" d="M220 545 l254 0 l0 117 l54 0 l0 -117 l252 0 l0 -52 l-252 0 l0 -123 l174 0 l0 -266 l-403 0 l0 266 l175 0 l0 123 l-254 0 l0 52 ZM651 152 l0 171 l-301 0 l0 -171 l301 0 ZM897 765 l0 -863 l-54 0 l0 50 l-684 0 l0 -50 l-55 0 l0 863 l793 0 ZM159 3 l684 0 l0 710 l-684 0 l0 -710 Z" /><glyph glyph-name="" unicode="&#x56fd;" d="M252 605 l495 0 l0 -50 l-220 0 l0 -160 l189 0 l0 -50 l-189 0 l0 -174 l249 0 l0 -50 l-551 0 l0 50 l248 0 l0 174 l-189 0 l0 50 l189 0 l0 160 l-221 0 l0 50 ZM904 762 l0 -858 l-55 0 l0 48 l-699 0 l0 -48 l-55 0 l0 858 l809 0 ZM150 3 l699 0 l0 707 l-699 0 l0 -707 ZM646 317 q40 -55 69 -115 l-43 -19 q-34 71 -70 120 l44 14 Z" /><glyph glyph-name="" unicode="&#x56fe;" d="M462 682 q-12 -33 -30 -63 l268 0 l0 -38 q-44 -85 -136 -147 q108 -56 242 -88 l-28 -42 q-151 42 -258 102 q-119 -65 -291 -104 l-24 44 q164 33 271 87 q-65 43 -114 97 q-47 -49 -109 -87 l-30 40 q139 84 189 205 l50 -6 ZM520 458 q81 50 124 119 l-241 0 l-12 -16 q56 -59 129 -103 ZM319 189 q200 -39 385 -111 l-18 -45 q-183 72 -389 115 l22 41 ZM424 332 q114 -40 211 -99 l-26 -40 q-102 65 -210 102 l25 37 ZM901 766 l0 -863 l-54 0 l0 45 l-694 0 l0 -45 l-54 0 l0 863 l802 0 ZM153 -3 l694 0 l0 719 l-694 0 l0 -719 Z" /><glyph glyph-name="" unicode="&#x5706;" d="M716 418 l0 -238 l-53 0 l0 194 l-330 0 l0 -194 l-52 0 l0 238 l435 0 ZM324 648 l353 0 l0 -168 l-353 0 l0 168 ZM626 519 l0 90 l-251 0 l0 -90 l251 0 ZM540 189 q132 -46 235 -110 l-29 -45 q-112 75 -231 117 l25 38 ZM531 323 q-14 -117 -79 -187 q-57 -62 -205 -98 l-20 47 q129 30 185 85 q56 57 69 158 l50 -5 ZM902 766 l0 -864 l-55 0 l0 47 l-694 0 l0 -47 l-55 0 l0 864 l804 0 ZM153 -2 l694 0 l0 718 l-694 0 l0 -718 Z" /><glyph glyph-name="" unicode="&#x2f1f;&#x571f;" d="M135 483 l338 0 l0 328 l54 0 l0 -328 l336 0 l0 -53 l-336 0 l0 -440 l417 0 l0 -53 l-888 0 l0 53 l417 0 l0 440 l-338 0 l0 53 Z" /><glyph glyph-name="" unicode="&#x5728;" d="M361 343 l238 0 l0 193 l55 0 l0 -193 l243 0 l0 -54 l-243 0 l0 -299 l290 0 l0 -53 l-627 0 l0 53 l282 0 l0 299 l-238 0 l0 54 ZM207 327 q-65 -70 -135 -128 l-35 44 q198 163 307 376 l-272 0 l0 53 l297 0 q29 69 54 148 l55 -6 q-19 -68 -50 -142 l513 0 l0 -53 l-537 0 q-62 -126 -143 -228 l0 -491 l-54 0 l0 427 Z" /><glyph glyph-name="" unicode="&#x5730;" d="M911 636 q0 -312 -12 -378 q-14 -65 -103 -65 l-25 0 l-16 55 q40 -2 52 -2 q35 0 44 38 q8 38 8 280 l-157 -47 l0 -399 l-52 0 l0 383 l-146 -44 l0 -435 q0 -51 49 -51 l266 0 q37 0 52 21 q19 29 26 162 l51 -16 q-9 -153 -39 -189 q-26 -29 -80 -29 l-292 0 q-85 0 -85 91 l0 431 l-80 -24 l0 53 l80 24 l0 218 l52 0 l0 -202 l146 45 l0 258 l52 0 l0 -242 l209 64 ZM375 135 q-151 -68 -319 -109 l-14 54 q66 14 138 35 l0 369 l-125 0 l0 53 l125 0 l0 274 l54 0 l0 -274 l118 0 l0 -53 l-118 0 l0 -351 q66 23 141 56 l0 -54 Z" /><glyph glyph-name="" unicode="&#x573a;" d="M420 411 l0 50 q198 116 352 241 l-341 0 l0 51 l419 0 l0 -49 q-157 -134 -336 -245 l401 0 q-8 -341 -30 -440 q-24 -101 -132 -103 q-35 0 -95 2 l-15 53 q68 -4 102 -4 q64 3 86 61 q20 53 29 383 l-87 0 q-36 -186 -107 -293 q-77 -112 -234 -202 l-34 42 q148 83 219 181 q70 100 104 272 l-93 0 q-56 -190 -193 -296 l-35 42 q126 98 176 254 l-156 0 ZM53 532 l128 0 l0 262 l54 0 l0 -262 l133 0 l0 -53 l-133 0 l0 -371 q78 23 137 46 l0 -55 q-148 -56 -317 -92 l-14 56 q69 12 140 30 l0 386 l-128 0 l0 53 Z" /><glyph glyph-name="" unicode="&#x573e;" d="M60 543 l123 0 l0 274 l54 0 l0 -274 l129 0 l0 -54 l-129 0 l0 -351 q74 28 120 50 l0 -54 q-142 -65 -299 -106 l-14 55 q61 13 139 37 l0 369 l-123 0 l0 54 ZM481 718 l-122 0 l0 51 l458 0 l0 -34 q-27 -136 -56 -242 l145 0 l0 -32 q-33 -208 -147 -351 q85 -88 204 -158 l-34 -44 q-120 73 -204 163 q-94 -99 -235 -166 l-30 47 q137 65 228 160 q-114 136 -165 311 q-37 -339 -204 -516 l-40 35 q199 210 202 668 l0 108 ZM722 151 q100 124 132 293 l-159 0 q27 89 64 274 l-226 0 l0 -128 l-1 -20 q39 -244 190 -419 Z" /><glyph glyph-name="" unicode="&#x5740;" d="M672 817 l54 0 l0 -326 l199 0 l0 -53 l-199 0 l0 -439 l227 0 l0 -53 l-626 0 l0 53 l121 0 l0 606 l54 0 l0 -606 l170 0 l0 818 ZM375 123 q-155 -57 -328 -92 l-15 56 q81 15 144 31 l0 380 l-133 0 l0 54 l133 0 l0 259 l54 0 l0 -259 l131 0 l0 -54 l-131 0 l0 -366 q72 22 145 48 l0 -57 Z" /><glyph glyph-name="" unicode="&#x5747;" d="M770 216 q-126 -82 -324 -149 l-21 51 q193 62 331 148 l14 -50 ZM545 489 q94 -71 160 -144 l-38 -38 q-58 70 -157 148 l35 34 ZM586 813 q-18 -82 -45 -156 l373 0 q0 -503 -19 -625 q-18 -121 -151 -121 q-36 0 -125 3 l-13 51 q100 -2 130 -2 q88 0 105 80 q20 97 20 562 l-342 0 q-51 -111 -129 -201 l-35 46 q131 152 177 369 l54 -6 ZM49 543 l118 0 l0 268 l53 0 l0 -268 l111 0 l0 -54 l-111 0 l0 -360 q78 23 149 51 l0 -57 q-146 -56 -314 -92 l-14 56 q47 9 126 28 l0 374 l-118 0 l0 54 Z" /><glyph glyph-name="" unicode="&#x574f;" d="M51 543 l130 0 l0 267 l54 0 l0 -267 l125 0 l0 -54 l-125 0 l0 -382 q63 21 144 55 l0 -56 q-145 -63 -320 -106 l-14 57 q74 16 136 33 l0 399 l-130 0 l0 54 ZM621 480 q-97 -163 -248 -289 l-32 43 q234 194 325 472 l-288 0 l0 54 l548 0 l0 -54 l-206 0 q-21 -69 -46 -122 l0 -681 l-53 0 l0 577 ZM728 504 q146 -157 230 -287 l-46 -33 q-87 136 -227 290 l43 30 Z" /><glyph glyph-name="" unicode="&#x5750;" d="M134 251 l339 0 l0 557 l54 0 l0 -557 l339 0 l0 -51 l-339 0 l0 -198 l404 0 l0 -52 l-862 0 l0 52 l404 0 l0 198 l-339 0 l0 51 ZM729 518 q-47 -109 -115 -183 l-35 42 q119 136 161 366 l51 -10 q-17 -90 -46 -174 q82 -73 176 -177 l-32 -47 q-100 123 -160 183 ZM310 735 q-21 -94 -54 -174 q81 -79 165 -180 l-31 -47 q-87 119 -152 187 q-57 -121 -144 -205 l-34 42 q146 145 197 387 l53 -10 Z" /><glyph glyph-name="" unicode="&#x5751;" d="M52 542 l136 0 l0 269 l54 0 l0 -269 l125 0 l0 -52 l-125 0 l0 -358 q83 31 144 59 l0 -56 q-153 -69 -324 -113 l-14 55 q75 17 140 37 l0 376 l-136 0 l0 52 ZM390 678 l240 0 q-32 76 -70 136 l56 10 q37 -66 68 -146 l231 0 l0 -54 l-525 0 l0 54 ZM347 -66 q77 68 112 151 q30 74 30 207 l0 201 l294 0 l0 -491 q0 -40 35 -40 l34 0 q15 0 28 5 q10 3 16 10 q11 13 11 144 l49 -15 q0 -77 -7 -130 q-6 -37 -27 -50 q-20 -11 -64 -11 l-42 0 q-85 0 -85 82 l0 445 l-191 0 l0 -150 q0 -133 -32 -220 q-34 -90 -122 -174 l-39 36 Z" /><glyph glyph-name="" unicode="&#x5757;" d="M393 656 l189 0 l0 158 l53 0 l0 -158 l218 0 l0 -290 l93 0 l0 -53 l-295 0 q93 -227 303 -364 l-36 -42 q-213 149 -307 382 q-60 -266 -268 -386 l-33 44 q203 111 254 366 l-212 0 l0 53 l221 0 q9 66 9 138 l0 101 l-189 0 l0 51 ZM635 605 l0 -90 q0 -71 -10 -149 l174 0 l0 239 l-164 0 ZM51 543 l123 0 l0 265 l54 0 l0 -265 l117 0 l0 -54 l-117 0 l0 -353 q82 31 141 59 l0 -54 q-148 -71 -319 -116 l-14 55 q77 18 138 37 l0 372 l-123 0 l0 54 Z" /><glyph glyph-name="" unicode="&#x5782;" d="M111 600 l362 0 l0 108 q-159 -9 -341 -9 l-16 46 q438 0 718 54 l26 -45 q-144 -28 -333 -42 l0 -112 l362 0 l0 -51 l-125 0 l0 -155 l179 0 l0 -52 l-179 0 l0 -162 l131 0 l0 -51 l-368 0 l0 -141 l345 0 l0 -52 l-743 0 l0 52 l344 0 l0 141 l-366 0 l0 51 l129 0 l0 162 l-178 0 l0 52 l178 0 l0 155 l-125 0 l0 51 ZM713 180 l0 162 l-186 0 l0 -162 l186 0 ZM713 394 l0 155 l-186 0 l0 -155 l186 0 ZM473 180 l0 162 l-186 0 l0 -162 l186 0 ZM473 394 l0 155 l-186 0 l0 -155 l186 0 Z" /><glyph glyph-name="" unicode="&#x5783;" d="M413 648 l244 0 q-32 93 -67 160 l56 10 q34 -77 63 -170 l222 0 l0 -53 l-518 0 l0 53 ZM376 -2 l319 0 q75 213 128 523 l53 -14 q-52 -292 -127 -509 l207 0 l0 -53 l-580 0 l0 53 ZM507 509 q63 -186 111 -426 l-49 -13 q-45 219 -111 423 l49 16 ZM53 541 l145 0 l0 271 l53 0 l0 -271 l136 0 l0 -52 l-136 0 l0 -355 q88 28 149 53 l0 -53 q-160 -64 -341 -105 l-14 53 q78 15 153 36 l0 371 l-145 0 l0 52 Z" /><glyph glyph-name="" unicode="&#x578b;" d="M96 765 l464 0 l0 -50 l-107 0 l0 -164 l128 0 l0 -52 l-128 0 l0 -225 l-52 0 l0 225 l-147 0 q-17 -161 -118 -238 l-40 36 q92 68 105 202 l-131 0 l0 52 l134 0 l0 164 l-108 0 l0 50 ZM257 715 l0 -164 l144 0 l0 164 l-144 0 ZM653 746 l51 0 l0 -343 l-51 0 l0 343 ZM120 166 l357 0 l0 97 l54 0 l0 -97 l350 0 l0 -51 l-350 0 l0 -134 l406 0 l0 -51 l-874 0 l0 51 l414 0 l0 134 l-357 0 l0 51 ZM680 267 l-12 51 l33 -1 l32 -2 q35 -1 62 -1 q38 0 38 41 l0 447 l53 0 l0 -460 q0 -75 -73 -75 l-133 0 Z" /><glyph glyph-name="" unicode="&#x57df;" d="M323 673 l359 0 q-1 46 -1 142 l54 0 q0 -97 1 -142 l119 0 q-27 69 -50 110 l48 8 q24 -49 48 -118 l51 0 l0 -52 l-215 0 q5 -262 24 -413 q69 135 105 319 l48 -21 q-50 -228 -140 -379 q33 -160 78 -165 q34 6 65 158 l41 -33 q-43 -180 -106 -180 q-47 0 -85 78 q-18 38 -30 85 q-77 -104 -178 -164 l-33 42 q114 65 195 190 q-6 32 -14 93 q-19 153 -24 390 l-360 0 l0 52 ZM365 510 l244 0 l0 -275 l-244 0 l0 275 ZM561 281 l0 183 l-148 0 l0 -183 l148 0 ZM624 112 q-149 -58 -320 -95 l-14 51 q177 33 334 94 l0 -50 ZM57 542 l105 0 l0 272 l53 0 l0 -272 l101 0 l0 -52 l-101 0 l0 -325 q61 28 102 49 l0 -55 q-114 -62 -254 -103 l-13 54 q66 17 112 34 l0 346 l-105 0 l0 52 Z" /><glyph glyph-name="" unicode="&#x57fa;" d="M82 735 l183 0 l0 81 l54 0 l0 -81 l361 0 l0 81 l54 0 l0 -81 l183 0 l0 -47 l-183 0 l0 -346 l199 0 l0 -48 l-222 0 q76 -103 236 -160 l-22 -47 q-190 80 -266 207 l-320 0 q-76 -127 -256 -211 l-27 45 q160 66 231 166 l-221 0 l0 48 l199 0 l0 346 l-183 0 l0 47 ZM319 342 l361 0 l0 87 l-361 0 l0 -87 ZM319 474 l361 0 l0 83 l-361 0 l0 -83 ZM319 601 l361 0 l0 87 l-361 0 l0 -87 ZM473 251 l54 0 l0 -87 l208 0 l0 -49 l-208 0 l0 -127 l348 0 l0 -51 l-757 0 l0 51 l355 0 l0 127 l-210 0 l0 49 l210 0 l0 87 Z" /><glyph glyph-name="" unicode="&#x5806;" d="M506 380 l0 -154 l194 0 l0 154 l-194 0 ZM506 174 l0 -166 l194 0 l0 166 l-194 0 ZM506 -44 l0 -58 l-53 0 l0 615 q-44 -83 -97 -157 l-19 59 q122 184 171 398 l53 -10 q-19 -76 -52 -166 l430 0 l0 -52 l-186 0 l0 -153 l163 0 l0 -52 l-163 0 l0 -154 l163 0 l0 -52 l-163 0 l0 -166 l201 0 l0 -52 l-448 0 ZM700 585 l-194 0 l0 -153 l194 0 l0 153 ZM51 542 l135 0 l0 269 l54 0 l0 -269 l107 0 l0 -53 l-107 0 l0 -349 q74 27 138 58 l0 -53 q-151 -72 -318 -116 l-14 54 q61 14 140 38 l0 368 l-135 0 l0 53 ZM703 817 q38 -86 57 -157 l-46 -17 q-29 88 -64 160 l53 14 Z" /><glyph glyph-name="" unicode="&#x5835;" d="M389 693 l182 0 l0 120 l53 0 l0 -120 l168 0 l0 -49 l-168 0 l0 -144 l72 0 q111 110 193 261 l47 -26 q-70 -130 -166 -235 l179 0 l0 -50 l-228 0 q-70 -65 -146 -115 l297 0 l0 -432 l-53 0 l0 48 l-307 0 l0 -48 l-52 0 l0 367 q-57 -27 -124 -51 l-29 47 q189 63 334 184 l-281 0 l0 50 l211 0 l0 144 l-182 0 l0 49 ZM512 121 l0 -120 l307 0 l0 120 l-307 0 ZM819 169 l0 116 l-307 0 l0 -116 l307 0 ZM48 547 l118 0 l0 262 l53 0 l0 -262 l102 0 l0 -54 l-102 0 l0 -366 q61 18 139 47 l0 -56 q-138 -52 -310 -89 l-15 55 q59 10 133 29 l0 380 l-118 0 l0 54 Z" /><glyph glyph-name="" unicode="&#x585e;" d="M202 593 l153 0 l0 93 l54 0 l0 -93 l182 0 l0 93 l53 0 l0 -93 l155 0 l0 -47 l-155 0 l0 -85 l145 0 l0 -45 l-145 0 l0 -85 l280 0 l0 -47 l-242 0 q84 -95 263 -149 l-23 -49 q-208 75 -292 198 l-265 0 q-88 -121 -285 -200 l-27 46 q179 62 259 154 l-234 0 l0 47 l277 0 l0 85 l-143 0 l0 45 l143 0 l0 85 l-153 0 l0 47 ZM409 331 l182 0 l0 85 l-182 0 l0 -85 ZM591 461 l0 85 l-182 0 l0 -85 l182 0 ZM263 152 l210 0 l0 81 l54 0 l0 -81 l210 0 l0 -47 l-210 0 l0 -114 l362 0 l0 -50 l-779 0 l0 50 l363 0 l0 114 l-210 0 l0 47 ZM900 734 l0 -179 l-52 0 l0 132 l-696 0 l0 -132 l-52 0 l0 179 l377 0 q-22 44 -49 80 l57 10 q26 -44 47 -90 l368 0 Z" /><glyph glyph-name="" unicode="&#x586b;" d="M367 734 l253 0 q6 42 9 84 l54 -7 l-9 -77 l252 0 l0 -47 l-259 0 q-5 -34 -14 -77 l212 0 l0 -465 l94 0 l0 -50 l-627 0 l0 50 l97 0 l0 465 l171 0 l7 39 l7 38 l-247 0 l0 47 ZM481 145 l332 0 l0 77 l-332 0 l0 -77 ZM481 262 l332 0 l0 74 l-332 0 l0 -74 ZM481 376 l332 0 l0 73 l-332 0 l0 -73 ZM481 490 l332 0 l0 76 l-332 0 l0 -76 ZM749 65 q105 -52 196 -126 l-33 -38 q-99 80 -197 133 l34 31 ZM580 38 q-90 -79 -217 -137 l-32 41 q123 53 212 128 l37 -32 ZM53 564 l117 0 l0 250 l53 0 l0 -250 l108 0 l0 -52 l-108 0 l0 -333 q42 14 108 40 l0 -54 q-125 -51 -272 -84 l-13 53 q60 11 124 29 l0 349 l-117 0 l0 52 Z" /><glyph glyph-name="" unicode="&#x5883;" d="M376 734 l238 0 q-15 44 -30 81 l56 9 q11 -28 29 -90 l244 0 l0 -47 l-108 0 q-15 -61 -42 -119 l179 0 l0 -47 l-596 0 l0 47 l165 0 q-19 71 -38 119 l-97 0 l0 47 ZM709 568 q31 57 45 119 l-226 0 q20 -58 36 -119 l145 0 ZM413 447 l455 0 l0 -305 l-130 0 l0 -142 q0 -35 33 -35 l93 0 q22 0 31 14 q13 20 16 104 l49 -16 q-8 -105 -28 -130 q-19 -19 -58 -19 l-117 0 q-72 0 -72 71 l0 153 l-107 0 q-18 -94 -76 -149 q-62 -58 -206 -91 l-21 49 q130 27 187 75 q49 41 67 116 l-116 0 l0 305 ZM817 188 l0 87 l-354 0 l0 -87 l354 0 ZM463 316 l354 0 l0 86 l-354 0 l0 -86 ZM349 149 q-138 -69 -297 -114 l-14 58 q60 15 120 33 l0 385 l-112 0 l0 53 l112 0 l0 244 l53 0 l0 -244 l97 0 l0 -53 l-97 0 l0 -367 q80 31 138 59 l0 -54 Z" /><glyph glyph-name="" unicode="&#x5899;" d="M896 360 l0 -456 l-51 0 l0 39 l-398 0 l0 -39 l-51 0 l0 456 l500 0 ZM447 -11 l398 0 l0 324 l-398 0 l0 -324 ZM536 240 l223 0 l0 -177 l-223 0 l0 177 ZM715 103 l0 98 l-136 0 l0 -98 l136 0 ZM369 737 l248 0 l0 79 l53 0 l0 -79 l244 0 l0 -49 l-244 0 l0 -198 l97 0 q39 75 65 154 l48 -17 q-26 -75 -60 -137 l133 0 l0 -49 l-617 0 l0 49 l139 0 q-29 74 -61 126 l47 19 q39 -73 65 -145 l91 0 l0 198 l-248 0 l0 49 ZM55 539 l98 0 l0 275 l53 0 l0 -275 l96 0 l0 -53 l-96 0 l0 -341 q72 29 127 57 l0 -54 q-127 -65 -276 -109 l-15 56 q62 15 111 31 l0 360 l-98 0 l0 53 Z" /><glyph glyph-name="" unicode="&#x589e;" d="M52 542 l115 0 l0 268 l53 0 l0 -268 l107 0 l0 -52 l-107 0 l0 -355 q67 27 124 57 l0 -54 q-135 -68 -283 -109 l-14 52 q56 14 120 35 l0 374 l-115 0 l0 52 ZM524 813 q26 -62 46 -130 l155 0 q29 68 41 138 l53 -7 q-15 -71 -42 -131 l139 0 l0 -324 l-538 0 l0 324 l141 0 q-24 69 -49 120 l54 10 ZM868 404 l0 231 l-201 0 l0 -231 l201 0 ZM623 404 l0 231 l-197 0 l0 -231 l197 0 ZM520 588 q28 -59 50 -131 l-37 -10 q-23 72 -50 129 l37 12 ZM807 583 q-22 -80 -51 -139 l-37 13 q29 59 49 136 l39 -10 ZM880 282 l0 -380 l-52 0 l0 46 l-358 0 l0 -46 l-52 0 l0 380 l462 0 ZM470 -6 l358 0 l0 99 l-358 0 l0 -99 ZM470 137 l358 0 l0 100 l-358 0 l0 -100 Z" /><glyph glyph-name="" unicode="&#x2f20;&#x58eb;" d="M57 486 l417 0 l0 329 l54 0 l0 -329 l414 0 l0 -53 l-414 0 l0 -421 l377 0 l0 -54 l-808 0 l0 54 l377 0 l0 421 l-417 0 l0 53 Z" /><glyph glyph-name="" unicode="&#x58f0;" d="M72 728 l401 0 l0 89 l54 0 l0 -89 l400 0 l0 -50 l-400 0 l0 -107 l349 0 l0 -49 l-750 0 l0 49 l347 0 l0 107 l-401 0 l0 50 ZM480 388 l-268 0 l0 -86 q0 -19 -2 -55 l270 0 l0 141 ZM535 247 l265 0 l0 141 l-265 0 l0 -141 ZM205 198 q-21 -170 -111 -299 l-43 39 q106 141 108 364 l0 135 l694 0 l0 -239 l-648 0 Z" /><glyph glyph-name="" unicode="&#x5904;" d="M302 807 q-15 -81 -33 -153 l227 0 l0 -48 q-43 -266 -159 -445 q41 -65 87 -98 q122 -86 385 -88 q63 0 146 5 l-11 -57 l-109 0 q-304 0 -442 100 q-47 35 -86 94 q-94 -125 -222 -203 l-29 51 q131 78 219 204 q-56 107 -94 254 q-43 -82 -91 -139 l-37 45 q146 181 197 488 l52 -10 ZM213 492 q39 -168 93 -276 q97 162 137 387 l-189 0 q-17 -54 -41 -111 ZM649 810 l54 0 l0 -255 q122 -88 253 -210 l-31 -48 q-127 127 -222 202 l0 -438 l-54 0 l0 749 Z" /><glyph glyph-name="" unicode="&#x5907;" d="M808 331 l0 -428 l-52 0 l0 48 l-510 0 l0 -48 l-52 0 l0 428 l614 0 ZM246 -1 l228 0 l0 119 l-228 0 l0 -119 ZM526 -1 l230 0 l0 119 l-230 0 l0 -119 ZM246 164 l228 0 l0 119 l-228 0 l0 -119 ZM526 283 l0 -119 l230 0 l0 119 l-230 0 ZM430 814 q-22 -36 -53 -75 l416 0 l0 -42 q-95 -117 -239 -203 q168 -75 400 -105 l-25 -49 q-250 38 -426 126 q-183 -93 -434 -135 l-24 47 q231 34 407 116 q-104 60 -176 136 q-69 -62 -147 -110 l-35 42 q177 105 282 264 l54 -12 ZM309 662 q78 -83 193 -143 q130 71 224 171 l-390 0 q-19 -19 -27 -28 Z" /><glyph glyph-name="" unicode="&#x590d;" d="M273 688 q-67 -112 -180 -198 l-33 43 q157 117 215 290 l54 -9 q-14 -43 -31 -79 l597 0 l0 -47 l-622 0 ZM224 606 l588 0 l0 -305 l-397 0 q-28 -45 -60 -80 l457 0 l0 -40 q-81 -105 -214 -169 q156 -49 344 -56 l-12 -50 q-223 9 -396 78 q-175 -67 -430 -82 l-23 48 q224 10 388 62 q-114 55 -201 133 q-66 -46 -146 -83 l-28 46 q181 75 264 193 l-134 0 l0 305 ZM533 35 q130 53 212 141 l-438 0 l-3 -3 q99 -86 229 -138 ZM759 345 l0 88 l-482 0 l0 -88 l482 0 ZM277 476 l482 0 l0 86 l-482 0 l0 -86 Z" /><glyph glyph-name="" unicode="&#x5916;" d="M646 813 l54 0 l0 -306 q128 -95 259 -215 l-34 -49 q-132 132 -225 204 l0 -544 l-54 0 l0 910 ZM225 413 q88 -49 161 -114 q77 139 101 315 l-214 0 q-74 -173 -194 -284 l-37 46 q175 163 236 438 l54 -10 q-17 -73 -39 -137 l246 0 l0 -48 q-51 -454 -441 -688 l-36 46 q191 112 298 278 q-83 74 -164 115 l29 43 Z" /><glyph glyph-name="" unicode="&#x591a;" d="M552 790 q-36 -41 -70 -68 l301 0 l0 -44 q-162 -288 -601 -323 l-23 50 q144 9 255 45 q-49 63 -105 111 l47 23 q60 -55 109 -116 q167 69 255 204 l-309 0 q-117 -71 -277 -105 l-32 48 q270 54 402 200 l48 -25 ZM449 192 q64 -65 116 -135 q179 76 278 225 l-309 0 q-134 -64 -319 -94 l-32 48 q325 33 485 202 l46 -25 q-43 -46 -94 -81 l292 0 l0 -43 q-211 -357 -791 -369 l-22 53 q242 3 415 64 q-55 74 -113 131 l48 24 Z" /><glyph glyph-name="" unicode="&#x591f;" d="M100 483 l222 0 l0 -331 l-222 0 l0 331 ZM275 200 l0 235 l-128 0 l0 -235 l128 0 ZM228 809 q-9 -49 -26 -106 l250 0 q0 -521 -14 -650 q-14 -140 -137 -140 q-22 0 -76 3 l-13 47 q64 -2 84 -2 q81 0 93 109 q10 94 13 582 l-218 0 q-42 -111 -113 -200 l-31 40 q99 132 135 323 l53 -6 ZM819 413 q-23 -49 -55 -87 l183 0 l0 -44 q-75 -269 -440 -383 l-26 48 q144 42 243 110 q-53 59 -101 100 l38 28 q47 -40 100 -100 q97 84 133 195 l-173 0 q-81 -73 -204 -117 l-30 44 q207 69 286 226 l46 -20 ZM741 807 q-18 -45 -45 -84 l201 0 l0 -44 q-73 -227 -378 -325 l-29 42 q115 35 194 87 q-50 56 -87 79 l37 28 q53 -39 85 -81 q87 72 127 167 l-187 0 q-58 -64 -136 -111 l-32 41 q147 87 198 212 l52 -11 Z" /><glyph glyph-name="" unicode="&#x2f24;&#x5927;" d="M64 546 l394 0 q13 91 15 191 l0 76 l54 0 l0 -64 q0 -108 -15 -203 l424 0 l0 -54 l-401 0 q105 -353 419 -541 l-33 -44 q-315 192 -425 553 q-85 -387 -418 -559 l-34 45 q329 162 405 546 l-385 0 l0 54 Z" /><glyph glyph-name="" unicode="&#x5929;" d="M81 455 l368 0 q22 115 29 248 l-370 0 l0 52 l784 0 l0 -52 l-359 0 q-9 -145 -28 -248 l417 0 l0 -53 l-378 0 q104 -298 407 -457 l-33 -44 q-320 170 -425 498 q-26 -116 -71 -196 q-101 -176 -340 -302 l-35 44 q228 118 323 277 q40 69 68 180 l-357 0 l0 53 Z" /><glyph glyph-name="" unicode="&#x592a;" d="M63 596 l393 0 q8 75 10 169 l0 45 l54 0 l0 -33 q0 -84 -10 -181 l428 0 l0 -54 l-408 0 q107 -389 430 -594 l-34 -44 q-319 208 -433 588 q-39 -184 -127 -321 q79 -73 178 -197 l-39 -39 q-88 117 -168 194 q-106 -140 -263 -224 l-35 45 q340 175 409 592 l-385 0 l0 54 Z" /><glyph glyph-name="" unicode="&#x592e;" d="M814 666 l0 -335 l117 0 l0 -53 l-383 0 q84 -196 401 -329 l-35 -46 q-326 142 -413 356 q-66 -202 -407 -355 l-36 46 q330 141 399 328 l-385 0 l0 53 l114 0 l0 335 l287 0 l0 149 l54 0 l0 -149 l287 0 ZM240 331 l231 0 q0 6 2 12 l0 271 l-233 0 l0 -283 ZM760 331 l0 283 l-233 0 l0 -271 q0 -6 3 -12 l230 0 Z" /><glyph glyph-name="" unicode="&#x5931;" d="M308 774 q-25 -71 -59 -140 l225 0 l0 180 l54 0 l0 -180 l343 0 l0 -54 l-343 0 l0 -77 q-1 -76 -12 -141 l419 0 l0 -53 l-384 0 q77 -230 402 -356 l-30 -47 q-342 144 -420 397 q-28 -107 -86 -186 q-104 -136 -341 -211 l-31 46 q236 75 335 204 q43 64 68 153 l-382 0 l0 53 l394 0 q13 69 14 141 l0 77 l-255 0 q-55 -92 -123 -154 l-44 39 q136 124 205 330 l51 -21 Z" /><glyph glyph-name="" unicode="&#x5934;" d="M73 339 l453 0 q23 84 26 193 l0 276 l55 0 l0 -276 q-3 -108 -25 -193 l350 0 l0 -54 l-366 0 q-29 -88 -85 -159 q-118 -142 -385 -221 l-31 46 q266 78 381 215 q39 53 63 119 l-436 0 l0 54 ZM650 193 q168 -120 289 -247 l-40 -40 q-101 115 -286 251 l37 36 ZM137 598 q130 -59 238 -140 l-31 -47 q-117 91 -237 143 l30 44 ZM250 760 q112 -58 201 -136 l-29 -44 q-100 87 -201 137 l29 43 Z" /><glyph glyph-name="" unicode="&#x5939;" d="M104 685 l367 0 l0 129 l55 0 l0 -129 l370 0 l0 -52 l-370 0 l0 -153 q-1 -74 -14 -145 l148 0 q61 101 107 244 l53 -14 q-41 -127 -102 -230 l218 0 l0 -52 l-385 0 q75 -211 395 -327 l-28 -47 q-341 135 -416 374 l-2 0 q-28 -100 -84 -174 q-103 -130 -335 -203 l-29 46 q231 72 328 196 q41 60 63 135 l-379 0 l0 52 l392 0 q14 69 15 145 l0 153 l-367 0 l0 52 ZM228 576 q41 -85 73 -199 l-50 -13 q-29 99 -74 195 l51 17 Z" /><glyph glyph-name="" unicode="&#x5947;" d="M115 733 l364 0 l1 2 l0 2 q3 21 3 76 l54 0 q0 -64 -3 -76 l0 -2 l-1 -2 l358 0 l0 -51 l-373 0 q-14 -31 -32 -55 q216 -52 391 -120 l-30 -46 q-191 80 -394 129 q-101 -92 -299 -130 l-29 47 q274 45 337 175 l-347 0 l0 51 ZM63 422 l874 0 l0 -52 l-140 0 l0 -379 q0 -87 -93 -87 l-109 0 l-11 52 q72 -4 101 -4 q58 0 58 52 l0 366 l-680 0 l0 52 ZM189 276 l376 0 l0 -241 l-376 0 l0 241 ZM513 83 l0 146 l-273 0 l0 -146 l273 0 Z" /><glyph glyph-name="" unicode="&#x5948;" d="M265 464 l467 0 l0 -50 l-467 0 l0 50 ZM141 295 l717 0 l0 -50 l-322 0 l0 -257 q0 -80 -78 -80 l-124 0 l-12 51 q82 -4 117 -4 q43 0 43 47 l0 243 l-341 0 l0 50 ZM675 183 q149 -100 247 -200 l-39 -38 q-90 96 -244 205 l36 33 ZM355 144 q-103 -115 -252 -200 l-34 44 q149 82 248 190 l38 -34 ZM527 808 q-18 -54 -45 -103 l406 0 l0 -51 l-266 0 q103 -135 319 -211 l-24 -49 q-251 99 -353 260 l-114 0 q-120 -172 -363 -261 l-26 46 q216 81 324 215 l-270 0 l0 51 l306 0 q31 50 51 109 l55 -6 Z" /><glyph glyph-name="" unicode="&#x5951;" d="M60 230 l407 0 q7 45 8 96 l55 0 q0 -51 -8 -96 l418 0 l0 -54 l-396 0 q99 -165 411 -225 l-22 -49 q-346 74 -430 262 q-81 -184 -433 -262 l-22 49 q326 69 401 225 l-389 0 l0 54 ZM542 711 l0 48 l368 0 q-2 -304 -31 -363 q-30 -60 -102 -60 q-36 0 -84 3 l-14 50 q21 -1 47 -2 l21 -1 l18 -1 q58 3 73 55 q15 51 18 271 l-146 0 q-21 -133 -57 -215 q-44 -84 -128 -152 l-33 41 q73 59 112 133 q34 69 53 193 l-115 0 ZM88 741 l173 0 l0 72 l54 0 l0 -72 l174 0 l0 -49 l-174 0 l0 -94 l154 0 l0 -48 l-154 0 l0 -97 l175 0 l0 -49 l-175 0 l0 -92 l-54 0 l0 92 l-188 0 l0 49 l188 0 l0 97 l-155 0 l0 48 l155 0 l0 94 l-173 0 l0 49 Z" /><glyph glyph-name="" unicode="&#x5957;" d="M708 554 q-84 54 -137 122 l-118 0 q-55 -67 -138 -122 l393 0 ZM628 676 q103 -111 325 -175 l-24 -49 q-114 39 -196 87 l0 -33 l-421 0 l0 -73 l471 0 l0 -46 l-471 0 l0 -73 l471 0 l0 -45 l-471 0 l0 -77 l614 0 l0 -49 l-529 0 q-67 -119 -126 -172 q248 14 471 48 q-31 47 -65 89 l47 15 q79 -92 138 -200 l-49 -22 q-19 35 -42 73 q-281 -42 -589 -54 l-14 47 q76 7 165 176 l-261 0 l0 49 l188 0 l0 330 q-81 -43 -184 -76 l-26 47 q222 69 336 183 l-300 0 l0 50 l343 0 q32 44 50 89 l52 -6 q-19 -45 -42 -83 l424 0 l0 -50 l-285 0 Z" /><glyph glyph-name="" unicode="&#x2f25;&#x5973;" d="M61 583 l271 0 q47 107 95 236 l55 -16 q-40 -108 -89 -220 l546 0 l0 -53 l-173 0 q-44 -211 -168 -353 q32 -17 53 -30 q144 -85 278 -201 l-42 -41 q-138 119 -291 210 q-22 13 -37 21 q-169 -164 -464 -230 l-23 51 q276 60 437 206 q-138 71 -315 134 q58 111 114 233 l-247 0 l0 53 ZM549 203 q123 135 162 327 l-341 0 q-44 -99 -100 -208 q157 -57 279 -119 Z" /><glyph glyph-name="" unicode="&#x597d;" d="M274 822 q-8 -50 -18 -106 q-8 -39 -19 -98 l178 0 l0 -33 q-17 -243 -103 -417 q99 -78 149 -128 l-37 -42 q-57 57 -138 123 q-78 -130 -198 -222 l-36 46 q119 87 192 210 q-65 52 -156 118 q48 136 84 292 l-114 0 l0 53 l125 0 q23 111 38 210 l53 -6 ZM269 201 q76 156 93 364 l-137 0 q-38 -166 -78 -275 q66 -46 122 -89 ZM456 389 l235 0 l0 134 q84 74 159 180 l-363 0 l0 54 l426 0 l0 -54 q-73 -105 -168 -198 l0 -116 l212 0 l0 -54 l-212 0 l0 -337 q0 -85 -74 -85 l-140 0 l-14 52 q80 -2 132 -2 q42 0 42 52 l0 320 l-235 0 l0 54 Z" /><glyph glyph-name="" unicode="&#x5982;" d="M895 719 l0 -772 l-53 0 l0 60 l-228 0 l0 -60 l-54 0 l0 772 l335 0 ZM614 60 l228 0 l0 605 l-228 0 l0 -605 ZM283 811 l-9 -49 l-8 -47 q-10 -52 -18 -89 l212 0 l0 -34 q-18 -250 -119 -427 q98 -75 157 -131 l-37 -44 q-58 56 -149 129 q-85 -125 -213 -212 l-36 44 q128 84 207 201 q-86 66 -174 128 q50 141 86 293 l-126 0 l0 53 l137 0 q22 104 35 191 l55 -6 ZM298 197 q93 163 110 376 l-171 0 q-37 -165 -80 -276 q89 -62 141 -100 Z" /><glyph glyph-name="" unicode="&#x59cb;" d="M225 812 l-7 -52 l-7 -49 q-8 -57 -14 -94 l152 0 l0 -32 q-12 -246 -87 -423 q71 -72 121 -137 l-36 -42 q-45 59 -109 127 q-60 -120 -155 -209 l-34 42 q93 86 152 206 q-59 60 -131 128 q37 136 65 289 l-88 0 l0 51 l97 0 q19 124 28 201 l53 -6 ZM224 201 q63 157 75 365 l-111 0 q-31 -169 -61 -272 q48 -44 97 -93 ZM880 318 l0 -416 l-52 0 l0 63 l-331 0 l0 -63 l-52 0 l0 416 l435 0 ZM497 17 l331 0 l0 251 l-331 0 l0 -251 ZM392 469 q98 60 224 346 l51 -17 q-97 -213 -192 -325 q191 13 355 39 q-52 95 -95 163 l47 23 q83 -129 160 -290 l-49 -25 q-26 54 -39 82 q-202 -30 -452 -45 l-10 49 Z" /><glyph glyph-name="" unicode="&#x59d3;" d="M230 812 q-15 -118 -28 -195 l161 0 l0 -32 q-13 -242 -89 -420 q73 -72 116 -123 l-36 -42 q-41 51 -104 114 q-67 -129 -164 -215 l-36 46 q100 86 161 207 q-67 65 -135 125 q38 140 64 289 l-88 0 l0 51 l97 0 q19 124 28 201 l53 -6 ZM234 203 q66 158 78 363 l-118 0 q-31 -169 -61 -272 l27 -24 l25 -23 q29 -25 49 -44 ZM497 562 q-24 -130 -81 -209 l-39 36 q83 115 86 352 l50 0 q-1 -63 -8 -126 l154 0 l0 199 l53 0 l0 -199 l215 0 l0 -53 l-215 0 l0 -256 l202 0 l0 -53 l-202 0 l0 -267 l242 0 l0 -53 l-547 0 l0 53 l252 0 l0 267 l-206 0 l0 53 l206 0 l0 256 l-162 0 Z" /><glyph glyph-name="" unicode="&#x5a01;" d="M236 478 l0 47 l319 0 l0 -47 l-138 0 q-11 -48 -34 -125 l172 0 l0 -43 q-27 -118 -86 -203 q52 -32 93 -64 l-28 -41 q-45 34 -95 65 q-80 -95 -208 -153 l-27 46 q117 51 191 134 q-77 44 -135 73 q27 65 54 139 l-84 0 l0 47 l100 0 q27 84 37 125 l-131 0 ZM426 133 q52 74 80 173 l-139 0 q-20 -59 -45 -118 q53 -25 104 -55 ZM884 527 q-49 -245 -135 -400 q15 -43 23 -60 q42 -90 77 -91 q29 6 59 178 l49 -31 q-19 -84 -42 -141 q-27 -68 -63 -68 q-52 0 -105 95 q-18 32 -30 65 q-66 -97 -145 -151 l-29 44 q88 61 152 169 q-17 56 -38 152 q-26 132 -34 349 l-447 0 l0 -220 q-4 -315 -81 -504 l-45 40 q72 166 75 464 l0 271 l496 0 q-2 40 -2 123 l53 0 q0 -83 1 -123 l136 0 q-23 57 -49 100 l51 8 q26 -50 47 -108 l70 0 l0 -51 l-254 0 q6 -174 28 -309 q12 -75 27 -130 q69 142 108 350 l47 -21 Z" /><glyph glyph-name="" unicode="&#x5a92;" d="M224 812 q-15 -118 -28 -195 l162 0 l0 -32 q-13 -239 -89 -414 q70 -66 110 -111 l-36 -42 q-40 48 -97 103 q-66 -129 -168 -219 l-35 42 q102 89 165 213 q-78 72 -136 121 q36 138 62 288 l-85 0 l0 51 l94 0 q19 124 28 201 l53 -6 ZM230 206 q65 157 77 360 l-119 0 q-28 -165 -60 -273 q57 -46 102 -87 ZM789 408 l0 105 l-255 0 l0 -105 l255 0 ZM534 561 l255 0 l0 106 l-255 0 l0 -106 ZM534 717 l255 0 l0 95 l51 0 l0 -95 l90 0 l0 -50 l-90 0 l0 -306 l-152 0 l0 -101 l263 0 l0 -50 l-205 0 q63 -121 217 -218 l-37 -45 q-157 117 -219 263 l-19 0 l0 -303 l-54 0 l0 303 l-14 0 q-70 -162 -234 -264 l-30 48 q154 85 223 216 l-207 0 l0 50 l262 0 l0 101 l-153 0 l0 306 l-93 0 l0 50 l93 0 l0 95 l53 0 l0 -95 Z" /><glyph glyph-name="" unicode="&#x2f26;&#x5b50;" d="M66 377 l428 0 l0 152 q134 74 258 185 l-582 0 l0 52 l657 0 l0 -52 q-119 -112 -280 -215 l0 -122 l387 0 l0 -53 l-387 0 l0 -326 q0 -89 -85 -89 l-168 0 l-15 52 l78 0 q53 -1 83 -1 q54 0 54 56 l0 308 l-428 0 l0 53 Z" /><glyph glyph-name="" unicode="&#x5b57;" d="M920 706 l0 -214 l-55 0 l0 162 l-730 0 l0 -162 l-55 0 l0 214 l402 0 q-19 59 -45 105 l60 10 q21 -45 44 -115 l379 0 ZM233 532 l531 0 l0 -50 q-103 -73 -225 -137 l0 -82 l401 0 l0 -52 l-401 0 l0 -230 q0 -75 -77 -75 l-122 0 l-14 51 q34 -1 56 -1 q33 -1 61 -1 q43 0 43 44 l0 212 l-425 0 l0 52 l425 0 l0 106 q133 69 198 113 l-451 0 l0 50 Z" /><glyph glyph-name="" unicode="&#x5b58;" d="M76 705 l280 0 q25 65 37 112 l55 -6 q-11 -41 -34 -106 l520 0 l0 -53 l-541 0 q-52 -125 -136 -238 l0 -514 l-54 0 l0 447 q-62 -71 -127 -128 l-33 44 q193 169 291 389 l-258 0 l0 53 ZM342 244 l297 0 l0 101 q95 54 172 121 l-391 0 l0 51 l461 0 l0 -51 q-81 -75 -188 -144 l0 -78 l257 0 l0 -53 l-257 0 l0 -208 q0 -78 -79 -78 l-125 0 l-14 51 q72 -2 118 -2 q46 0 46 46 l0 191 l-297 0 l0 53 Z" /><glyph glyph-name="" unicode="&#x5b66;" d="M915 607 l0 -210 l-54 0 l0 158 l-722 0 l0 -158 l-54 0 l0 210 l571 0 q69 97 120 214 l54 -20 q-57 -119 -115 -194 l200 0 ZM232 453 l538 0 l0 -49 q-105 -68 -231 -128 l0 -62 l388 0 l0 -52 l-388 0 l0 -180 q0 -76 -78 -76 l-124 0 l-14 51 q72 -2 119 -2 q44 0 44 45 l0 162 l-413 0 l0 52 l413 0 l0 89 q135 60 205 101 l-459 0 l0 49 ZM209 806 q53 -67 106 -160 l-48 -23 q-52 92 -107 160 l49 23 ZM454 824 q50 -75 94 -166 l-48 -25 q-46 96 -96 167 l50 24 Z" /><glyph glyph-name="" unicode="&#x5b83;" d="M918 700 l0 -186 l-54 0 l0 134 l-728 0 l0 -134 l-54 0 l0 186 l404 0 q-22 63 -45 109 l58 10 q24 -50 42 -119 l377 0 ZM809 403 q-205 -101 -515 -167 l0 -194 q0 -58 53 -58 l368 0 q62 0 86 21 q34 29 44 162 l52 -17 q-13 -153 -56 -190 q-36 -30 -116 -30 l-395 0 q-91 0 -91 100 l0 522 l55 0 l0 -261 q282 59 478 154 l37 -42 Z" /><glyph glyph-name="" unicode="&#x5b88;" d="M75 414 l577 0 l0 159 l53 0 l0 -159 l219 0 l0 -53 l-219 0 l0 -366 q0 -88 -89 -88 l-137 0 l-11 53 q90 -4 129 -4 q55 0 55 52 l0 353 l-577 0 l0 53 ZM257 289 q114 -87 199 -181 l-40 -39 q-74 90 -195 184 l36 36 ZM895 711 l0 -204 l-54 0 l0 151 l-683 0 l0 -150 l-54 0 l0 203 l378 0 q-21 52 -55 106 l58 10 q28 -53 53 -116 l357 0 Z" /><glyph glyph-name="" unicode="&#x5b89;" d="M905 712 l0 -206 l-54 0 l0 153 l-703 0 l0 -152 l-54 0 l0 205 l383 0 q-22 54 -48 100 l60 10 q25 -50 47 -110 l369 0 ZM63 432 l282 0 q38 68 91 170 l55 -17 l-22 -41 l-21 -39 q-24 -45 -39 -73 l530 0 l0 -52 l-200 0 q-63 -166 -149 -263 q147 -65 322 -163 l-36 -46 q-162 95 -326 168 q-166 -151 -448 -160 l-32 51 q260 1 425 132 q0 1 2 1 q-146 64 -287 108 q59 92 105 172 l-252 0 l0 52 ZM379 380 l-13 -21 l-12 -20 q-14 -23 -23 -38 q-26 -41 -44 -69 q120 -36 251 -93 q90 94 143 241 l-302 0 Z" /><glyph glyph-name="" unicode="&#x5b8c;" d="M918 701 l0 -215 l-54 0 l0 163 l-730 0 l0 -163 l-54 0 l0 215 l394 0 q-21 60 -42 103 l60 10 q24 -56 40 -113 l386 0 ZM220 516 l556 0 l0 -52 l-556 0 l0 52 ZM68 328 l865 0 l0 -53 l-290 0 l0 -259 q0 -45 46 -45 l139 0 q32 0 46 19 q17 25 23 144 l51 -16 q-9 -140 -36 -173 q-23 -26 -73 -26 l-166 0 q-84 0 -84 86 l0 270 l-181 0 l0 -11 q-3 -147 -80 -236 q-75 -82 -245 -130 l-31 48 q168 44 236 118 q63 78 66 200 l0 11 l-286 0 l0 53 Z" /><glyph glyph-name="" unicode="&#x5b8f;" d="M82 447 l268 0 q21 74 37 164 l55 -7 q-15 -74 -38 -157 l516 0 l0 -51 l-532 0 q-102 -312 -296 -479 l-35 44 q187 167 277 435 l-252 0 l0 51 ZM729 206 q93 -125 167 -282 l-47 -25 q-22 45 -39 77 q-254 -34 -485 -54 l-10 51 q112 66 229 343 l54 -16 q-97 -222 -200 -325 q297 32 387 47 q-55 95 -104 162 l48 22 ZM893 713 l0 -193 l-54 0 l0 141 l-678 0 l0 -141 l-54 0 l0 193 l377 0 q-23 54 -51 100 l57 10 q25 -45 49 -110 l354 0 Z" /><glyph glyph-name="" unicode="&#x5b97;" d="M346 -91 l-12 51 q76 -4 107 -4 q53 0 53 47 l0 284 l-398 0 l0 53 l813 0 l0 -53 l-362 0 l0 -297 q0 -81 -87 -81 l-114 0 ZM884 709 l0 -193 l-53 0 l0 141 l-659 0 l0 -145 l-53 0 l0 197 l364 0 q-15 54 -33 99 l54 10 q17 -46 33 -109 l347 0 ZM234 519 l540 0 l0 -52 l-540 0 l0 52 ZM344 175 q-85 -131 -214 -232 l-33 42 q124 97 208 224 l39 -34 ZM707 216 q130 -119 211 -232 l-38 -38 q-80 114 -210 235 l37 35 Z" /><glyph glyph-name="" unicode="&#x5b98;" d="M906 717 l0 -195 l-54 0 l0 141 l-704 0 l0 -140 l-54 0 l0 194 l383 0 q-27 58 -59 101 l57 10 q30 -49 57 -111 l374 0 ZM765 548 l0 -235 l-480 0 l0 -118 l526 0 l0 -293 l-54 0 l0 43 l-472 0 l0 -44 l-54 0 l0 647 l534 0 ZM285 -7 l472 0 l0 155 l-472 0 l0 -155 ZM285 360 l427 0 l0 140 l-427 0 l0 -140 Z" /><glyph glyph-name="" unicode="&#x5b9a;" d="M210 512 l582 0 l0 -52 l-260 0 l0 -195 l306 0 l0 -52 l-306 0 l0 -224 q105 -16 258 -18 q49 0 159 4 l-11 -53 l-124 0 q-295 0 -421 54 q-103 50 -165 156 q-58 -136 -147 -229 l-35 43 q147 157 198 425 l52 -10 q-19 -91 -47 -174 q71 -139 184 -175 q21 -6 45 -12 l0 460 l-268 0 l0 52 ZM902 708 l0 -204 l-54 0 l0 152 l-696 0 l0 -156 l-54 0 l0 208 l387 0 q-21 53 -52 106 l57 10 q29 -57 50 -116 l362 0 Z" /><glyph glyph-name="" unicode="&#x5b9d;" d="M475 455 l-294 0 l0 52 l646 0 l0 -52 l-297 0 l0 -189 l264 0 l0 -52 l-264 0 l0 -228 l386 0 l0 -51 l-827 0 l0 51 l386 0 l0 228 l-271 0 l0 52 l271 0 l0 189 ZM703 177 q76 -85 115 -148 l-41 -30 q-37 62 -115 152 l41 26 ZM894 706 l0 -184 l-55 0 l0 131 l-683 0 l0 -139 l-55 0 l0 192 l380 0 q-18 45 -46 94 l57 10 q22 -40 46 -104 l356 0 Z" /><glyph glyph-name="" unicode="&#x5b9e;" d="M901 705 l0 -190 l-55 0 l0 139 l-692 0 l0 -143 l-55 0 l0 194 l384 0 q-22 62 -45 110 l57 10 q23 -57 41 -120 l365 0 ZM208 448 q110 -43 210 -109 l-29 -44 q-99 70 -208 113 l27 40 ZM271 601 q107 -42 203 -107 l-29 -43 q-97 72 -201 111 l27 39 ZM587 592 l54 0 l0 -101 q-3 -140 -45 -245 l336 0 l0 -51 l-360 0 q-16 -30 -39 -59 q215 -81 394 -192 l-31 -47 q-189 123 -395 200 q-122 -122 -381 -194 l-30 46 q275 74 388 202 l16 22 l15 22 l-444 0 l0 51 l471 0 q48 105 51 245 l0 101 Z" /><glyph glyph-name="" unicode="&#x5ba2;" d="M788 204 l0 -304 l-53 0 l0 45 l-451 0 l0 -45 l-53 0 l0 304 l557 0 ZM284 -5 l451 0 l0 160 l-451 0 l0 -160 ZM436 643 q-22 -35 -52 -74 l377 0 l0 -45 q-68 -91 -191 -160 q169 -73 386 -91 l-13 -50 q-243 21 -428 113 q-180 -85 -450 -134 l-21 50 q256 43 417 113 q-84 48 -161 114 q-62 -56 -131 -99 l-34 41 q156 93 248 235 l53 -13 ZM515 390 q114 57 182 131 l-355 0 q-6 -6 -9 -10 q84 -72 182 -121 ZM900 733 l0 -179 l-55 0 l0 130 l-690 0 l0 -130 l-55 0 l0 179 l374 0 q-16 40 -41 79 l59 10 q17 -32 38 -89 l370 0 Z" /><glyph glyph-name="" unicode="&#x5bb3;" d="M202 445 l271 0 l0 80 l-327 0 l0 30 l-50 0 l0 177 l389 0 q-18 47 -39 84 l56 10 q18 -37 38 -94 l366 0 l0 -158 l-54 0 l0 107 l-702 0 l0 -111 l323 0 l0 70 l54 0 l0 -70 l327 0 l0 -45 l-327 0 l0 -80 l272 0 l0 -43 l-272 0 l0 -85 l405 0 l0 -47 l-405 0 l0 -46 l-54 0 l0 46 l-404 0 l0 47 l404 0 l0 85 l-271 0 l0 43 ZM822 184 l0 -281 l-53 0 l0 44 l-537 0 l0 -44 l-53 0 l0 281 l643 0 ZM232 -6 l537 0 l0 143 l-537 0 l0 -143 Z" /><glyph glyph-name="" unicode="&#x5bb6;" d="M662 299 q-45 -16 -77 -23 q25 -73 28 -161 q0 -115 -31 -162 q-34 -49 -158 -49 l-35 0 l-18 47 l46 0 q92 2 116 28 q28 36 28 136 q-1 35 -6 67 q-165 -135 -452 -223 l-27 47 q305 90 467 229 q-11 43 -34 88 q-144 -116 -394 -188 l-26 47 q259 71 396 181 q-25 37 -49 62 l-16 -8 l-16 -8 q-111 -51 -270 -95 l-29 45 q146 34 261 83 q66 29 126 65 l-293 0 l0 51 l603 0 l0 -51 l-232 0 q-48 -33 -93 -60 q57 -58 90 -128 q146 39 276 125 l37 -36 q-81 -55 -174 -93 q72 -198 234 -315 l-38 -45 q-170 135 -240 344 ZM504 821 q20 -47 36 -101 l377 0 l0 -164 l-54 0 l0 113 l-727 0 l0 -113 l-54 0 l0 164 l405 0 q-15 42 -38 92 l55 9 Z" /><glyph glyph-name="" unicode="&#x5bb9;" d="M502 819 q18 -39 37 -94 l362 0 l0 -167 l-54 0 l0 116 l-694 0 l0 -122 l-54 0 l0 173 l385 0 q-17 45 -39 85 l57 9 ZM523 499 q124 -154 420 -272 l-29 -44 q-277 108 -412 269 q-164 -173 -418 -270 l-30 44 q276 105 426 273 l43 0 ZM790 224 l0 -322 l-53 0 l0 46 l-463 0 l0 -46 l-54 0 l0 322 l570 0 ZM274 -3 l463 0 l0 177 l-463 0 l0 -177 ZM611 620 q178 -91 303 -187 l-37 -37 q-108 88 -302 190 l36 34 ZM423 589 q-126 -110 -314 -193 l-32 42 q181 77 309 184 l37 -33 Z" /><glyph glyph-name="" unicode="&#x5bbd;" d="M175 560 l157 0 l0 69 l51 0 l0 -69 l236 0 l0 70 l51 0 l0 -70 l160 0 l0 -50 l-160 0 l0 -80 l-51 0 l0 80 l-236 0 l0 -80 l-51 0 l0 80 l-157 0 l0 50 ZM782 377 l0 -299 l-54 0 l0 247 l-456 0 l0 -247 l-54 0 l0 299 l564 0 ZM460 268 l53 0 l0 -63 q-4 -121 -107 -195 q-99 -66 -329 -105 l-30 46 q228 34 323 94 q87 62 90 160 l0 63 ZM612 -84 q-75 0 -75 72 l0 181 l53 0 l0 -171 q0 -33 38 -33 l172 0 q38 0 53 15 q21 21 28 115 l49 -16 q-9 -115 -39 -142 q-25 -21 -81 -21 l-198 0 ZM484 824 q29 -43 53 -93 l356 0 l0 -172 l-54 0 l0 121 l-680 0 l0 -118 l-54 0 l0 169 l376 0 q-25 45 -56 83 l59 10 Z" /><glyph glyph-name="" unicode="&#x5bc4;" d="M907 731 l0 -181 l-51 0 l0 132 l-712 0 l0 -132 l-51 0 l0 181 l385 0 q-19 45 -39 80 l56 10 q17 -36 37 -90 l375 0 ZM198 585 l285 0 q3 15 3 27 l0 39 l51 0 l0 -39 q0 -9 -2 -27 l267 0 l0 -48 l-280 0 q-8 -18 -16 -31 q170 -43 313 -105 l-28 -43 q-151 71 -315 112 q-16 -14 -25 -21 q-80 -55 -264 -88 l-29 43 q181 28 257 77 q32 25 51 56 l-268 0 l0 48 ZM60 341 l881 0 l0 -50 l-169 0 l0 -314 q0 -74 -80 -74 l-101 0 l-12 51 q66 -4 95 -4 q44 0 44 39 l0 302 l-658 0 l0 50 ZM209 216 l361 0 l0 -215 l-361 0 l0 215 ZM520 49 l0 119 l-261 0 l0 -119 l261 0 Z" /><glyph glyph-name="" unicode="&#x5bc6;" d="M913 729 l0 -195 l-53 0 l0 145 l-720 0 l0 -145 l-53 0 l0 195 l392 0 q-17 41 -36 79 l56 10 q12 -27 35 -89 l379 0 ZM476 205 l54 0 l0 -206 l271 0 l0 180 l54 0 l0 -278 l-54 0 l0 48 l-588 0 l0 -47 l-53 0 l0 270 l53 0 l0 -173 l263 0 l0 206 ZM441 649 q74 -69 113 -122 l-41 -29 q-42 59 -112 126 l40 25 ZM754 593 q-145 -177 -371 -290 q11 -17 40 -17 l203 0 q39 0 55 16 q23 21 30 116 l50 -16 q-9 -116 -41 -143 q-25 -21 -83 -21 l-230 0 q-61 0 -76 41 q-124 -55 -261 -92 l-21 46 q150 40 274 98 l0 209 l53 0 l0 -183 q209 109 337 267 l41 -31 ZM790 523 q105 -120 158 -210 l-43 -29 q-65 104 -155 211 l40 28 ZM272 566 q-43 -136 -123 -235 l-45 28 q80 95 120 217 l48 -10 Z" /><glyph glyph-name="" unicode="&#x5bcc;" d="M194 606 l611 0 l0 -45 l-611 0 l0 45 ZM236 495 l528 0 l0 -183 l-528 0 l0 183 ZM713 353 l0 100 l-426 0 l0 -100 l426 0 ZM853 248 l0 -346 l-52 0 l0 39 l-600 0 l0 -40 l-52 0 l0 347 l704 0 ZM201 -14 l272 0 l0 90 l-272 0 l0 -90 ZM527 -14 l274 0 l0 90 l-274 0 l0 -90 ZM201 118 l272 0 l0 86 l-272 0 l0 -86 ZM527 204 l0 -86 l274 0 l0 86 l-274 0 ZM917 731 l0 -181 l-52 0 l0 132 l-730 0 l0 -132 l-52 0 l0 181 l398 0 q-19 45 -39 80 l56 10 q18 -34 38 -90 l381 0 Z" /><glyph glyph-name="" unicode="&#x5bdf;" d="M149 211 l688 0 l0 -48 l-313 0 l0 -190 q0 -70 -68 -70 l-103 0 l-11 51 q66 -4 95 -4 q33 0 33 36 l0 177 l-321 0 l0 48 ZM229 510 q-31 -25 -63 -48 q47 -53 82 -106 q37 28 71 61 q-39 45 -90 93 ZM347 448 q41 47 75 107 l-144 0 l-19 -19 q51 -45 88 -88 ZM480 597 l0 -36 q-132 -255 -406 -348 l-24 43 q93 31 165 77 q-41 60 -83 107 q-19 -13 -44 -27 l-30 35 q160 87 254 219 l50 -11 q-22 -33 -45 -59 l163 0 ZM653 114 q143 -66 261 -159 l-30 -45 q-127 103 -259 162 l28 42 ZM347 96 q-52 -63 -103 -102 q-59 -46 -145 -84 l-29 44 q82 31 137 74 q55 43 97 95 l43 -27 ZM608 555 q26 -60 70 -113 q50 50 92 113 l-162 0 ZM710 407 q91 -92 234 -143 l-25 -45 q-136 50 -228 136 l0 -43 l-360 0 l0 47 l356 0 q-118 113 -157 283 l44 16 q5 -22 16 -57 l240 0 l0 -39 q-52 -87 -120 -155 ZM898 739 l0 -177 l-52 0 l0 128 l-686 0 l0 -125 l-52 0 l0 174 l378 0 q-20 44 -43 75 l58 9 q24 -41 40 -84 l357 0 Z" /><glyph glyph-name="" unicode="&#x2f28;&#x5bf8;" d="M69 617 l611 0 l0 189 l54 0 l0 -189 l204 0 l0 -53 l-204 0 l0 -564 q0 -86 -88 -86 l-182 0 l-12 52 q122 -4 175 -4 q53 0 53 52 l0 550 l-611 0 l0 53 ZM220 432 q142 -120 237 -238 l-39 -40 q-88 115 -237 242 l39 36 Z" /><glyph glyph-name="" unicode="&#x5bf9;" d="M479 616 l295 0 l0 200 l55 0 l0 -200 l118 0 l0 -53 l-118 0 l0 -568 q0 -89 -90 -89 l-161 0 l-12 52 q108 -4 154 -4 q54 0 54 55 l0 554 l-295 0 l0 53 ZM112 556 q99 -108 183 -216 q61 146 74 316 l-280 0 l0 53 l330 0 l0 -40 q-12 -209 -88 -376 q72 -98 122 -178 l-40 -40 q-43 73 -109 165 q-84 -153 -228 -270 l-31 47 q144 114 225 269 q-80 106 -196 235 l38 35 ZM522 432 q104 -126 159 -222 l-43 -30 q-64 110 -158 223 l42 29 Z" /><glyph glyph-name="" unicode="&#x5bfb;" d="M205 614 l543 0 l0 107 l-570 0 l0 50 l623 0 l0 -364 l-635 0 l0 50 l582 0 l0 108 l-543 0 l0 49 ZM61 294 l606 0 l0 79 l54 0 l0 -79 l219 0 l0 -53 l-219 0 l0 -255 q0 -78 -79 -78 l-130 0 l-12 52 q86 -4 123 -4 q44 0 44 44 l0 241 l-606 0 l0 53 ZM275 185 q105 -76 174 -151 l-38 -38 q-67 75 -174 154 l38 35 Z" /><glyph glyph-name="" unicode="&#x5bfc;" d="M55 255 l614 0 l0 71 l54 0 l0 -71 l221 0 l0 -54 l-221 0 l0 -225 q0 -76 -82 -76 l-130 0 l-12 52 q63 -3 123 -3 q47 0 47 39 l0 213 l-614 0 l0 54 ZM791 772 l0 -226 l-574 0 l0 -87 q0 -41 42 -43 l544 0 q34 0 48 23 q11 16 17 84 l51 -17 q-7 -65 -20 -97 q-23 -43 -82 -43 l-575 0 q-79 0 -79 76 l0 330 l628 0 ZM217 596 l520 0 l0 126 l-520 0 l0 -126 ZM269 159 q105 -83 172 -162 l-40 -40 q-64 79 -171 164 l39 38 Z" /><glyph glyph-name="" unicode="&#x5c01;" d="M81 672 l176 0 l0 131 l54 0 l0 -131 l174 0 l0 -51 l-174 0 l0 -146 l193 0 l0 -52 l-446 0 l0 52 l199 0 l0 146 l-176 0 l0 51 ZM74 252 l183 0 l0 126 l54 0 l0 -126 l179 0 l0 -51 l-179 0 l0 -186 q110 17 204 36 l0 -55 q-193 -41 -451 -67 l-7 57 q76 7 200 22 l0 193 l-183 0 l0 51 ZM519 607 l279 0 l0 209 l54 0 l0 -209 l94 0 l0 -53 l-94 0 l0 -553 q0 -89 -94 -89 l-127 0 l-12 52 q84 -4 120 -4 q59 0 59 54 l0 540 l-279 0 l0 53 ZM598 433 q70 -110 122 -237 l-45 -23 q-55 135 -123 240 l46 20 Z" /><glyph glyph-name="" unicode="&#x5c04;" d="M178 530 l0 -99 l243 0 l0 99 l-243 0 ZM421 575 l0 100 l-243 0 l0 -100 l243 0 ZM178 385 l0 -101 l243 0 l0 101 l-243 0 ZM49 284 l78 0 l0 439 l104 0 q25 50 35 98 l55 -7 q-15 -52 -37 -91 l187 0 l0 -731 q0 -78 -71 -78 l-128 0 l-14 51 l124 -3 q39 0 39 40 l0 206 q-129 -153 -350 -249 l-28 48 q223 90 349 229 l-343 0 l0 48 ZM600 428 q68 -104 123 -233 l-46 -24 q-56 135 -124 237 l47 20 ZM528 613 l273 0 l0 203 l55 0 l0 -203 l94 0 l0 -53 l-94 0 l0 -571 q0 -83 -85 -83 l-143 0 l-12 52 q96 -4 136 -4 q49 0 49 49 l0 557 l-273 0 l0 53 Z" /><glyph glyph-name="" unicode="&#x5c06;" d="M387 324 l387 0 l0 106 l54 0 l0 -106 l128 0 l0 -53 l-128 0 l0 -283 q0 -82 -87 -82 l-133 0 l-11 52 q86 -4 125 -4 q52 0 52 47 l0 270 l-387 0 l0 53 ZM261 815 l55 0 l0 -912 l-55 0 l0 349 q-105 -99 -195 -156 l-24 52 q90 54 219 168 l0 499 ZM504 219 q87 -97 132 -166 l-43 -30 q-49 78 -129 170 l40 26 ZM577 685 q-70 -83 -176 -138 l-35 42 q169 84 227 226 l56 -10 q-14 -36 -36 -70 l301 0 l0 -46 q-93 -223 -472 -314 l-28 48 q126 30 220 72 q-55 52 -106 87 l39 29 q59 -42 111 -93 q123 69 175 167 l-276 0 ZM90 695 q73 -98 128 -214 l-48 -21 q-59 125 -127 216 l47 19 Z" /><glyph glyph-name="" unicode="&#x2f29;&#x5c0f;" d="M297 -86 l-13 55 l36 -1 l35 -2 q39 -1 68 -1 q65 0 65 68 l0 766 l56 0 l0 -780 q0 -105 -101 -105 l-146 0 ZM278 546 q-74 -297 -193 -451 l-47 40 q124 161 187 432 l53 -21 ZM766 590 q128 -274 195 -475 l-49 -34 q-73 218 -195 479 l49 30 Z" /><glyph glyph-name="" unicode="&#x5c11;" d="M318 673 q-80 -236 -210 -359 l-45 40 q134 125 203 340 l52 -21 ZM803 359 q-175 -354 -696 -456 l-30 51 q512 98 678 433 l48 -28 ZM472 812 l56 0 l0 -583 l-56 0 l0 583 ZM695 711 q153 -165 266 -356 l-50 -26 q-119 201 -266 360 l50 22 Z" /><glyph glyph-name="" unicode="&#x5c14;" d="M720 383 q116 -180 201 -384 l-50 -23 q-90 221 -201 390 l50 17 ZM286 640 q-63 -136 -152 -223 l-39 36 q137 144 203 370 l52 -13 q-16 -53 -41 -118 l558 0 l0 -36 q-24 -108 -60 -213 l-54 15 q36 81 57 182 l-524 0 ZM326 -93 l-12 52 q84 -4 120 -4 q46 0 46 50 l0 532 l54 0 l0 -546 q0 -84 -81 -84 l-127 0 ZM338 359 q-95 -215 -218 -364 l-44 32 q124 147 215 355 l47 -23 Z" /><glyph glyph-name="" unicode="&#x5c1a;" d="M473 814 l54 0 l0 -288 l361 0 l0 -538 q0 -82 -82 -82 l-97 0 l-14 53 l94 -2 q45 0 45 43 l0 473 l-665 0 l0 -572 l-53 0 l0 625 l357 0 l0 288 ZM325 348 l354 0 l0 -285 l-354 0 l0 285 ZM627 113 l0 184 l-251 0 l0 -184 l251 0 ZM832 764 q-44 -109 -109 -189 l-44 25 q65 80 104 182 l49 -18 ZM222 765 q56 -78 96 -165 l-48 -21 q-44 93 -99 169 l51 17 Z" /><glyph glyph-name="" unicode="&#x5c1d;" d="M473 820 l54 0 l0 -177 l137 0 q53 75 89 158 l50 -18 q-42 -87 -82 -140 l189 0 l0 -218 l-55 0 l0 166 l-710 0 l0 -173 l-55 0 l0 225 l175 0 q-31 68 -79 128 l52 19 q43 -57 80 -147 l155 0 l0 177 ZM224 459 l554 0 l0 -52 l-554 0 l0 52 ZM69 269 l864 0 l0 -53 l-528 0 q-92 -171 -160 -239 q243 12 496 41 q-51 72 -97 128 l44 28 q121 -147 182 -250 l-47 -34 q-20 34 -51 82 q-275 -30 -598 -48 l-13 50 l7 2 l5 2 q67 46 173 238 l-277 0 l0 53 Z" /><glyph glyph-name="" unicode="&#x5c24;" d="M80 569 l320 0 l1 13 l0 230 l54 0 l0 -231 l-1 -12 l466 0 l0 -53 l-300 0 l0 -499 q0 -46 41 -46 l150 0 q43 0 62 24 q17 25 23 179 l52 -17 q-9 -169 -35 -204 q-26 -34 -93 -34 l-171 0 q-83 0 -83 90 l0 507 l-115 0 q-33 -411 -355 -612 l-43 37 q314 186 344 575 l-317 0 l0 53 ZM652 809 q93 -93 141 -162 l-43 -31 q-53 78 -141 166 l43 27 Z" /><glyph glyph-name="" unicode="&#x5c2c;" d="M739 520 l51 0 l0 -470 l-51 0 l0 470 ZM547 520 l52 0 l0 -123 q-3 -235 -120 -344 l-40 35 q107 98 108 309 l0 123 ZM697 803 q77 -184 263 -322 l-29 -44 q-174 126 -258 312 q-94 -209 -236 -322 l-28 43 q156 129 240 333 l48 0 ZM173 810 l52 0 l0 -189 l199 0 l0 -51 l-73 0 l0 -561 q0 -42 40 -42 l404 0 q51 0 75 21 q22 23 29 153 l48 -16 q-10 -146 -39 -178 q-29 -29 -105 -29 l-425 0 q-79 0 -79 84 l0 568 l-74 0 l0 -56 q-3 -423 -147 -618 l-40 36 q132 182 135 582 l0 56 l-115 0 l0 51 l115 0 l0 189 Z" /><glyph glyph-name="" unicode="&#x5c31;" d="M57 708 l212 0 q-22 55 -50 102 l57 9 q26 -51 47 -111 l187 0 l0 -52 l-453 0 l0 52 ZM111 560 l340 0 l0 -235 l-140 0 l0 -340 q0 -74 -72 -74 l-74 0 l-11 50 q46 -4 67 -4 q36 0 36 41 l0 327 l-146 0 l0 235 ZM400 372 l0 141 l-238 0 l0 -141 l238 0 ZM176 247 q-32 -130 -85 -235 l-47 17 q49 91 86 230 l46 -12 ZM415 262 q46 -103 72 -191 l-45 -17 q-30 99 -72 196 l45 12 ZM785 798 q76 -85 115 -146 l-41 -28 q-42 66 -115 148 l41 26 ZM615 813 l53 0 l0 -238 l257 0 l0 -53 l-137 0 l0 -518 q0 -36 33 -36 l32 0 q22 0 31 23 q13 31 17 177 l47 -15 q-6 -163 -28 -204 q-19 -31 -58 -31 l-56 0 q-68 0 -68 75 l0 529 l-71 0 q-9 -423 -169 -622 l-41 36 q151 187 158 586 l-103 0 l0 53 l103 0 l0 238 Z" /><glyph glyph-name="" unicode="&#x5c34;" d="M157 809 l50 0 l0 -206 l188 0 l0 -52 l-63 0 l0 -538 q0 -41 51 -41 l430 0 q48 0 71 10 q22 14 28 84 l49 -16 q-9 -89 -37 -108 q-30 -19 -102 -19 l-450 0 q-91 0 -91 83 l0 545 l-74 0 l0 -147 q-3 -343 -128 -503 l-41 36 q116 144 119 467 l0 147 l-89 0 l0 52 l89 0 l0 206 ZM742 646 q-28 -102 -75 -168 l-40 29 q76 113 97 309 l48 -8 q-7 -62 -18 -115 l177 0 l0 -47 l-189 0 ZM880 377 l0 -248 l56 0 l0 -49 l-542 0 l0 49 l64 0 l0 248 l422 0 ZM505 129 l81 0 l0 198 l-81 0 l0 -198 ZM630 129 l75 0 l0 198 l-75 0 l0 -198 ZM749 129 l84 0 l0 198 l-84 0 l0 -198 ZM793 592 q77 -81 117 -144 l-39 -27 q-41 64 -116 147 l38 24 ZM434 761 l47 0 l0 -308 l-47 0 l0 308 ZM558 806 l48 0 l0 -390 l-48 0 l0 390 Z" /><glyph glyph-name="" unicode="&#x5c3a;" d="M231 415 l0 -59 q-1 -260 -143 -447 l-41 37 q128 158 130 410 l0 410 l666 0 l0 -351 l-314 0 q77 -297 423 -459 l-30 -49 q-369 183 -447 508 l-244 0 ZM789 713 l-558 0 l0 -245 l558 0 l0 245 Z" /><glyph glyph-name="" unicode="&#x5c3d;" d="M366 388 q158 -67 289 -162 l-29 -45 q-143 105 -288 164 l28 43 ZM282 149 q250 -85 453 -202 l-30 -47 q-222 132 -453 206 l30 43 ZM226 495 l0 -49 q-1 -273 -147 -471 l-42 38 q132 169 134 433 l0 322 l684 0 l0 -273 l-152 0 q46 -272 260 -424 l-31 -47 q-232 172 -280 471 l-426 0 ZM800 715 l-574 0 l0 -168 l574 0 l0 168 Z" /><glyph glyph-name="" unicode="&#x5c3e;" d="M806 720 l-589 0 l0 -136 l589 0 l0 136 ZM217 535 l0 -89 q-2 -315 -127 -539 l-41 37 q112 195 114 502 l0 325 l698 0 l0 -236 l-644 0 ZM585 -83 q-74 0 -74 77 l0 100 l-264 -24 l0 47 l264 25 l0 100 l-218 -20 l0 48 l218 20 l0 100 q-90 -10 -219 -17 l-16 45 q318 15 536 68 l25 -42 q-130 -30 -272 -48 l0 -101 l293 26 l0 -47 l-293 -27 l0 -100 l357 33 l0 -48 l-357 -33 l0 -93 q0 -40 36 -40 l198 0 q38 0 54 11 q22 17 28 90 l49 -15 q-9 -93 -40 -118 q-28 -17 -82 -17 l-223 0 Z" /><glyph glyph-name="" unicode="&#x5c40;" d="M334 286 l341 0 l0 -243 l-341 0 l0 243 ZM626 90 l0 149 l-242 0 l0 -149 l242 0 ZM794 719 l-566 0 l0 -126 l566 0 l0 126 ZM228 542 l0 -101 l668 0 q0 -367 -15 -454 q-11 -79 -108 -79 q-39 0 -135 3 l-12 46 q81 -3 141 -3 q55 0 64 49 q10 64 13 388 l-616 0 l0 -5 q-1 -278 -138 -478 l-42 37 q125 171 126 441 l0 385 l673 0 l0 -229 l-619 0 Z" /><glyph glyph-name="" unicode="&#x5c42;" d="M326 426 l539 0 l0 -48 l-539 0 l0 48 ZM257 263 l672 0 l0 -50 l-386 0 q-100 -162 -174 -229 q218 15 424 46 q-45 55 -98 113 l41 25 q132 -141 193 -233 l-43 -31 q-28 42 -58 82 q-256 -35 -526 -52 l-13 48 l6 2 l5 2 q70 42 186 227 l-229 0 l0 50 ZM819 718 l-606 0 l0 -131 l606 0 l0 131 ZM213 536 l0 -90 q-2 -313 -124 -537 l-40 35 q109 195 111 502 l0 323 l713 0 l0 -233 l-660 0 Z" /><glyph glyph-name="" unicode="&#x5c45;" d="M207 359 q-15 -261 -119 -457 l-42 38 q110 198 111 509 l0 320 l721 0 l0 -233 l-283 0 l0 -126 l327 0 l0 -51 l-327 0 l0 -135 l258 0 l0 -324 l-52 0 l0 53 l-451 0 l0 -53 l-52 0 l0 324 l244 0 l0 135 l-335 0 ZM542 536 l-332 0 l0 -106 l-1 -20 l333 0 l0 126 ZM350 3 l451 0 l0 171 l-451 0 l0 -171 ZM824 718 l-614 0 l0 -133 l614 0 l0 133 Z" /><glyph glyph-name="" unicode="&#x5c4f;" d="M700 339 l-201 0 l0 -54 q-2 -55 -7 -95 l208 0 l0 149 ZM700 139 l-216 0 q-13 -57 -38 -104 q-51 -87 -166 -137 l-31 48 q108 45 154 125 q13 28 25 68 l-188 0 l0 51 l198 0 q7 50 8 95 l0 54 l-170 0 l0 52 l172 0 q-33 58 -63 98 l46 23 q42 -60 74 -121 l166 0 q47 59 81 128 l51 -19 q-34 -63 -75 -109 l175 0 l0 -52 l-150 0 l0 -149 l190 0 l0 -51 l-190 0 l0 -229 l-53 0 l0 229 ZM833 723 l-622 0 l0 -121 l622 0 l0 121 ZM211 551 l0 -102 q-1 -316 -111 -544 l-46 41 q103 196 104 503 l0 326 l729 0 l0 -224 l-676 0 Z" /><glyph glyph-name="" unicode="&#x5c55;" d="M258 430 l151 0 l0 115 l53 0 l0 -115 l218 0 l0 117 l-476 0 l0 -114 q0 -87 -11 -172 l216 0 l0 119 l-151 0 l0 50 ZM186 211 q-30 -172 -105 -309 l-43 38 q110 191 111 493 l0 339 l724 0 l0 -225 l-139 0 l0 -117 l162 0 l0 -50 l-162 0 l0 -119 l194 0 l0 -50 l-335 0 q41 -76 106 -135 q77 38 144 118 l37 -37 q-62 -74 -139 -114 q91 -66 218 -93 l-25 -50 q-281 69 -395 311 l-146 0 l0 -242 q105 27 179 60 l10 -50 q-111 -43 -255 -74 l-15 48 q28 12 28 40 l0 218 l-154 0 ZM462 261 l218 0 l0 119 l-218 0 l0 -119 ZM819 721 l-615 0 l0 -125 l615 0 l0 125 Z" /><glyph glyph-name="" unicode="&#x5c5e;" d="M314 427 l236 0 l0 63 q-140 -5 -271 -5 l-15 41 q355 1 590 29 l23 -41 q-110 -14 -275 -22 l0 -65 l240 0 l0 -167 l-240 0 l0 -67 l310 0 l0 -211 q0 -78 -72 -78 l-105 0 l-13 47 l102 -2 q38 0 38 43 l0 156 l-140 0 q42 -83 70 -162 l-40 -18 l-9 28 l-10 26 q-149 -22 -335 -37 l-10 45 q104 7 162 13 l0 105 l-235 0 l0 -245 l-51 0 l0 290 l286 0 l0 67 l-236 0 l0 167 ZM600 148 l0 -100 l59 7 l58 6 q-18 42 -36 78 l29 9 l-110 0 ZM793 302 l0 82 l-191 0 l0 -82 l191 0 ZM550 302 l0 82 l-186 0 l0 -82 l186 0 ZM838 728 l-632 0 l0 -88 l632 0 l0 88 ZM206 597 l0 -111 q-1 -331 -116 -572 l-41 36 q103 208 105 536 l0 287 l736 0 l0 -176 l-684 0 Z" /><glyph glyph-name="" unicode="&#x5cf0;" d="M76 691 l45 0 l0 -619 l40 5 l40 5 l0 727 l45 0 l0 -720 l81 15 l0 587 l45 0 l0 -687 l-45 0 l0 51 q-104 -20 -246 -34 l-21 44 q16 5 16 14 l0 612 ZM443 352 l208 0 l0 79 l54 0 l0 -79 l203 0 l0 -48 l-203 0 l0 -98 l181 0 l0 -48 l-181 0 l0 -95 l237 0 l0 -48 l-237 0 l0 -112 l-54 0 l0 112 l-232 0 l0 48 l232 0 l0 95 l-189 0 l0 48 l189 0 l0 98 l-208 0 l0 48 ZM645 805 q-18 -37 -41 -71 l266 0 l0 -43 q-44 -94 -148 -164 q103 -47 233 -70 l-19 -48 q-163 31 -265 86 q-108 -58 -263 -96 l-26 47 q141 30 240 78 q-68 46 -106 102 q-28 -28 -65 -57 l-34 40 q113 82 179 208 l49 -12 ZM673 552 q92 57 139 135 l-242 0 q-14 -18 -21 -26 q47 -65 124 -109 Z" /><glyph glyph-name="" unicode="&#x5d29;" d="M475 815 l54 0 l0 -166 l275 0 l0 128 l54 0 l0 -180 l-720 0 l0 180 l54 0 l0 -128 l283 0 l0 166 ZM193 291 l0 -106 l-1 -10 l205 0 l0 116 l-204 0 ZM397 341 l0 124 l-204 0 l0 -124 l204 0 ZM188 125 q-16 -134 -92 -225 l-41 37 q81 99 84 254 l0 325 l313 0 l0 -544 q0 -63 -76 -63 l-98 0 l-14 51 l25 -1 l24 0 q27 -1 46 -1 q38 0 38 33 l0 134 l-209 0 ZM618 291 l0 -103 l-1 -13 l205 0 l0 116 l-204 0 ZM822 341 l0 124 l-204 0 l0 -124 l204 0 ZM614 125 q-15 -136 -75 -226 l-41 38 q63 102 66 260 l0 319 l312 0 l0 -543 q0 -65 -76 -65 l-96 0 l-14 51 q68 -2 93 -2 q39 0 39 34 l0 134 l-208 0 Z" /><glyph glyph-name="" unicode="&#x5d4c;" d="M68 450 l82 0 l0 104 l54 0 l0 -104 l172 0 l0 103 l51 0 l0 -103 l80 0 l0 -51 l-80 0 l0 -431 l-223 0 l0 -56 l-54 0 l0 487 l-82 0 l0 51 ZM204 19 l172 0 l0 172 l-172 0 l0 -172 ZM376 238 l0 161 l-172 0 l0 -161 l172 0 ZM475 811 l54 0 l0 -147 l272 0 l0 116 l54 0 l0 -165 l-714 0 l0 162 l54 0 l0 -113 l280 0 l0 147 ZM659 571 q-11 -71 -20 -106 l267 0 l0 -34 q-23 -97 -60 -191 l-48 14 q32 69 52 161 l-225 0 q-34 -108 -92 -180 l-41 29 q91 115 116 315 l51 -8 ZM729 360 q0 -75 -10 -148 q71 -171 241 -270 l-35 -40 q-150 96 -222 237 l-6 -21 q-43 -132 -193 -214 l-33 41 q131 71 174 181 q32 92 34 234 l50 0 Z" /><glyph glyph-name="" unicode="&#x5ddd;" d="M495 770 l53 0 l0 -793 l-53 0 l0 793 ZM794 810 l53 0 l0 -905 l-53 0 l0 905 ZM198 806 l53 0 l0 -385 q-3 -352 -166 -517 l-41 36 q151 149 154 481 l0 385 Z" /><glyph glyph-name="" unicode="&#x2f2f;&#x5de5;" d="M477 688 l-356 0 l0 52 l767 0 l0 -52 l-357 0 l0 -681 l400 0 l0 -54 l-862 0 l0 54 l408 0 l0 681 Z" /><glyph glyph-name="" unicode="&#x5de6;" d="M75 662 l307 0 q15 67 28 155 l54 -6 q-10 -63 -28 -149 l506 0 l0 -52 l-518 0 q-36 -135 -85 -245 l523 0 l0 -53 l-254 0 l0 -325 l337 0 l0 -53 l-731 0 l0 53 l339 0 l0 325 l-239 0 q-96 -184 -237 -297 l-27 50 q226 191 319 545 l-294 0 l0 52 Z" /><glyph glyph-name="" unicode="&#x5de7;" d="M186 648 l-127 0 l0 53 l299 0 l0 -53 l-118 0 l0 -493 q78 30 144 64 l0 -54 q-152 -77 -323 -125 l-14 55 q76 19 139 40 l0 513 ZM392 746 l560 0 l0 -53 l-348 0 q-29 -152 -64 -270 l361 0 q-3 -418 -55 -472 q-36 -43 -165 -45 l-100 0 l-16 51 l61 0 q40 -1 57 -1 q98 1 125 36 q34 42 40 380 l-375 0 q51 182 78 321 l-159 0 l0 53 Z" /><glyph glyph-name="" unicode="&#x5de8;" d="M826 197 l-617 0 l0 -208 l724 0 l0 -53 l-777 0 l0 832 l751 0 l0 -52 l-698 0 l0 -184 l617 0 l0 -335 ZM209 481 l0 -232 l564 0 l0 232 l-564 0 Z" /><glyph glyph-name="" unicode="&#x5dee;" d="M111 697 l223 0 q-25 57 -61 112 l57 10 q34 -60 59 -122 l244 0 q36 60 54 126 l57 -8 q-20 -63 -56 -118 l205 0 l0 -51 l-359 0 q-9 -46 -23 -104 l329 0 l0 -50 l-343 0 q-18 -55 -37 -101 l467 0 l0 -52 l-491 0 q-15 -30 -38 -69 q-14 -22 -32 -44 l500 0 l0 -52 l-281 0 l0 -182 l342 0 l0 -53 l-734 0 l0 53 l337 0 l0 182 l-208 0 q-101 -108 -247 -197 l-35 45 q215 121 322 290 q9 15 15 27 l-294 0 l0 52 l320 0 q23 50 40 101 l-275 0 l0 50 l289 0 q12 50 21 104 l-367 0 l0 51 Z" /><glyph glyph-name="" unicode="&#x2f30;&#x5df1;" d="M940 190 q-12 -163 -38 -208 q-27 -47 -102 -47 l-549 0 q-103 0 -103 95 l0 394 l623 0 l0 280 l-682 0 l0 52 l737 0 l0 -385 l-623 0 l0 -324 q0 -59 68 -60 l519 0 q57 0 75 45 q16 45 22 175 l53 -17 Z" /><glyph glyph-name="" unicode="&#x5df2;" d="M826 371 l-623 0 l0 -318 q0 -66 67 -66 l519 0 q38 0 59 18 q31 33 40 203 l53 -17 q-14 -182 -48 -224 q-32 -32 -89 -32 l-550 0 q-106 0 -106 108 l0 531 l55 0 l0 -150 l568 0 l0 280 l-681 0 l0 52 l736 0 l0 -385 Z" /><glyph glyph-name="" unicode="&#x5e03;" d="M536 553 l53 0 l0 -127 l285 0 l0 -332 q0 -87 -86 -87 l-96 0 l-13 52 l92 -3 q51 0 51 49 l0 270 l-233 0 l0 -472 l-53 0 l0 472 l-234 0 l0 -374 l-52 0 l0 393 q-78 -84 -176 -158 l-35 45 q202 151 314 343 l-281 0 l0 54 l310 0 q34 71 57 140 l55 -6 q-24 -74 -52 -134 l495 0 l0 -54 l-522 0 q-55 -102 -136 -198 l257 0 l0 127 Z" /><glyph glyph-name="" unicode="&#x5e08;" d="M397 767 l556 0 l0 -52 l-251 0 l0 -140 l207 0 l0 -485 q0 -76 -69 -76 l-69 0 l-14 53 l65 -2 q34 0 34 37 l0 422 l-154 0 l0 -616 l-54 0 l0 616 l-154 0 l0 -519 l-53 0 l0 570 l207 0 l0 140 l-251 0 l0 52 ZM95 678 l54 0 l0 -520 l-54 0 l0 520 ZM271 807 l54 0 l0 -471 q-4 -296 -206 -434 l-42 36 q191 123 194 398 l0 471 Z" /><glyph glyph-name="" unicode="&#x5e0c;" d="M70 464 l328 0 q33 54 57 108 l53 -6 q-20 -50 -50 -102 l482 0 l0 -51 l-514 0 q-53 -75 -123 -142 l221 0 l0 98 l55 0 l0 -98 l267 0 l0 -234 q0 -91 -81 -91 l-80 0 l-15 52 l77 -3 q46 0 46 53 l0 173 l-214 0 l0 -324 l-55 0 l0 324 l-196 0 l0 -285 l-54 0 l0 309 q-82 -71 -191 -136 l-32 42 q198 114 311 262 l-292 0 l0 51 ZM813 787 q-96 -61 -206 -113 q127 -46 252 -104 l-30 -44 q-145 68 -289 119 q-147 -60 -366 -111 l-30 46 q182 36 325 90 q-126 44 -276 83 l29 42 q168 -44 316 -97 q125 52 227 118 l48 -29 Z" /><glyph glyph-name="" unicode="&#x5e15;" d="M913 656 l0 -750 l-53 0 l0 59 l-328 0 l0 -58 l-53 0 l0 749 l138 0 q31 75 46 160 l54 -7 q-14 -78 -46 -153 l242 0 ZM532 17 l328 0 l0 274 l-328 0 l0 -274 ZM532 343 l328 0 l0 262 l-328 0 l0 -262 ZM304 76 l-14 49 l35 -3 q27 0 27 25 l0 452 l-89 0 l0 -694 l-52 0 l0 694 l-89 0 l0 -533 l-49 0 l0 586 l138 0 l0 161 l52 0 l0 -161 l139 0 l0 -515 q0 -61 -61 -61 l-37 0 Z" /><glyph glyph-name="" unicode="&#x5e26;" d="M58 697 l154 0 l0 108 l51 0 l0 -108 l206 0 l0 112 l54 0 l0 -112 l209 0 l0 108 l52 0 l0 -108 l158 0 l0 -51 l-158 0 l0 -114 l-52 0 l0 114 l-209 0 l0 -118 l-54 0 l0 118 l-206 0 l0 -114 l-51 0 l0 114 l-154 0 l0 51 ZM903 462 l0 -187 l-54 0 l0 135 l-324 0 l0 -125 l261 0 l0 -235 q0 -80 -78 -80 l-88 0 l-15 53 l85 -2 q43 0 43 40 l0 173 l-208 0 l0 -335 l-54 0 l0 335 l-198 0 l0 -265 l-54 0 l0 316 l252 0 l0 125 l-321 0 l0 -137 l-54 0 l0 189 l807 0 Z" /><glyph glyph-name="" unicode="&#x5e27;" d="M276 76 l-2 7 l0 -177 l-50 0 l0 695 l-85 0 l0 -538 l-50 0 l0 587 l135 0 l0 159 l50 0 l0 -159 l135 0 l0 -492 q0 -82 -70 -82 l-63 0 ZM274 601 l0 -477 l49 -2 q36 0 36 47 l0 432 l-85 0 ZM893 572 l0 -445 l-53 0 l0 395 l-300 0 l0 -401 l-52 0 l0 451 l149 0 l0 247 l54 0 l0 -84 l244 0 l0 -51 l-244 0 l0 -112 l202 0 ZM734 95 q123 -63 229 -155 l-30 -45 q-112 101 -226 159 l27 41 ZM662 444 l51 0 l0 -138 q-3 -166 -64 -264 q-63 -92 -201 -145 l-30 45 q133 49 190 136 q51 87 54 228 l0 138 Z" /><glyph glyph-name="" unicode="&#x5e2e;" d="M111 613 l184 0 l0 87 l-203 0 l0 48 l203 0 l0 65 l54 0 l0 -65 l184 0 l0 -48 l-184 0 l0 -87 l156 0 l0 -47 l-157 0 q-3 -48 -12 -87 l195 0 l0 -49 l-210 0 q-14 -33 -31 -57 q-55 -75 -181 -118 l-29 45 q118 39 169 107 l7 12 l6 11 l-199 0 l0 49 l217 0 q11 37 14 87 l-183 0 l0 47 ZM482 327 l54 0 l0 -99 l317 0 l0 -195 q0 -75 -79 -75 l-84 0 l-14 50 l81 -2 q43 0 43 38 l0 134 l-264 0 l0 -283 l-54 0 l0 283 l-260 0 l0 -221 l-53 0 l0 271 l313 0 l0 99 ZM596 768 l311 0 l0 -37 q-37 -82 -87 -156 q90 -72 90 -129 q-2 -77 -79 -95 q-39 -11 -101 -11 l-19 50 q24 -3 41 -3 q103 2 103 59 q0 42 -95 129 q54 71 88 144 l-199 0 l0 -417 l-53 0 l0 466 Z" /><glyph glyph-name="" unicode="&#x5e38;" d="M473 311 l-223 0 l0 209 l502 0 l0 -209 l-225 0 l0 -94 l321 0 l0 -181 q0 -80 -85 -80 l-79 0 l-15 52 l76 -3 q49 0 49 43 l0 119 l-267 0 l0 -268 l-54 0 l0 268 l-261 0 l0 -218 l-53 0 l0 268 l314 0 l0 94 ZM473 820 l54 0 l0 -158 l141 0 q50 67 85 142 l51 -17 q-38 -74 -79 -125 l181 0 l0 -192 l-54 0 l0 140 l-704 0 l0 -141 l-54 0 l0 193 l164 0 q-28 63 -72 117 l52 19 q41 -60 74 -136 l161 0 l0 158 ZM699 357 l0 117 l-396 0 l0 -117 l396 0 Z" /><glyph glyph-name="" unicode="&#x5e45;" d="M431 771 l510 0 l0 -49 l-510 0 l0 49 ZM490 638 l389 0 l0 -211 l-389 0 l0 211 ZM828 472 l0 120 l-287 0 l0 -120 l287 0 ZM919 345 l0 -443 l-51 0 l0 49 l-369 0 l0 -49 l-51 0 l0 443 l471 0 ZM499 -1 l159 0 l0 126 l-159 0 l0 -126 ZM709 -1 l159 0 l0 126 l-159 0 l0 -126 ZM499 173 l159 0 l0 124 l-159 0 l0 -124 ZM709 297 l0 -124 l159 0 l0 124 l-159 0 ZM270 76 l-12 47 l49 -3 q31 0 31 26 l0 455 l-83 0 l0 -696 l-47 0 l0 696 l-84 0 l0 -532 l-47 0 l0 581 l131 0 l0 165 l47 0 l0 -165 l130 0 l0 -513 q0 -61 -62 -61 l-53 0 Z" /><glyph glyph-name="" unicode="&#x5e55;" d="M476 219 l52 0 l0 -76 l256 0 q-92 51 -141 115 l-263 0 q-57 -64 -148 -115 l244 0 l0 76 ZM476 99 l-207 0 l0 -172 l-52 0 l0 208 q-67 -33 -145 -62 l-24 45 q179 57 270 140 l-247 0 l0 46 l288 0 q24 33 35 63 l-208 0 l0 257 l118 0 l0 74 l-245 0 l0 46 l245 0 l0 71 l53 0 l0 -71 l287 0 l0 71 l53 0 l0 -71 l244 0 l0 -46 l-244 0 l0 -74 l118 0 l0 -257 l-371 0 q-12 -33 -30 -63 l515 0 l0 -46 l-233 0 q84 -86 260 -135 l-22 -45 q-72 24 -130 54 l0 -136 q0 -70 -76 -70 l-80 0 l-12 46 l77 -2 q40 0 40 37 l0 92 l-225 0 l0 -195 l-52 0 l0 195 ZM644 698 l-287 0 l0 -74 l287 0 l0 74 ZM763 406 l0 72 l-525 0 l0 -72 l525 0 ZM238 515 l525 0 l0 69 l-525 0 l0 -69 Z" /><glyph glyph-name="" unicode="&#x2f32;&#x5e72;" d="M134 762 l735 0 l0 -52 l-340 0 l0 -301 l413 0 l0 -53 l-413 0 l0 -453 l-54 0 l0 453 l-416 0 l0 53 l416 0 l0 301 l-341 0 l0 52 Z" /><glyph glyph-name="" unicode="&#x5e73;" d="M100 765 l803 0 l0 -54 l-380 0 l0 -395 l417 0 l0 -53 l-417 0 l0 -360 l-54 0 l0 360 l-409 0 l0 53 l409 0 l0 395 l-369 0 l0 54 ZM208 634 q60 -108 110 -231 l-51 -25 q-48 123 -109 232 l50 24 ZM846 618 q-47 -119 -124 -237 l-49 25 q78 119 123 235 l50 -23 Z" /><glyph glyph-name="" unicode="&#x5e74;" d="M246 644 q-61 -108 -157 -181 l-37 46 q154 117 208 314 l55 -10 q-17 -60 -42 -116 l632 0 l0 -53 l-321 0 l0 -179 l286 0 l0 -51 l-286 0 l0 -233 l353 0 l0 -54 l-353 0 l0 -228 l-53 0 l0 228 l-469 0 l0 54 l169 0 l0 284 l300 0 l0 179 l-285 0 ZM286 181 l245 0 l0 233 l-245 0 l0 -233 Z" /><glyph glyph-name="" unicode="&#x5e76;" d="M292 825 q58 -84 100 -169 l-49 -24 q-48 95 -100 169 l49 24 ZM647 567 l-276 0 l0 -101 q-1 -81 -9 -150 l285 0 l0 251 ZM647 263 l-293 0 q-19 -96 -50 -163 q-63 -127 -207 -200 l-32 50 q139 70 196 192 q23 51 37 121 l-241 0 l0 53 l250 0 q8 66 10 150 l0 101 l-219 0 l0 53 l507 0 q62 97 105 205 l58 -20 q-45 -104 -101 -185 l238 0 l0 -53 l-204 0 l0 -251 l243 0 l0 -53 l-243 0 l0 -356 l-54 0 l0 356 Z" /><glyph glyph-name="" unicode="&#x2f34;&#x5e7f;" d="M515 831 q34 -65 58 -127 l369 0 l0 -53 l-748 0 l0 -233 q-4 -327 -105 -525 l-45 41 q92 174 96 484 l0 286 l376 0 q-27 63 -60 117 l59 10 Z" /><glyph glyph-name="" unicode="&#x5e8f;" d="M528 818 q25 -42 45 -91 l366 0 l0 -52 l-745 0 l0 -275 q-6 -311 -107 -495 l-41 37 q90 164 94 458 l0 327 l378 0 q-21 45 -45 81 l55 10 ZM449 474 q83 -43 135 -77 q96 58 179 138 l-455 0 l0 48 l523 0 l0 -41 q-96 -102 -205 -172 q27 -17 55 -39 l-17 -17 l254 0 l0 -43 q-63 -117 -139 -199 l-42 32 q70 70 123 160 l-254 0 l0 -284 q0 -79 -80 -79 l-146 0 l-12 51 l71 -3 q39 -1 69 -1 q44 0 44 45 l0 271 l-300 0 l0 50 l375 0 q-86 64 -211 128 l33 32 Z" /><glyph glyph-name="" unicode="&#x5e93;" d="M524 823 q29 -45 54 -102 l364 0 l0 -54 l-748 0 l0 -237 q-4 -329 -102 -529 l-45 41 q88 175 93 488 l0 291 l380 0 q-25 50 -55 92 l59 10 ZM529 618 q-7 -21 -15 -47 q-6 -17 -16 -44 l401 0 l0 -49 l-421 0 q-46 -108 -98 -184 l212 0 l0 128 l54 0 l0 -128 l230 0 l0 -49 l-230 0 l0 -132 l305 0 l0 -50 l-305 0 l0 -162 l-54 0 l0 162 l-369 0 l0 50 l369 0 l0 132 l-270 0 l-11 45 q64 79 111 188 l-162 0 l0 49 l182 0 q22 60 35 102 l52 -11 Z" /></font>
</defs>
</svg>
